  0
SECTION
  2
BLOCKS
  0
ENDSEC
  0
SECTION
  2
ENTITIES
  0
LINE
  8
0
 10
-3.992
 11
-3.992
 20
-0.246
 21
0.246
  0
LINE
  8
0
 10
-3.992
 11
-3.932
 20
0.246
 21
0.735
  0
LINE
  8
0
 10
-3.932
 11
-3.812
 20
0.735
 21
1.213
  0
LINE
  8
0
 10
-3.812
 11
-3.634
 20
1.213
 21
1.672
  0
LINE
  8
0
 10
-3.634
 11
-3.401
 20
1.672
 21
2.106
  0
LINE
  8
0
 10
-3.401
 11
-3.116
 20
2.106
 21
2.508
  0
LINE
  8
0
 10
-3.116
 11
-2.785
 20
2.508
 21
2.872
  0
LINE
  8
0
 10
-2.785
 11
-2.411
 20
2.872
 21
3.192
  0
LINE
  8
0
 10
-2.411
 11
-2
 20
3.192
 21
3.464
  0
LINE
  8
0
 10
-2
 11
-1.559
 20
3.464
 21
3.684
  0
LINE
  8
0
 10
-1.559
 11
-1.5
 20
3.684
 21
3.705
  0
LINE
  8
0
 10
-1.5
 11
-1.5
 20
3.705
 21
1.988
  0
LINE
  8
0
 10
-1.5
 11
-1.768
 20
1.988
 21
1.768
  0
LINE
  8
0
 10
-1.768
 11
-2.079
 20
1.768
 21
1.389
  0
LINE
  8
0
 10
-2.079
 11
-2.31
 20
1.389
 21
0.957
  0
LINE
  8
0
 10
-2.31
 11
-2.452
 20
0.957
 21
0.488
  0
LINE
  8
0
 10
-2.452
 11
-2.5
 20
0.488
 21
0
  0
LINE
  8
0
 10
-2.5
 11
-2.452
 20
0
 21
-0.488
  0
LINE
  8
0
 10
-2.452
 11
-2.31
 20
-0.488
 21
-0.957
  0
LINE
  8
0
 10
-2.31
 11
-2.079
 20
-0.957
 21
-1.389
  0
LINE
  8
0
 10
-2.079
 11
-1.768
 20
-1.389
 21
-1.768
  0
LINE
  8
0
 10
-1.768
 11
-1.389
 20
-1.768
 21
-2.079
  0
LINE
  8
0
 10
-1.389
 11
-0.957
 20
-2.079
 21
-2.31
  0
LINE
  8
0
 10
-0.957
 11
-0.488
 20
-2.31
 21
-2.452
  0
LINE
  8
0
 10
-0.488
 11
0
 20
-2.452
 21
-2.5
  0
LINE
  8
0
 10
0
 11
0.488
 20
-2.5
 21
-2.452
  0
LINE
  8
0
 10
0.488
 11
0.957
 20
-2.452
 21
-2.31
  0
LINE
  8
0
 10
0.957
 11
1.389
 20
-2.31
 21
-2.079
  0
LINE
  8
0
 10
1.389
 11
1.768
 20
-2.079
 21
-1.768
  0
LINE
  8
0
 10
1.768
 11
2.079
 20
-1.768
 21
-1.389
  0
LINE
  8
0
 10
2.079
 11
2.31
 20
-1.389
 21
-0.957
  0
LINE
  8
0
 10
2.31
 11
2.452
 20
-0.957
 21
-0.488
  0
LINE
  8
0
 10
2.452
 11
2.5
 20
-0.488
 21
0
  0
LINE
  8
0
 10
2.5
 11
2.452
 20
0
 21
0.488
  0
LINE
  8
0
 10
2.452
 11
2.31
 20
0.488
 21
0.957
  0
LINE
  8
0
 10
2.31
 11
2.079
 20
0.957
 21
1.389
  0
LINE
  8
0
 10
2.079
 11
1.768
 20
1.389
 21
1.768
  0
LINE
  8
0
 10
1.768
 11
1.5
 20
1.768
 21
1.988
  0
LINE
  8
0
 10
1.5
 11
1.5
 20
1.988
 21
3.701
  0
LINE
  8
0
 10
1.5
 11
1.783
 20
3.701
 21
3.581
  0
LINE
  8
0
 10
1.783
 11
2.209
 20
3.581
 21
3.334
  0
LINE
  8
0
 10
2.209
 11
2.602
 20
3.334
 21
3.038
  0
LINE
  8
0
 10
2.602
 11
2.956
 20
3.038
 21
2.695
  0
LINE
  8
0
 10
2.956
 11
3.265
 20
2.695
 21
2.311
  0
LINE
  8
0
 10
3.265
 11
3.524
 20
2.311
 21
1.892
  0
LINE
  8
0
 10
3.524
 11
3.73
 20
1.892
 21
1.445
  0
LINE
  8
0
 10
3.73
 11
3.879
 20
1.445
 21
0.976
  0
LINE
  8
0
 10
3.879
 11
3.97
 20
0.976
 21
0.492
  0
LINE
  8
0
 10
3.97
 11
4
 20
0.492
 21
0
  0
LINE
  8
0
 10
4
 11
3.97
 20
0
 21
-0.492
  0
LINE
  8
0
 10
3.97
 11
3.879
 20
-0.492
 21
-0.976
  0
LINE
  8
0
 10
3.879
 11
3.73
 20
-0.976
 21
-1.445
  0
LINE
  8
0
 10
3.73
 11
3.524
 20
-1.445
 21
-1.892
  0
LINE
  8
0
 10
3.524
 11
3.265
 20
-1.892
 21
-2.311
  0
LINE
  8
0
 10
3.265
 11
2.956
 20
-2.311
 21
-2.695
  0
LINE
  8
0
 10
2.956
 11
2.602
 20
-2.695
 21
-3.038
  0
LINE
  8
0
 10
2.602
 11
2.209
 20
-3.038
 21
-3.334
  0
LINE
  8
0
 10
2.209
 11
1.783
 20
-3.334
 21
-3.581
  0
LINE
  8
0
 10
1.783
 11
1.329
 20
-3.581
 21
-3.773
  0
LINE
  8
0
 10
1.329
 11
0.856
 20
-3.773
 21
-3.907
  0
LINE
  8
0
 10
0.856
 11
0.369
 20
-3.907
 21
-3.983
  0
LINE
  8
0
 10
0.369
 11
-0.123
 20
-3.983
 21
-3.998
  0
LINE
  8
0
 10
-0.123
 11
-0.614
 20
-3.998
 21
-3.953
  0
LINE
  8
0
 10
-0.614
 11
-1.095
 20
-3.953
 21
-3.847
  0
LINE
  8
0
 10
-1.095
 11
-1.559
 20
-3.847
 21
-3.684
  0
LINE
  8
0
 10
-1.559
 11
-2
 20
-3.684
 21
-3.464
  0
LINE
  8
0
 10
-2
 11
-2.411
 20
-3.464
 21
-3.192
  0
LINE
  8
0
 10
-2.411
 11
-2.785
 20
-3.192
 21
-2.872
  0
LINE
  8
0
 10
-2.785
 11
-3.116
 20
-2.872
 21
-2.508
  0
LINE
  8
0
 10
-3.116
 11
-3.401
 20
-2.508
 21
-2.106
  0
LINE
  8
0
 10
-3.401
 11
-3.634
 20
-2.106
 21
-1.672
  0
LINE
  8
0
 10
-3.634
 11
-3.812
 20
-1.672
 21
-1.213
  0
LINE
  8
0
 10
-3.812
 11
-3.932
 20
-1.213
 21
-0.735
  0
LINE
  8
0
 10
-3.932
 11
-3.992
 20
-0.735
 21
-0.246
  0
ENDSEC
  0
SECTION
  2
OBJECTS
  0
DICTIONARY
  0
ENDSEC
  0
EOF
