999
dxflib 2.0.4.8
  0
SECTION
  2
HEADER
  9
$ACADVER
  1
AC1015
  9
$HANDSEED
  5
FFFF
  9
$DIMTAD
 70
0
  9
$USERR4
 40
0.0
  9
$CLAYER
  8
0
  9
$MENU
  1
.
  9
$CHAMFERA
 40
0.5
  9
$ATTREQ
 70
1
  9
$UCSYDIR
 10
0.0
 20
1.0
 30
0.0
  9
$USERR5
 40
0.0
  9
$SHADEDIF
 70
70
  9
$TILEMODE
 70
1
  9
$VISRETAIN
 70
1
  9
$EXTMIN
 10
0.0
 20
0.0
 30
0.0
  9
$ORTHOMODE
 70
0
  9
$REGENMODE
 70
1
  9
$TRACEWID
 40
0.05
  9
$CHAMFERB
 40
0.5
  9
$UCSXDIR
 10
1.0
 20
0.0
 30
0.0
  9
$DIMADEC
 70
2
  9
$GRIDUNIT
 10
0.0
 20
0.0
  9
$DIMASZ
 40
0.13
  9
$DIMSHO
 70
1
  9
$DIMALT
 70
0
  9
$DIMSAH
 70
0
  9
$DIMTFAC
 40
1.0
  9
$SKETCHINC
 40
0.1
  9
$USRTIMER
 70
1
  9
$ANGBASE
 50
0.0
  9
$PUCSYDIR
 10
0.0
 20
1.0
 30
0.0
  9
$DIMGAP
 40
0.06
  9
$LIMMIN
 10
0.0
 20
0.0
  9
$DIMTSZ
 40
0.0
  9
$SPLFRAME
 70
0
  9
$SURFTYPE
 70
6
  9
$PUCSXDIR
 10
1.0
 20
0.0
 30
0.0
  9
$DWGCODEPAGE
  3
ansi_1252
  9
$SURFTAB1
 70
6
  9
$LUNITS
 70
2
  9
$AUPREC
 70
2
  9
$SPLINESEGS
 70
8
  9
$INSBASE
 10
0.0
 20
0.0
 30
0.0
  9
$DIMRND
 40
0.0
  9
$DIMCEN
 40
0.09
  9
$ELEVATION
 40
0.0
  9
$SKPOLY
 70
0
  9
$SURFTAB2
 70
6
  9
$USERI1
 70
0
  9
$UNITMODE
 70
0
  9
$EXTMAX
 10
15.748031496099999
 20
15.748031496099999
 30
0.0
  9
$FILLMODE
 70
1
  9
$DRAGMODE
 70
2
  9
$TEXTSIZE
 40
0.125
  9
$PELEVATION
 40
0.0
  9
$UCSORG
 10
0.0
 20
0.0
 30
0.0
  9
$USERI2
 70
0
  9
$INSUNITS
 70
4
  9
$DIMEXO
 40
0.05
  9
$DIMSCALE
 40
1.0
  9
$DIMDLE
 40
0.0
  9
$DIMZIN
 70
0
  9
$TDUSRTIMER
 40
0.0000000116
  9
$ANGDIR
 70
0
  9
$SURFU
 70
6
  9
$USERI3
 70
0
  9
$LIMMAX
 10
15.748031496099999
 20
15.748031496099999
  9
$QTEXTMODE
 70
0
  9
$OSMODE
 70
37
  9
$SURFV
 70
6
  9
$USERI4
 70
0
  9
$WORLDVIEW
 70
1
  9
$DIMLUNIT
 70
2
  9
$ATTMODE
 70
1
  9
$DIMLIM
 70
0
  9
$DIMSE1
 70
0
  9
$THICKNESS
 40
0.0
  9
$LIMCHECK
 70
0
  9
$PDMODE
 70
0
  9
$HANDLING
 70
1
  9
$USERI5
 70
0
  9
$GRIDMODE
 70
1
  9
$DIMTXT
 40
0.125
  9
$CELTYPE
  6
BYLAYER
  9
$DIMTOH
 70
1
  9
$DIMSE2
 70
0
  9
$DIMLFAC
 40
1.0
  9
$DIMSOXD
 70
0
  9
$TDINDWG
 40
0.0000000116
  9
$SPLINETYPE
 70
6
  9
$PUCSORG
 10
0.0
 20
0.0
 30
0.0
  9
$PEXTMIN
 10
100000000000000000000.0
 20
100000000000000000000.0
 30
100000000000000000000.0
  9
$PEXTMAX
 10
-100000000000000000000.0
 20
-100000000000000000000.0
 30
-100000000000000000000.0
  9
$LUPREC
 70
2
  9
$CECOLOR
 62
256
  9
$DIMDLI
 40
0.38
  9
$DIMTM
 40
0.0
  9
$DIMASO
 70
1
  9
$DIMTVP
 40
0.0
  9
$DIMSTYLE
  2
STANDARD
  9
$PLINEWID
 40
0.0
  9
$PLIMCHECK
 70
0
  9
$LTSCALE
 40
1.0
  9
$DIMTIH
 70
1
  9
$DIMALTD
 70
2
  9
$DIMCLRT
 70
0
  9
$FILLETRAD
 40
0.5
  9
$TDUPDATE
 40
2455736.778087026
  9
$MAXACTVP
 70
64
  9
$PLIMMIN
 10
0.0
 20
0.0
  9
$PLIMMAX
 10
12.0
 20
9.0
  9
$DIMCLRD
 70
0
  9
$PDSIZE
 40
-1.0
  9
$ATTDIA
 70
0
  9
$USERR1
 40
0.0
  9
$DIMEXE
 40
0.125
  9
$TEXTSTYLE
  7
STANDARD
  9
$DIMTP
 40
0.0
  9
$DIMTOL
 70
0
  9
$DIMALTF
 40
25.399999999999999
  9
$DIMTOFL
 70
0
  9
$DIMCLRE
 70
0
  9
$TDCREATE
 40
2455736.7780870139
  9
$COORDS
 70
1
  9
$USERR2
 40
0.0
  9
$SHADEDGE
 70
3
  9
$PLINEGEN
 70
0
  9
$PSLTSCALE
 70
1
  9
$DIMAUNIT
 70
0
  9
$MIRRTEXT
 70
1
  9
$DIMTIX
 70
0
  9
$USERR3
 40
0.0
  9
$AUNITS
 70
0
  0
ENDSEC
  0
SECTION
  2
TABLES
  0
TABLE
  2
VPORT
  5
8
100
AcDbSymbolTable
 70
1
  0
VPORT
  5
30
100
AcDbSymbolTableRecord
100
AcDbViewportTableRecord
  2
*Active
 70
0
 10
0.0
 20
0.0
 11
1.0
 21
1.0
 12
286.30555555555549
 22
148.5
 13
0.0
 23
0.0
 14
10.0
 24
10.0
 15
10.0
 25
10.0
 16
0.0
 26
0.0
 36
1.0
 17
0.0
 27
0.0
 37
0.0
 40
297.0
 41
1.92798353909465
 42
50.0
 43
0.0
 44
0.0
 50
0.0
 51
0.0
 71
0
 72
100
 73
1
 74
3
 75
1
 76
1
 77
0
 78
0
281
0
 65
1
110
0.0
120
0.0
130
0.0
111
1.0
121
0.0
131
0.0
112
0.0
122
1.0
132
0.0
 79
0
146
0.0
  0
ENDTAB
  0
TABLE
  2
LTYPE
  5
5
100
AcDbSymbolTable
 70
21
  0
LTYPE
  5
14
100
AcDbSymbolTableRecord
100
AcDbLinetypeTableRecord
  2
ByBlock
 70
0
  3

 72
65
 73
0
 40
0.0
  0
LTYPE
  5
15
100
AcDbSymbolTableRecord
100
AcDbLinetypeTableRecord
  2
ByLayer
 70
0
  3

 72
65
 73
0
 40
0.0
  0
LTYPE
  5
16
100
AcDbSymbolTableRecord
100
AcDbLinetypeTableRecord
  2
CONTINUOUS
 70
0
  3
Solid line
 72
65
 73
0
 40
0.0
  0
LTYPE
  5
31
100
AcDbSymbolTableRecord
100
AcDbLinetypeTableRecord
  2
DOT
 70
0
  3
Dot . . . . . . . . . . . . . . . . . . . . . .
 72
65
 73
2
 40
6.3499999999999996
 49
0.0
 74
0
 49
-6.3499999999999996
 74
0
  0
LTYPE
  5
32
100
AcDbSymbolTableRecord
100
AcDbLinetypeTableRecord
  2
DOT2
 70
0
  3
Dot (.5x) .....................................
 72
65
 73
2
 40
3.1749999999999998
 49
0.0
 74
0
 49
-3.1749999999999998
 74
0
  0
LTYPE
  5
33
100
AcDbSymbolTableRecord
100
AcDbLinetypeTableRecord
  2
DOTX2
 70
0
  3
Dot (2x) .  .  .  .  .  .  .  .  .  .  .  .  .
 72
65
 73
2
 40
12.699999999999999
 49
0.0
 74
0
 49
-12.699999999999999
 74
0
  0
LTYPE
  5
34
100
AcDbSymbolTableRecord
100
AcDbLinetypeTableRecord
  2
DASHED
 70
0
  3
Dashed __ __ __ __ __ __ __ __ __ __ __ __ __ _
 72
65
 73
2
 40
19.050000000000001
 49
12.699999999999999
 74
0
 49
-6.3499999999999996
 74
0
  0
LTYPE
  5
35
100
AcDbSymbolTableRecord
100
AcDbLinetypeTableRecord
  2
DASHED2
 70
0
  3
Dashed (.5x) _ _ _ _ _ _ _ _ _ _ _ _ _ _ _ _ _
 72
65
 73
2
 40
9.5250000000000004
 49
6.3499999999999996
 74
0
 49
-3.1749999999999998
 74
0
  0
LTYPE
  5
36
100
AcDbSymbolTableRecord
100
AcDbLinetypeTableRecord
  2
DASHEDX2
 70
0
  3
Dashed (2x) ____  ____  ____  ____  ____  ___
 72
65
 73
2
 40
38.100000000000001
 49
25.399999999999999
 74
0
 49
-12.699999999999999
 74
0
  0
LTYPE
  5
37
100
AcDbSymbolTableRecord
100
AcDbLinetypeTableRecord
  2
DASHDOT
 70
0
  3
Dash dot __ . __ . __ . __ . __ . __ . __ . __
 72
65
 73
4
 40
25.399999999999999
 49
12.699999999999999
 74
0
 49
-6.3499999999999996
 74
0
 49
0.0
 74
0
 49
-6.3499999999999996
 74
0
  0
LTYPE
  5
38
100
AcDbSymbolTableRecord
100
AcDbLinetypeTableRecord
  2
DASHDOT2
 70
0
  3
Dash dot (.5x) _._._._._._._._._._._._._._._.
 72
65
 73
4
 40
12.699999999999999
 49
6.3499999999999996
 74
0
 49
-3.1749999999999998
 74
0
 49
0.0
 74
0
 49
-3.1749999999999998
 74
0
  0
LTYPE
  5
39
100
AcDbSymbolTableRecord
100
AcDbLinetypeTableRecord
  2
DASHDOTX2
 70
0
  3
Dash dot (2x) ____  .  ____  .  ____  .  ___
 72
65
 73
4
 40
50.799999999999997
 49
25.399999999999999
 74
0
 49
-12.699999999999999
 74
0
 49
0.0
 74
0
 49
-12.699999999999999
 74
0
  0
LTYPE
  5
3A
100
AcDbSymbolTableRecord
100
AcDbLinetypeTableRecord
  2
DIVIDE
 70
0
  3
Divide ____ . . ____ . . ____ . . ____ . . ____
 72
65
 73
6
 40
31.75
 49
12.699999999999999
 74
0
 49
-6.3499999999999996
 74
0
 49
0.0
 74
0
 49
-6.3499999999999996
 74
0
 49
0.0
 74
0
 49
-6.3499999999999996
 74
0
  0
LTYPE
  5
3B
100
AcDbSymbolTableRecord
100
AcDbLinetypeTableRecord
  2
DIVIDE2
 70
0
  3
Divide (.5x) __..__..__..__..__..__..__..__.._
 72
65
 73
6
 40
15.875
 49
6.3499999999999996
 74
0
 49
-3.1749999999999998
 74
0
 49
0.0
 74
0
 49
-3.1749999999999998
 74
0
 49
0.0
 74
0
 49
-3.1749999999999998
 74
0
  0
LTYPE
  5
3C
100
AcDbSymbolTableRecord
100
AcDbLinetypeTableRecord
  2
DIVIDEX2
 70
0
  3
Divide (2x) ________  .  .  ________  .  .  _
 72
65
 73
6
 40
63.5
 49
25.399999999999999
 74
0
 49
-12.699999999999999
 74
0
 49
0.0
 74
0
 49
-12.699999999999999
 74
0
 49
0.0
 74
0
 49
-12.699999999999999
 74
0
  0
LTYPE
  5
3D
100
AcDbSymbolTableRecord
100
AcDbLinetypeTableRecord
  2
CENTER
 70
0
  3
Center ____ _ ____ _ ____ _ ____ _ ____ _ ____
 72
65
 73
4
 40
50.799999999999997
 49
31.75
 74
0
 49
-6.3499999999999996
 74
0
 49
6.3499999999999996
 74
0
 49
-6.3499999999999996
 74
0
  0
LTYPE
  5
3E
100
AcDbSymbolTableRecord
100
AcDbLinetypeTableRecord
  2
CENTER2
 70
0
  3
Center (.5x) ___ _ ___ _ ___ _ ___ _ ___ _ ___
 72
65
 73
4
 40
28.574999999999999
 49
19.050000000000001
 74
0
 49
-3.1749999999999998
 74
0
 49
3.1749999999999998
 74
0
 49
-3.1749999999999998
 74
0
  0
LTYPE
  5
3F
100
AcDbSymbolTableRecord
100
AcDbLinetypeTableRecord
  2
CENTERX2
 70
0
  3
Center (2x) ________  __  ________  __  _____
 72
65
 73
4
 40
101.59999999999999
 49
63.5
 74
0
 49
-12.699999999999999
 74
0
 49
12.699999999999999
 74
0
 49
-12.699999999999999
 74
0
  0
LTYPE
  5
40
100
AcDbSymbolTableRecord
100
AcDbLinetypeTableRecord
  2
BORDER
 70
0
  3
Border __ __ . __ __ . __ __ . __ __ . __ __ .
 72
65
 73
6
 40
44.450000000000003
 49
12.699999999999999
 74
0
 49
-6.3499999999999996
 74
0
 49
12.699999999999999
 74
0
 49
-6.3499999999999996
 74
0
 49
0.0
 74
0
 49
-6.3499999999999996
 74
0
  0
LTYPE
  5
41
100
AcDbSymbolTableRecord
100
AcDbLinetypeTableRecord
  2
BORDER2
 70
0
  3
Border (.5x) __.__.__.__.__.__.__.__.__.__.__.
 72
65
 73
6
 40
22.225000000000001
 49
6.3499999999999996
 74
0
 49
-3.1749999999999998
 74
0
 49
6.3499999999999996
 74
0
 49
-3.1749999999999998
 74
0
 49
0.0
 74
0
 49
-3.1749999999999998
 74
0
  0
LTYPE
  5
42
100
AcDbSymbolTableRecord
100
AcDbLinetypeTableRecord
  2
BORDERX2
 70
0
  3
Border (2x) ____  ____  .  ____  ____  .  ___
 72
65
 73
6
 40
88.900000000000006
 49
25.399999999999999
 74
0
 49
-12.699999999999999
 74
0
 49
25.399999999999999
 74
0
 49
-12.699999999999999
 74
0
 49
0.0
 74
0
 49
-12.699999999999999
 74
0
  0
ENDTAB
  0
TABLE
  2
LAYER
  5
2
100
AcDbSymbolTable
 70
4
  0
LAYER
  5
10
100
AcDbSymbolTableRecord
100
AcDbLayerTableRecord
  2
0
 70
0
 62
7
  6
CONTINUOUS
390
F
  0
LAYER
  5
43
100
AcDbSymbolTableRecord
100
AcDbLayerTableRecord
  2
x_carriage_clip
 70
0
 62
7
  6
CONTINUOUS
370
0
390
F
  0
LAYER
  5
44
100
AcDbSymbolTableRecord
100
AcDbLayerTableRecord
  2
bushing_clamp
 70
0
 62
7
  6
CONTINUOUS
370
0
390
F
  0
LAYER
  5
45
100
AcDbSymbolTableRecord
100
AcDbLayerTableRecord
  2
x_carriage_spacer
 70
0
 62
7
  6
CONTINUOUS
370
0
390
F
  0
ENDTAB
  0
TABLE
  2
STYLE
  5
3
100
AcDbSymbolTable
 70
1
  0
STYLE
  5
11
100
AcDbSymbolTableRecord
100
AcDbTextStyleTableRecord
  2
Standard
 70
0
 40
0.0
 41
0.75
 50
0.0
 71
0
 42
2.5
  3
txt
  4

  0
ENDTAB
  0
TABLE
  2
VIEW
  5
6
100
AcDbSymbolTable
 70
0
  0
ENDTAB
  0
TABLE
  2
UCS
  5
7
100
AcDbSymbolTable
 70
0
  0
ENDTAB
  0
TABLE
  2
APPID
  5
9
100
AcDbSymbolTable
 70
1
  0
APPID
  5
12
100
AcDbSymbolTableRecord
100
AcDbRegAppTableRecord
  2
ACAD
 70
0
  0
ENDTAB
  0
TABLE
  2
DIMSTYLE
  5
A
100
AcDbSymbolTable
 70
1
100
AcDbDimStyleTable
 71
0
  0
DIMSTYLE
105
27
100
AcDbSymbolTableRecord
100
AcDbDimStyleTableRecord
  2
Standard
 41
0.13
 42
0.05
 43
3.75
 44
0.125
 70
0
 73
0
 74
0
 77
1
 78
8
140
0.125
141
2.5
143
0.03937007874016
147
0.06
171
3
172
1
271
2
272
2
274
3
278
44
283
0
284
8
340
11
  0
ENDTAB
  0
TABLE
  2
BLOCK_RECORD
  5
1
100
AcDbSymbolTable
 70
1
  0
BLOCK_RECORD
  5
1F
100
AcDbSymbolTableRecord
100
AcDbBlockTableRecord
  2
*Model_Space
340
22
  0
BLOCK_RECORD
  5
1B
100
AcDbSymbolTableRecord
100
AcDbBlockTableRecord
  2
*Paper_Space
340
1E
  0
BLOCK_RECORD
  5
23
100
AcDbSymbolTableRecord
100
AcDbBlockTableRecord
  2
*Paper_Space0
340
26
  0
ENDTAB
  0
ENDSEC
  0
SECTION
  2
BLOCKS
  0
BLOCK
  5
20
100
AcDbEntity
  8
0
100
AcDbBlockBegin
  2
*Model_Space
 70
0
 10
0.0
 20
0.0
 30
0.0
  3
*Model_Space
  1

  0
ENDBLK
  5
21
100
AcDbEntity
  8
0
100
AcDbBlockEnd
  0
BLOCK
  5
1C
100
AcDbEntity
 67
1
  8
0
100
AcDbBlockBegin
  2
*Paper_Space
 70
0
 10
0.0
 20
0.0
 30
0.0
  3
*Paper_Space
  1

  0
ENDBLK
  5
1D
100
AcDbEntity
 67
1
  8
0
100
AcDbBlockEnd
  0
BLOCK
  5
24
100
AcDbEntity
  8
0
100
AcDbBlockBegin
  2
*Paper_Space0
 70
0
 10
0.0
 20
0.0
 30
0.0
  3
*Paper_Space0
  1

  0
ENDBLK
  5
25
100
AcDbEntity
  8
0
100
AcDbBlockEnd
  0
ENDSEC
  0
SECTION
  2
ENTITIES
  0
POINT
  5
46
100
AcDbEntity
100
AcDbPoint
  8
0
 62
256
370
-1
  6
ByLayer
 10
0.0
 20
0.0
 30
0.0
  0
LINE
  5
47
100
AcDbEntity
100
AcDbLine
  8
x_carriage_clip
 62
7
370
-1
  6
CONTINUOUS
 10
-31.75
 20
-31.75
 30
0.0
 11
-31.75
 21
-17.469253075139992
 31
0.0
  0
ARC
  5
48
100
AcDbEntity
  8
x_carriage_clip
 62
7
370
-1
  6
CONTINUOUS
100
AcDbCircle
 10
-37.095239375540011
 20
-24.710000000780017
 30
0.0
 40
9.0000000000000302
100
AcDbArc
 50
53.564641874800003
 51
90.0
  0
LINE
  5
49
100
AcDbEntity
100
AcDbLine
  8
x_carriage_clip
 62
7
370
-1
  6
CONTINUOUS
 10
-37.095239375540011
 20
-15.709999999799996
 30
0.0
 11
-43.554852615799987
 21
-15.709999999799996
 31
0.0
  0
ARC
  5
4A
100
AcDbEntity
  8
x_carriage_clip
 62
7
370
-1
  6
CONTINUOUS
100
AcDbCircle
 10
-43.554852615799987
 20
-10.709999999819992
 30
0.0
 40
4.999999999999992
100
AcDbArc
 50
216.86989764579999
 51
270.0
  0
LINE
  5
4B
100
AcDbEntity
100
AcDbLine
  8
x_carriage_clip
 62
7
370
-1
  6
CONTINUOUS
 10
-47.554852616800012
 20
-13.709999999299985
 30
0.0
 11
-31.75
 21
-13.709999999299985
 31
0.0
  0
LINE
  5
4C
100
AcDbEntity
100
AcDbLine
  8
x_carriage_clip
 62
7
370
-1
  6
CONTINUOUS
 10
-31.75
 20
-13.709999999299985
 30
0.0
 11
-31.75
 21
-12.960000000699987
 31
0.0
  0
LINE
  5
4D
100
AcDbEntity
100
AcDbLine
  8
x_carriage_clip
 62
7
370
-1
  6
CONTINUOUS
 10
-31.75
 20
-12.960000000699987
 30
0.0
 11
-31.917426309799975
 21
-12.500000001219984
 31
0.0
  0
LINE
  5
4E
100
AcDbEntity
100
AcDbLine
  8
x_carriage_clip
 62
7
370
-1
  6
CONTINUOUS
 10
-31.917426309799975
 20
-12.500000001219984
 30
0.0
 11
-32.677426308719973
 21
-12.500000001219984
 31
0.0
  0
LINE
  5
4F
100
AcDbEntity
100
AcDbLine
  8
x_carriage_clip
 62
7
370
-1
  6
CONTINUOUS
 10
-32.677426308719973
 20
-12.500000001219984
 30
0.0
 11
-32.844852615979995
 21
-12.960000000699987
 31
0.0
  0
LINE
  5
50
100
AcDbEntity
100
AcDbLine
  8
x_carriage_clip
 62
7
370
-1
  6
CONTINUOUS
 10
-32.844852615979995
 20
-12.960000000699987
 30
0.0
 11
-33.780000001459975
 21
-12.960000000699987
 31
0.0
  0
LINE
  5
51
100
AcDbEntity
100
AcDbLine
  8
x_carriage_clip
 62
7
370
-1
  6
CONTINUOUS
 10
-33.780000001459975
 20
-12.960000000699987
 30
0.0
 11
-33.94742630871999
 21
-12.500000001219984
 31
0.0
  0
LINE
  5
52
100
AcDbEntity
100
AcDbLine
  8
x_carriage_clip
 62
7
370
-1
  6
CONTINUOUS
 10
-33.94742630871999
 20
-12.500000001219984
 30
0.0
 11
-34.707426307639992
 21
-12.500000001219984
 31
0.0
  0
LINE
  5
53
100
AcDbEntity
100
AcDbLine
  8
x_carriage_clip
 62
7
370
-1
  6
CONTINUOUS
 10
-34.707426307639992
 20
-12.500000001219984
 30
0.0
 11
-34.87485261743997
 21
-12.960000000699987
 31
0.0
  0
LINE
  5
54
100
AcDbEntity
100
AcDbLine
  8
x_carriage_clip
 62
7
370
-1
  6
CONTINUOUS
 10
-34.87485261743997
 20
-12.960000000699987
 30
0.0
 11
-35.810000000379993
 21
-12.960000000699987
 31
0.0
  0
LINE
  5
55
100
AcDbEntity
100
AcDbLine
  8
x_carriage_clip
 62
7
370
-1
  6
CONTINUOUS
 10
-35.810000000379993
 20
-12.960000000699987
 30
0.0
 11
-35.977426307640016
 21
-12.500000001219984
 31
0.0
  0
LINE
  5
56
100
AcDbEntity
100
AcDbLine
  8
x_carriage_clip
 62
7
370
-1
  6
CONTINUOUS
 10
-35.977426307640016
 20
-12.500000001219984
 30
0.0
 11
-36.737426309100016
 21
-12.500000001219984
 31
0.0
  0
LINE
  5
57
100
AcDbEntity
100
AcDbLine
  8
x_carriage_clip
 62
7
370
-1
  6
CONTINUOUS
 10
-36.737426309100016
 20
-12.500000001219984
 30
0.0
 11
-36.904852616359989
 21
-12.960000000699987
 31
0.0
  0
LINE
  5
58
100
AcDbEntity
100
AcDbLine
  8
x_carriage_clip
 62
7
370
-1
  6
CONTINUOUS
 10
-36.904852616359989
 20
-12.960000000699987
 30
0.0
 11
-37.840000001840011
 21
-12.960000000699987
 31
0.0
  0
LINE
  5
59
100
AcDbEntity
100
AcDbLine
  8
x_carriage_clip
 62
7
370
-1
  6
CONTINUOUS
 10
-37.840000001840011
 20
-12.960000000699987
 30
0.0
 11
-38.007426309099984
 21
-12.500000001219984
 31
0.0
  0
LINE
  5
5A
100
AcDbEntity
100
AcDbLine
  8
x_carriage_clip
 62
7
370
-1
  6
CONTINUOUS
 10
-38.007426309099984
 20
-12.500000001219984
 30
0.0
 11
-38.767426308019985
 21
-12.500000001219984
 31
0.0
  0
LINE
  5
5B
100
AcDbEntity
100
AcDbLine
  8
x_carriage_clip
 62
7
370
-1
  6
CONTINUOUS
 10
-38.767426308019985
 20
-12.500000001219984
 30
0.0
 11
-38.934852617820006
 21
-12.960000000699987
 31
0.0
  0
LINE
  5
5C
100
AcDbEntity
100
AcDbLine
  8
x_carriage_clip
 62
7
370
-1
  6
CONTINUOUS
 10
-38.934852617820006
 20
-12.960000000699987
 30
0.0
 11
-39.870000000759987
 21
-12.960000000699987
 31
0.0
  0
LINE
  5
5D
100
AcDbEntity
100
AcDbLine
  8
x_carriage_clip
 62
7
370
-1
  6
CONTINUOUS
 10
-39.870000000759987
 20
-12.960000000699987
 30
0.0
 11
-40.037426308020002
 21
-12.500000001219984
 31
0.0
  0
LINE
  5
5E
100
AcDbEntity
100
AcDbLine
  8
x_carriage_clip
 62
7
370
-1
  6
CONTINUOUS
 10
-40.037426308020002
 20
-12.500000001219984
 30
0.0
 11
-40.797426309480009
 21
-12.500000001219984
 31
0.0
  0
LINE
  5
5F
100
AcDbEntity
100
AcDbLine
  8
x_carriage_clip
 62
7
370
-1
  6
CONTINUOUS
 10
-40.797426309480009
 20
-12.500000001219984
 30
0.0
 11
-40.964852616739982
 21
-12.960000000699987
 31
0.0
  0
LINE
  5
60
100
AcDbEntity
100
AcDbLine
  8
x_carriage_clip
 62
7
370
-1
  6
CONTINUOUS
 10
-40.964852616739982
 20
-12.960000000699987
 30
0.0
 11
-41.900000002220004
 21
-12.960000000699987
 31
0.0
  0
LINE
  5
61
100
AcDbEntity
100
AcDbLine
  8
x_carriage_clip
 62
7
370
-1
  6
CONTINUOUS
 10
-41.900000002220004
 20
-12.960000000699987
 30
0.0
 11
-42.067426309479977
 21
-12.500000001219984
 31
0.0
  0
LINE
  5
62
100
AcDbEntity
100
AcDbLine
  8
x_carriage_clip
 62
7
370
-1
  6
CONTINUOUS
 10
-42.067426309479977
 20
-12.500000001219984
 30
0.0
 11
-42.827426308399978
 21
-12.500000001219984
 31
0.0
  0
LINE
  5
63
100
AcDbEntity
100
AcDbLine
  8
x_carriage_clip
 62
7
370
-1
  6
CONTINUOUS
 10
-42.827426308399978
 20
-12.500000001219984
 30
0.0
 11
-42.994852615660001
 21
-12.960000000699987
 31
0.0
  0
LINE
  5
64
100
AcDbEntity
100
AcDbLine
  8
x_carriage_clip
 62
7
370
-1
  6
CONTINUOUS
 10
-42.994852615660001
 20
-12.960000000699987
 30
0.0
 11
-43.93000000113998
 21
-12.960000000699987
 31
0.0
  0
LINE
  5
65
100
AcDbEntity
100
AcDbLine
  8
x_carriage_clip
 62
7
370
-1
  6
CONTINUOUS
 10
-43.93000000113998
 20
-12.960000000699987
 30
0.0
 11
-44.097426308399996
 21
-12.500000001219984
 31
0.0
  0
LINE
  5
66
100
AcDbEntity
100
AcDbLine
  8
x_carriage_clip
 62
7
370
-1
  6
CONTINUOUS
 10
-44.097426308399996
 20
-12.500000001219984
 30
0.0
 11
-44.857426309860003
 21
-12.500000001219984
 31
0.0
  0
LINE
  5
67
100
AcDbEntity
100
AcDbLine
  8
x_carriage_clip
 62
7
370
-1
  6
CONTINUOUS
 10
-44.857426309860003
 20
-12.500000001219984
 30
0.0
 11
-45.024852617119976
 21
-12.960000000699987
 31
0.0
  0
LINE
  5
68
100
AcDbEntity
100
AcDbLine
  8
x_carriage_clip
 62
7
370
-1
  6
CONTINUOUS
 10
-45.024852617119976
 20
-12.960000000699987
 30
0.0
 11
-45.960000000059999
 21
-12.960000000699987
 31
0.0
  0
LINE
  5
69
100
AcDbEntity
100
AcDbLine
  8
x_carriage_clip
 62
7
370
-1
  6
CONTINUOUS
 10
-45.960000000059999
 20
-12.960000000699987
 30
0.0
 11
-46.12742630985997
 21
-12.500000001219984
 31
0.0
  0
LINE
  5
6A
100
AcDbEntity
100
AcDbLine
  8
x_carriage_clip
 62
7
370
-1
  6
CONTINUOUS
 10
-46.12742630985997
 20
-12.500000001219984
 30
0.0
 11
-46.887426308779972
 21
-12.500000001219984
 31
0.0
  0
LINE
  5
6B
100
AcDbEntity
100
AcDbLine
  8
x_carriage_clip
 62
7
370
-1
  6
CONTINUOUS
 10
-46.887426308779972
 20
-12.500000001219984
 30
0.0
 11
-47.054852616039994
 21
-12.960000000699987
 31
0.0
  0
LINE
  5
6C
100
AcDbEntity
100
AcDbLine
  8
x_carriage_clip
 62
7
370
-1
  6
CONTINUOUS
 10
-47.054852616039994
 20
-12.960000000699987
 30
0.0
 11
-47.554852616800012
 21
-12.960000000699987
 31
0.0
  0
LINE
  5
6D
100
AcDbEntity
100
AcDbLine
  8
x_carriage_clip
 62
7
370
-1
  6
CONTINUOUS
 10
-47.554852616800012
 20
-12.960000000699987
 30
0.0
 11
-47.554852616800012
 21
-11.499999999700002
 31
0.0
  0
ARC
  5
6E
100
AcDbEntity
  8
x_carriage_clip
 62
7
370
-1
  6
CONTINUOUS
100
AcDbCircle
 10
-42.554852616820007
 20
-11.499999999700002
 30
0.0
 40
4.9999999999999467
100
AcDbArc
 50
90.0
 51
180.0
  0
LINE
  5
6F
100
AcDbEntity
100
AcDbLine
  8
x_carriage_clip
 62
7
370
-1
  6
CONTINUOUS
 10
-42.554852616820007
 20
-6.4999999997199991
 30
0.0
 11
-33.55088418334001
 21
-6.4999999997199991
 31
0.0
  0
LWPOLYLINE
  5
70
  8
x_carriage_clip
 62
7
370
-1
  6
CONTINUOUS
100
AcDbEntity
100
AcDbPolyline
 90
3
 70
0
 10
-33.55088418334001
 20
-6.4999999997199991
 10
-32.650442095479981
 20
-6.4687918579200128
 10
-31.750000005079997
 20
-6.2776517906200171
  0
LINE
  5
71
100
AcDbEntity
100
AcDbLine
  8
x_carriage_clip
 62
7
370
-1
  6
CONTINUOUS
 10
-31.750000002539998
 20
-6.2776517906200171
 30
0.0
 11
-31.75
 21
31.75
 31
0.0
  0
LINE
  5
72
100
AcDbEntity
100
AcDbLine
  8
x_carriage_clip
 62
7
370
-1
  6
CONTINUOUS
 10
-31.75
 20
31.75
 30
0.0
 11
31.75
 21
31.75
 31
0.0
  0
LINE
  5
73
100
AcDbEntity
100
AcDbLine
  8
x_carriage_clip
 62
7
370
-1
  6
CONTINUOUS
 10
31.75
 20
31.75
 30
0.0
 11
31.75
 21
18.722348211819998
 31
0.0
  0
LWPOLYLINE
  5
74
  8
x_carriage_clip
 62
7
370
-1
  6
CONTINUOUS
100
AcDbEntity
100
AcDbPolyline
 90
3
 70
0
 10
31.75
 20
18.722348211819998
 10
32.623450274939991
 20
18.533956287359981
 10
33.550884180800011
 20
18.500000000180016
  0
LINE
  5
75
100
AcDbEntity
100
AcDbLine
  8
x_carriage_clip
 62
7
370
-1
  6
CONTINUOUS
 10
33.550884180800011
 20
18.500000000180016
 30
0.0
 11
42.554852614280009
 21
18.500000000180016
 31
0.0
  0
ARC
  5
76
100
AcDbEntity
  8
x_carriage_clip
 62
7
370
-1
  6
CONTINUOUS
100
AcDbCircle
 10
42.554852614280009
 20
13.500000000200012
 30
0.0
 40
4.999999999999992
100
AcDbArc
 50
0.0
 51
90.0
  0
LINE
  5
77
100
AcDbEntity
100
AcDbLine
  8
x_carriage_clip
 62
7
370
-1
  6
CONTINUOUS
 10
47.554852614260007
 20
13.500000000200012
 30
0.0
 11
47.554852614260007
 21
12.039999999199983
 31
0.0
  0
LINE
  5
78
100
AcDbEntity
100
AcDbLine
  8
x_carriage_clip
 62
7
370
-1
  6
CONTINUOUS
 10
47.554852614260007
 20
12.039999999199983
 30
0.0
 11
47.054852613499996
 21
12.039999999199983
 31
0.0
  0
LINE
  5
79
100
AcDbEntity
100
AcDbLine
  8
x_carriage_clip
 62
7
370
-1
  6
CONTINUOUS
 10
47.054852613499996
 20
12.039999999199983
 30
0.0
 11
46.887426306240016
 21
12.500000001219984
 31
0.0
  0
LINE
  5
7A
100
AcDbEntity
100
AcDbLine
  8
x_carriage_clip
 62
7
370
-1
  6
CONTINUOUS
 10
46.887426306240016
 20
12.500000001219984
 30
0.0
 11
46.127426307320015
 21
12.500000001219984
 31
0.0
  0
LINE
  5
7B
100
AcDbEntity
100
AcDbLine
  8
x_carriage_clip
 62
7
370
-1
  6
CONTINUOUS
 10
46.127426307320015
 20
12.500000001219984
 30
0.0
 11
45.960000000059999
 21
12.039999999199983
 31
0.0
  0
LINE
  5
7C
100
AcDbEntity
100
AcDbLine
  8
x_carriage_clip
 62
7
370
-1
  6
CONTINUOUS
 10
45.960000000059999
 20
12.039999999199983
 30
0.0
 11
45.02485261458002
 21
12.039999999199983
 31
0.0
  0
LINE
  5
7D
100
AcDbEntity
100
AcDbLine
  8
x_carriage_clip
 62
7
370
-1
  6
CONTINUOUS
 10
45.02485261458002
 20
12.039999999199983
 30
0.0
 11
44.857426307319997
 21
12.500000001219984
 31
0.0
  0
LINE
  5
7E
100
AcDbEntity
100
AcDbLine
  8
x_carriage_clip
 62
7
370
-1
  6
CONTINUOUS
 10
44.857426307319997
 20
12.500000001219984
 30
0.0
 11
44.097426305859997
 21
12.500000001219984
 31
0.0
  0
LINE
  5
7F
100
AcDbEntity
100
AcDbLine
  8
x_carriage_clip
 62
7
370
-1
  6
CONTINUOUS
 10
44.097426305859997
 20
12.500000001219984
 30
0.0
 11
43.929999998600024
 21
12.039999999199983
 31
0.0
  0
LINE
  5
80
100
AcDbEntity
100
AcDbLine
  8
x_carriage_clip
 62
7
370
-1
  6
CONTINUOUS
 10
43.929999998600024
 20
12.039999999199983
 30
0.0
 11
42.994852613120003
 21
12.039999999199983
 31
0.0
  0
LINE
  5
81
100
AcDbEntity
100
AcDbLine
  8
x_carriage_clip
 62
7
370
-1
  6
CONTINUOUS
 10
42.994852613120003
 20
12.039999999199983
 30
0.0
 11
42.82742630585998
 21
12.500000001219984
 31
0.0
  0
LINE
  5
82
100
AcDbEntity
100
AcDbLine
  8
x_carriage_clip
 62
7
370
-1
  6
CONTINUOUS
 10
42.82742630585998
 20
12.500000001219984
 30
0.0
 11
42.067426306940028
 21
12.500000001219984
 31
0.0
  0
LINE
  5
83
100
AcDbEntity
100
AcDbLine
  8
x_carriage_clip
 62
7
370
-1
  6
CONTINUOUS
 10
42.067426306940028
 20
12.500000001219984
 30
0.0
 11
41.899999999680006
 21
12.039999999199983
 31
0.0
  0
LINE
  5
84
100
AcDbEntity
100
AcDbLine
  8
x_carriage_clip
 62
7
370
-1
  6
CONTINUOUS
 10
41.899999999680006
 20
12.039999999199983
 30
0.0
 11
40.964852614199984
 21
12.039999999199983
 31
0.0
  0
LINE
  5
85
100
AcDbEntity
100
AcDbLine
  8
x_carriage_clip
 62
7
370
-1
  6
CONTINUOUS
 10
40.964852614199984
 20
12.039999999199983
 30
0.0
 11
40.797426306940004
 21
12.500000001219984
 31
0.0
  0
LINE
  5
86
100
AcDbEntity
100
AcDbLine
  8
x_carriage_clip
 62
7
370
-1
  6
CONTINUOUS
 10
40.797426306940004
 20
12.500000001219984
 30
0.0
 11
40.037426305480004
 21
12.500000001219984
 31
0.0
  0
LINE
  5
87
100
AcDbEntity
100
AcDbLine
  8
x_carriage_clip
 62
7
370
-1
  6
CONTINUOUS
 10
40.037426305480004
 20
12.500000001219984
 30
0.0
 11
39.869999998219981
 21
12.039999999199983
 31
0.0
  0
LINE
  5
88
100
AcDbEntity
100
AcDbLine
  8
x_carriage_clip
 62
7
370
-1
  6
CONTINUOUS
 10
39.869999998219981
 20
12.039999999199983
 30
0.0
 11
38.934852615280008
 21
12.039999999199983
 31
0.0
  0
LINE
  5
89
100
AcDbEntity
100
AcDbLine
  8
x_carriage_clip
 62
7
370
-1
  6
CONTINUOUS
 10
38.934852615280008
 20
12.039999999199983
 30
0.0
 11
38.767426305479987
 21
12.500000001219984
 31
0.0
  0
LINE
  5
8A
100
AcDbEntity
100
AcDbLine
  8
x_carriage_clip
 62
7
370
-1
  6
CONTINUOUS
 10
38.767426305479987
 20
12.500000001219984
 30
0.0
 11
38.007426306559985
 21
12.500000001219984
 31
0.0
  0
LINE
  5
8B
100
AcDbEntity
100
AcDbLine
  8
x_carriage_clip
 62
7
370
-1
  6
CONTINUOUS
 10
38.007426306559985
 20
12.500000001219984
 30
0.0
 11
37.839999999300012
 21
12.039999999199983
 31
0.0
  0
LINE
  5
8C
100
AcDbEntity
100
AcDbLine
  8
x_carriage_clip
 62
7
370
-1
  6
CONTINUOUS
 10
37.839999999300012
 20
12.039999999199983
 30
0.0
 11
36.90485261381999
 21
12.039999999199983
 31
0.0
  0
LINE
  5
8D
100
AcDbEntity
100
AcDbLine
  8
x_carriage_clip
 62
7
370
-1
  6
CONTINUOUS
 10
36.90485261381999
 20
12.039999999199983
 30
0.0
 11
36.73742630656001
 21
12.500000001219984
 31
0.0
  0
LINE
  5
8E
100
AcDbEntity
100
AcDbLine
  8
x_carriage_clip
 62
7
370
-1
  6
CONTINUOUS
 10
36.73742630656001
 20
12.500000001219984
 30
0.0
 11
35.977426307640016
 21
12.500000001219984
 31
0.0
  0
LINE
  5
8F
100
AcDbEntity
100
AcDbLine
  8
x_carriage_clip
 62
7
370
-1
  6
CONTINUOUS
 10
35.977426307640016
 20
12.500000001219984
 30
0.0
 11
35.809999997839988
 21
12.039999999199983
 31
0.0
  0
LINE
  5
90
100
AcDbEntity
100
AcDbLine
  8
x_carriage_clip
 62
7
370
-1
  6
CONTINUOUS
 10
35.809999997839988
 20
12.039999999199983
 30
0.0
 11
34.874852614900014
 21
12.039999999199983
 31
0.0
  0
LINE
  5
91
100
AcDbEntity
100
AcDbLine
  8
x_carriage_clip
 62
7
370
-1
  6
CONTINUOUS
 10
34.874852614900014
 20
12.039999999199983
 30
0.0
 11
34.707426307639992
 21
12.500000001219984
 31
0.0
  0
LINE
  5
92
100
AcDbEntity
100
AcDbLine
  8
x_carriage_clip
 62
7
370
-1
  6
CONTINUOUS
 10
34.707426307639992
 20
12.500000001219984
 30
0.0
 11
33.947426306179992
 21
12.500000001219984
 31
0.0
  0
LINE
  5
93
100
AcDbEntity
100
AcDbLine
  8
x_carriage_clip
 62
7
370
-1
  6
CONTINUOUS
 10
33.947426306179992
 20
12.500000001219984
 30
0.0
 11
33.779999998920019
 21
12.039999999199983
 31
0.0
  0
LINE
  5
94
100
AcDbEntity
100
AcDbLine
  8
x_carriage_clip
 62
7
370
-1
  6
CONTINUOUS
 10
33.779999998920019
 20
12.039999999199983
 30
0.0
 11
32.844852613439997
 21
12.039999999199983
 31
0.0
  0
LINE
  5
95
100
AcDbEntity
100
AcDbLine
  8
x_carriage_clip
 62
7
370
-1
  6
CONTINUOUS
 10
32.844852613439997
 20
12.039999999199983
 30
0.0
 11
32.677426306180017
 21
12.500000001219984
 31
0.0
  0
LINE
  5
96
100
AcDbEntity
100
AcDbLine
  8
x_carriage_clip
 62
7
370
-1
  6
CONTINUOUS
 10
32.677426306180017
 20
12.500000001219984
 30
0.0
 11
31.917426307260019
 21
12.500000001219984
 31
0.0
  0
LINE
  5
97
100
AcDbEntity
100
AcDbLine
  8
x_carriage_clip
 62
7
370
-1
  6
CONTINUOUS
 10
31.917426307260019
 20
12.500000001219984
 30
0.0
 11
31.75
 21
12.039999999199983
 31
0.0
  0
LINE
  5
98
100
AcDbEntity
100
AcDbLine
  8
x_carriage_clip
 62
7
370
-1
  6
CONTINUOUS
 10
31.75
 20
12.039999999199983
 30
0.0
 11
31.75
 21
11.290000000599985
 31
0.0
  0
LINE
  5
99
100
AcDbEntity
100
AcDbLine
  8
x_carriage_clip
 62
7
370
-1
  6
CONTINUOUS
 10
31.75
 20
11.290000000599985
 30
0.0
 11
47.554852614260007
 21
11.290000000599985
 31
0.0
  0
ARC
  5
9A
100
AcDbEntity
  8
x_carriage_clip
 62
7
370
-1
  6
CONTINUOUS
100
AcDbCircle
 10
43.554852613259989
 20
14.290000000079978
 30
0.0
 40
5.0000000000000355
100
AcDbArc
 50
270.0
 51
323.13010235420001
  0
LINE
  5
9B
100
AcDbEntity
100
AcDbLine
  8
x_carriage_clip
 62
7
370
-1
  6
CONTINUOUS
 10
43.554852613259989
 20
9.2900000000999743
 30
0.0
 11
37.095239375540011
 21
9.2900000000999743
 31
0.0
  0
ARC
  5
9C
100
AcDbEntity
  8
x_carriage_clip
 62
7
370
-1
  6
CONTINUOUS
100
AcDbCircle
 10
37.095239375540011
 20
0.2899999991199955
 30
0.0
 40
8.9999999999999787
100
AcDbArc
 50
90.0
 51
126.43535812520001
  0
LINE
  5
9D
100
AcDbEntity
100
AcDbLine
  8
x_carriage_clip
 62
7
370
-1
  6
CONTINUOUS
 10
31.75
 20
7.5307469247599776
 30
0.0
 11
31.75
 21
-31.75
 31
0.0
  0
LINE
  5
9E
100
AcDbEntity
100
AcDbLine
  8
x_carriage_clip
 62
7
370
-1
  6
CONTINUOUS
 10
31.75
 20
-31.75
 30
0.0
 11
19.049999999999997
 21
-31.75
 31
0.0
  0
LINE
  5
9F
100
AcDbEntity
100
AcDbLine
  8
x_carriage_clip
 62
7
370
-1
  6
CONTINUOUS
 10
19.049999999999997
 20
-31.75
 30
0.0
 11
19.049999999999997
 21
19.049999999999997
 31
0.0
  0
LINE
  5
A0
100
AcDbEntity
100
AcDbLine
  8
x_carriage_clip
 62
7
370
-1
  6
CONTINUOUS
 10
19.049999999999997
 20
19.049999999999997
 30
0.0
 11
-19.049999999999997
 21
19.049999999999997
 31
0.0
  0
LINE
  5
A1
100
AcDbEntity
100
AcDbLine
  8
x_carriage_clip
 62
7
370
-1
  6
CONTINUOUS
 10
-19.049999999999997
 20
19.049999999999997
 30
0.0
 11
-19.049999999999997
 21
-31.75
 31
0.0
  0
LINE
  5
A2
100
AcDbEntity
100
AcDbLine
  8
x_carriage_clip
 62
7
370
-1
  6
CONTINUOUS
 10
-19.049999999999997
 20
-31.75
 30
0.0
 11
-31.75
 21
-31.75
 31
0.0
  0
CIRCLE
  5
A3
100
AcDbEntity
100
AcDbCircle
  8
x_carriage_clip
 62
7
370
-1
  6
CONTINUOUS
 10
-25.399999999999999
 20
-25.812500000500009
 30
0.0
 40
1.7500000000000535
  0
CIRCLE
  5
A4
100
AcDbEntity
100
AcDbCircle
  8
x_carriage_clip
 62
7
370
-1
  6
CONTINUOUS
 10
-25.399999999999999
 20
25.812500000500009
 30
0.0
 40
1.7499999999999618
  0
CIRCLE
  5
A5
100
AcDbEntity
100
AcDbCircle
  8
x_carriage_clip
 62
7
370
-1
  6
CONTINUOUS
 10
25.399999999999999
 20
25.812500000500009
 30
0.0
 40
1.7499999999999618
  0
CIRCLE
  5
A6
100
AcDbEntity
100
AcDbCircle
  8
x_carriage_clip
 62
7
370
-1
  6
CONTINUOUS
 10
25.399999999999999
 20
-25.812500000500009
 30
0.0
 40
1.7500000000000535
  0
LINE
  5
A7
100
AcDbEntity
100
AcDbLine
  8
bushing_clamp
 62
7
370
-1
  6
CONTINUOUS
 10
6.17842712495999
 20
-16.759072874980031
 30
0.0
 11
4.5215728745399995
 21
-18.415927125399996
 31
0.0
  0
ARC
  5
A8
100
AcDbEntity
  8
bushing_clamp
 62
7
370
-1
  6
CONTINUOUS
100
AcDbCircle
 10
1.6931457501000056
 20
-15.587500000960027
 30
0.0
 40
4.0000000000000373
100
AcDbArc
 50
270.0
 51
315.0
  0
LINE
  5
A9
100
AcDbEntity
100
AcDbLine
  8
bushing_clamp
 62
7
370
-1
  6
CONTINUOUS
 10
1.6931457501000056
 20
-19.58749999942
 30
0.0
 11
-18.649999999900004
 21
-19.58749999942
 31
0.0
  0
ARC
  5
AA
100
AcDbEntity
  8
bushing_clamp
 62
7
370
-1
  6
CONTINUOUS
100
AcDbCircle
 10
-18.649999999900004
 20
-15.587500000960027
 30
0.0
 40
4.0000000000000373
100
AcDbArc
 50
180.0
 51
270.0
  0
LINE
  5
AB
100
AcDbEntity
100
AcDbLine
  8
bushing_clamp
 62
7
370
-1
  6
CONTINUOUS
 10
-22.6500000009
 20
-15.587500000960027
 30
0.0
 11
-22.6500000009
 21
-8.5875000004800128
 31
0.0
  0
ARC
  5
AC
100
AcDbEntity
  8
bushing_clamp
 62
7
370
-1
  6
CONTINUOUS
100
AcDbCircle
 10
-18.649999999900004
 20
-8.5875000004800128
 30
0.0
 40
4.0000000000000044
100
AcDbArc
 50
90.0
 51
180.0
  0
LINE
  5
AD
100
AcDbEntity
100
AcDbLine
  8
bushing_clamp
 62
7
370
-1
  6
CONTINUOUS
 10
-18.649999999900004
 20
-4.5874999994799932
 30
0.0
 11
-18.032651318420001
 21
-4.5874999994799932
 31
0.0
  0
ARC
  5
AE
100
AcDbEntity
  8
bushing_clamp
 62
7
370
-1
  6
CONTINUOUS
100
AcDbCircle
 10
3.3499999979799955
 20
-13.930645750540014
 30
0.0
 40
4.000000000000024
100
AcDbArc
 50
315.0
 51
0.0
  0
ARC
  5
AF
100
AcDbEntity
  8
bushing_clamp
 62
7
370
-1
  6
CONTINUOUS
100
AcDbCircle
 10
-18.032651318420001
 20
-5.0875000002400075
 30
0.0
 40
0.4999999999999812
100
AcDbArc
 50
349.37929342680002
 51
90.0
  0
ARC
  5
B0
100
AcDbEntity
  8
bushing_clamp
 62
7
370
-1
  6
CONTINUOUS
100
AcDbCircle
 10
-11.300000000919999
 20
-6.3499999999999996
 30
0.0
 40
6.3500000000000068
100
AcDbArc
 50
169.37929342679999
 51
36.287457085100002
  0
ARC
  5
B1
100
AcDbEntity
  8
bushing_clamp
 62
7
370
-1
  6
CONTINUOUS
100
AcDbCircle
 10
-5.3754747024200027
 20
-2.0000000005000111
 30
0.0
 40
1.0000000000000437
100
AcDbArc
 50
90.0
 51
216.28745708509999
  0
LINE
  5
B2
100
AcDbEntity
100
AcDbLine
  8
bushing_clamp
 62
7
370
-1
  6
CONTINUOUS
 10
-5.3754747024200027
 20
-1.0000000015200285
 30
0.0
 11
-1.6000000004000037
 21
-1.0000000015200285
 31
0.0
  0
LINE
  5
B3
100
AcDbEntity
100
AcDbLine
  8
bushing_clamp
 62
7
370
-1
  6
CONTINUOUS
 10
-1.6000000004000037
 20
-1.0000000015200285
 30
0.0
 11
-1.6000000004000037
 21
-7.0000000004800134
 31
0.0
  0
LINE
  5
B4
100
AcDbEntity
100
AcDbLine
  8
bushing_clamp
 62
7
370
-1
  6
CONTINUOUS
 10
-1.6000000004000037
 20
-7.0000000004800134
 30
0.0
 11
-2.8600000000800074
 21
-7.0000000004800134
 31
0.0
  0
LINE
  5
B5
100
AcDbEntity
100
AcDbLine
  8
bushing_clamp
 62
7
370
-1
  6
CONTINUOUS
 10
-2.8600000000800074
 20
-7.0000000004800134
 30
0.0
 11
-2.8600000000800074
 21
-9.8000000011799919
 31
0.0
  0
LINE
  5
B6
100
AcDbEntity
100
AcDbLine
  8
bushing_clamp
 62
7
370
-1
  6
CONTINUOUS
 10
-2.8600000000800074
 20
-9.8000000011799919
 30
0.0
 11
-1.6000000004000037
 21
-9.8000000011799919
 31
0.0
  0
LINE
  5
B7
100
AcDbEntity
100
AcDbLine
  8
bushing_clamp
 62
7
370
-1
  6
CONTINUOUS
 10
-1.6000000004000037
 20
-9.8000000011799919
 30
0.0
 11
-1.6000000004000037
 21
-11.499999999700002
 31
0.0
  0
ARC
  5
B8
100
AcDbEntity
  8
bushing_clamp
 62
7
370
-1
  6
CONTINUOUS
100
AcDbCircle
 10
-1.0999999996400012
 20
-11.499999999700002
 30
0.0
 40
0.499999999999999
100
AcDbArc
 50
180.0
 51
270.0
  0
LINE
  5
B9
100
AcDbEntity
100
AcDbLine
  8
bushing_clamp
 62
7
370
-1
  6
CONTINUOUS
 10
-1.0999999996400012
 20
-12.000000000460016
 30
0.0
 11
1.0999999996400012
 21
-12.000000000460016
 31
0.0
  0
ARC
  5
BA
100
AcDbEntity
  8
bushing_clamp
 62
7
370
-1
  6
CONTINUOUS
100
AcDbCircle
 10
1.0999999996400012
 20
-11.499999999700002
 30
0.0
 40
0.499999999999999
100
AcDbArc
 50
270.0
 51
0.0
  0
LINE
  5
BB
100
AcDbEntity
100
AcDbLine
  8
bushing_clamp
 62
7
370
-1
  6
CONTINUOUS
 10
1.6000000003999924
 20
-11.499999999700002
 30
0.0
 11
1.6000000003999924
 21
-9.8000000011799919
 31
0.0
  0
LINE
  5
BC
100
AcDbEntity
100
AcDbLine
  8
bushing_clamp
 62
7
370
-1
  6
CONTINUOUS
 10
1.6000000003999924
 20
-9.8000000011799919
 30
0.0
 11
2.8600000000799848
 21
-9.8000000011799919
 31
0.0
  0
LINE
  5
BD
100
AcDbEntity
100
AcDbLine
  8
bushing_clamp
 62
7
370
-1
  6
CONTINUOUS
 10
2.8600000000799848
 20
-9.8000000011799919
 30
0.0
 11
2.8600000000799848
 21
-7.0000000004800134
 31
0.0
  0
LINE
  5
BE
100
AcDbEntity
100
AcDbLine
  8
bushing_clamp
 62
7
370
-1
  6
CONTINUOUS
 10
2.8600000000799848
 20
-7.0000000004800134
 30
0.0
 11
1.6000000003999924
 21
-7.0000000004800134
 31
0.0
  0
LINE
  5
BF
100
AcDbEntity
100
AcDbLine
  8
bushing_clamp
 62
7
370
-1
  6
CONTINUOUS
 10
1.6000000003999924
 20
-7.0000000004800134
 30
0.0
 11
1.6000000003999924
 21
-1.0000000015200285
 31
0.0
  0
LINE
  5
C0
100
AcDbEntity
100
AcDbLine
  8
bushing_clamp
 62
7
370
-1
  6
CONTINUOUS
 10
1.6000000003999924
 20
-1.0000000015200285
 30
0.0
 11
4.3499999995000005
 21
-1.0000000015200285
 31
0.0
  0
LINE
  5
C1
100
AcDbEntity
100
AcDbLine
  8
bushing_clamp
 62
7
370
-1
  6
CONTINUOUS
 10
4.3499999995000005
 20
-1.0000000015200285
 30
0.0
 11
4.3499999995000005
 21
-0.0000000000000007
 31
0.0
  0
LINE
  5
C2
100
AcDbEntity
100
AcDbLine
  8
bushing_clamp
 62
7
370
-1
  6
CONTINUOUS
 10
4.3499999995000005
 20
-0.0000000000000007
 30
0.0
 11
7.3499999989799933
 21
-0.0000000000000007
 31
0.0
  0
LINE
  5
C3
100
AcDbEntity
100
AcDbLine
  8
bushing_clamp
 62
7
370
-1
  6
CONTINUOUS
 10
7.3499999989799933
 20
-0.0000000000000007
 30
0.0
 11
7.3499999989799933
 21
-13.930645750540014
 31
0.0
  0
LINE
  5
C4
100
AcDbEntity
100
AcDbLine
  8
x_carriage_spacer
 62
7
370
-1
  6
CONTINUOUS
 10
-31.75
 20
31.75
 30
0.0
 11
31.75
 21
31.75
 31
0.0
  0
LINE
  5
C5
100
AcDbEntity
100
AcDbLine
  8
x_carriage_spacer
 62
7
370
-1
  6
CONTINUOUS
 10
31.75
 20
-31.75
 30
0.0
 11
19.049999999999997
 21
-31.75
 31
0.0
  0
LINE
  5
C6
100
AcDbEntity
100
AcDbLine
  8
x_carriage_spacer
 62
7
370
-1
  6
CONTINUOUS
 10
19.049999999999997
 20
-31.75
 30
0.0
 11
19.049999999999997
 21
19.049999999999997
 31
0.0
  0
LINE
  5
C7
100
AcDbEntity
100
AcDbLine
  8
x_carriage_spacer
 62
7
370
-1
  6
CONTINUOUS
 10
19.049999999999997
 20
19.049999999999997
 30
0.0
 11
-19.049999999999997
 21
19.049999999999997
 31
0.0
  0
LINE
  5
C8
100
AcDbEntity
100
AcDbLine
  8
x_carriage_spacer
 62
7
370
-1
  6
CONTINUOUS
 10
-19.049999999999997
 20
19.049999999999997
 30
0.0
 11
-19.049999999999997
 21
-31.75
 31
0.0
  0
LINE
  5
C9
100
AcDbEntity
100
AcDbLine
  8
x_carriage_spacer
 62
7
370
-1
  6
CONTINUOUS
 10
-19.049999999999997
 20
-31.75
 30
0.0
 11
-31.75
 21
-31.75
 31
0.0
  0
CIRCLE
  5
CA
100
AcDbEntity
100
AcDbCircle
  8
x_carriage_spacer
 62
7
370
-1
  6
CONTINUOUS
 10
-25.399999999999999
 20
-25.812500000500009
 30
0.0
 40
1.7500000000000535
  0
CIRCLE
  5
CB
100
AcDbEntity
100
AcDbCircle
  8
x_carriage_spacer
 62
7
370
-1
  6
CONTINUOUS
 10
-25.399999999999999
 20
25.812500000500009
 30
0.0
 40
1.7499999999999618
  0
CIRCLE
  5
CC
100
AcDbEntity
100
AcDbCircle
  8
x_carriage_spacer
 62
7
370
-1
  6
CONTINUOUS
 10
25.399999999999999
 20
25.812500000500009
 30
0.0
 40
1.7499999999999618
  0
CIRCLE
  5
CD
100
AcDbEntity
100
AcDbCircle
  8
x_carriage_spacer
 62
7
370
-1
  6
CONTINUOUS
 10
25.399999999999999
 20
-25.812500000500009
 30
0.0
 40
1.7500000000000535
  0
LINE
  5
CE
100
AcDbEntity
100
AcDbLine
  8
x_carriage_spacer
 62
7
370
-1
  6
CONTINUOUS
 10
31.75
 20
31.75
 30
0.0
 11
31.75
 21
-31.75
 31
0.0
  0
LINE
  5
CF
100
AcDbEntity
100
AcDbLine
  8
x_carriage_spacer
 62
7
370
-1
  6
CONTINUOUS
 10
-31.750000004241386
 20
-31.75
 30
0.0
 11
-31.75
 21
31.75
 31
0.0
  0
ENDSEC
  0
SECTION
  2
OBJECTS
  0
DICTIONARY
  5
C
100
AcDbDictionary
280
0
281
1
  3
ACAD_GROUP
350
D
  3
ACAD_LAYOUT
350
1A
  3
ACAD_MLINESTYLE
350
17
  3
ACAD_PLOTSETTINGS
350
19
  3
ACAD_PLOTSTYLENAME
350
E
  3
AcDbVariableDictionary
350
D0
  0
DICTIONARY
  5
D
100
AcDbDictionary
280
0
281
1
  0
ACDBDICTIONARYWDFLT
  5
E
100
AcDbDictionary
281
1
  3
Normal
350
F
100
AcDbDictionaryWithDefault
340
F
  0
ACDBPLACEHOLDER
  5
F
  0
DICTIONARY
  5
17
100
AcDbDictionary
280
0
281
1
  3
Standard
350
18
  0
MLINESTYLE
  5
18
100
AcDbMlineStyle
  2
STANDARD
 70
0
  3

 62
256
 51
90.0
 52
90.0
 71
2
 49
0.5
 62
256
  6
BYLAYER
 49
-0.5
 62
256
  6
BYLAYER
  0
DICTIONARY
  5
19
100
AcDbDictionary
280
0
281
1
  0
DICTIONARY
  5
1A
100
AcDbDictionary
281
1
  3
Layout1
350
1E
  3
Layout2
350
26
  3
Model
350
22
  0
LAYOUT
  5
1E
100
AcDbPlotSettings
  1

  2
C:\Program Files\AutoCAD 2002\plotters\DWF ePlot (optimized for plotting).pc3
  4

  6

 40
0.0
 41
0.0
 42
0.0
 43
0.0
 44
0.0
 45
0.0
 46
0.0
 47
0.0
 48
0.0
 49
0.0
140
0.0
141
0.0
142
1.0
143
1.0
 70
688
 72
0
 73
0
 74
5
  7

 75
16
147
1.0
148
0.0
149
0.0
100
AcDbLayout
  1
Layout1
 70
1
 71
1
 10
0.0
 20
0.0
 11
420.0
 21
297.0
 12
0.0
 22
0.0
 32
0.0
 14
100000000000000000000.0
 24
100000000000000000000.0
 34
100000000000000000000.0
 15
-100000000000000000000.0
 25
-100000000000000000000.0
 35
-100000000000000000000.0
146
0.0
 13
0.0
 23
0.0
 33
0.0
 16
1.0
 26
0.0
 36
0.0
 17
0.0
 27
1.0
 37
0.0
 76
0
330
1B
  0
LAYOUT
  5
22
100
AcDbPlotSettings
  1

  2
C:\Program Files\AutoCAD 2002\plotters\DWF ePlot (optimized for plotting).pc3
  4

  6

 40
0.0
 41
0.0
 42
0.0
 43
0.0
 44
0.0
 45
0.0
 46
0.0
 47
0.0
 48
0.0
 49
0.0
140
0.0
141
0.0
142
1.0
143
1.0
 70
1712
 72
0
 73
0
 74
0
  7

 75
0
147
1.0
148
0.0
149
0.0
100
AcDbLayout
  1
Model
 70
1
 71
0
 10
0.0
 20
0.0
 11
12.0
 21
9.0
 12
0.0
 22
0.0
 32
0.0
 14
0.0
 24
0.0
 34
0.0
 15
0.0
 25
0.0
 35
0.0
146
0.0
 13
0.0
 23
0.0
 33
0.0
 16
1.0
 26
0.0
 36
0.0
 17
0.0
 27
1.0
 37
0.0
 76
0
330
1F
  0
LAYOUT
  5
26
100
AcDbPlotSettings
  1

  2
C:\Program Files\AutoCAD 2002\plotters\DWF ePlot (optimized for plotting).pc3
  4

  6

 40
0.0
 41
0.0
 42
0.0
 43
0.0
 44
0.0
 45
0.0
 46
0.0
 47
0.0
 48
0.0
 49
0.0
140
0.0
141
0.0
142
1.0
143
1.0
 70
688
 72
0
 73
0
 74
5
  7

 75
16
147
1.0
148
0.0
149
0.0
100
AcDbLayout
  1
Layout2
 70
1
 71
2
 10
0.0
 20
0.0
 11
12.0
 21
9.0
 12
0.0
 22
0.0
 32
0.0
 14
0.0
 24
0.0
 34
0.0
 15
0.0
 25
0.0
 35
0.0
146
0.0
 13
0.0
 23
0.0
 33
0.0
 16
1.0
 26
0.0
 36
0.0
 17
0.0
 27
1.0
 37
0.0
 76
0
330
23
  0
DICTIONARY
  5
D0
100
AcDbDictionary
281
1
  3
DIMASSOC
350
D2
  3
HIDETEXT
350
D1
  0
DICTIONARYVAR
  5
D1
100
DictionaryVariables
280
0
  1
2
  0
DICTIONARYVAR
  5
D2
100
DictionaryVariables
280
0
  1
1
  0
ENDSEC
  0
EOF
