  0
SECTION
  2
HEADER
  9
$ACADVER
  1
AC1009
  9
$DWGCODEPAGE
  3
ansi_1252
  9
$INSBASE
 10
0.0
 20
0.0
 30
0.0
  9
$EXTMIN
 10
0.0
 20
0.0
 30
0.0
  9
$EXTMAX
 10
16.0
 20
24.0
 30
0.0
  9
$LIMMIN
 10
0.0
 20
0.0
  9
$LIMMAX
 10
16.0
 20
24.0
  9
$ORTHOMODE
 70
     0
  9
$REGENMODE
 70
     1
  9
$FILLMODE
 70
     1
  9
$QTEXTMODE
 70
     0
  9
$MIRRTEXT
 70
     1
  9
$DRAGMODE
 70
     2
  9
$LTSCALE
 40
1.0
  9
$OSMODE
 70
    37
  9
$ATTMODE
 70
     1
  9
$TEXTSIZE
 40
0.125
  9
$TRACEWID
 40
0.05
  9
$TEXTSTYLE
  7
STANDARD
  9
$CLAYER
  8
0
  9
$CELTYPE
  6
BYLAYER
  9
$CECOLOR
 62
   256
  9
$DIMSCALE
 40
1.0
  9
$DIMASZ
 40
0.13
  9
$DIMEXO
 40
0.05
  9
$DIMDLI
 40
0.38
  9
$DIMRND
 40
0.0
  9
$DIMDLE
 40
0.0
  9
$DIMEXE
 40
0.125
  9
$DIMTP
 40
0.0
  9
$DIMTM
 40
0.0
  9
$DIMTXT
 40
0.125
  9
$DIMCEN
 40
0.09
  9
$DIMTSZ
 40
0.0
  9
$DIMTOL
 70
     0
  9
$DIMLIM
 70
     0
  9
$DIMTIH
 70
     1
  9
$DIMTOH
 70
     1
  9
$DIMSE1
 70
     0
  9
$DIMSE2
 70
     0
  9
$DIMTAD
 70
     1
  9
$DIMZIN
 70
     0
  9
$DIMBLK
  1

  9
$DIMASO
 70
     1
  9
$DIMSHO
 70
     1
  9
$DIMPOST
  1

  9
$DIMAPOST
  1

  9
$DIMALT
 70
     0
  9
$DIMALTD
 70
     2
  9
$DIMALTF
 40
25.4
  9
$DIMLFAC
 40
1.0
  9
$DIMTOFL
 70
     0
  9
$DIMTVP
 40
0.0
  9
$DIMTIX
 70
     0
  9
$DIMSOXD
 70
     0
  9
$DIMSAH
 70
     0
  9
$DIMBLK1
  1

  9
$DIMBLK2
  1

  9
$DIMSTYLE
  2
STANDARD
  9
$DIMCLRD
 70
     0
  9
$DIMCLRE
 70
     0
  9
$DIMCLRT
 70
     0
  9
$DIMTFAC
 40
1.0
  9
$DIMGAP
 40
0.06
  9
$LUNITS
 70
     2
  9
$LUPREC
 70
     3
  9
$SKETCHINC
 40
0.1
  9
$FILLETRAD
 40
0.5
  9
$AUNITS
 70
     0
  9
$AUPREC
 70
     2
  9
$MENU
  1
.
  9
$ELEVATION
 40
0.0
  9
$PELEVATION
 40
0.0
  9
$THICKNESS
 40
0.0
  9
$LIMCHECK
 70
     0
  9
$CHAMFERA
 40
0.5
  9
$CHAMFERB
 40
0.5
  9
$SKPOLY
 70
     0
  9
$TDCREATE
 40
2455734.842771261
  9
$TDUPDATE
 40
2455734.842771273
  9
$TDINDWG
 40
0.0000000116
  9
$TDUSRTIMER
 40
0.0000000116
  9
$USRTIMER
 70
     1
  9
$ANGBASE
 50
0.0
  9
$ANGDIR
 70
     0
  9
$PDMODE
 70
     0
  9
$PDSIZE
 40
-1.0
  9
$PLINEWID
 40
0.0
  9
$COORDS
 70
     1
  9
$SPLFRAME
 70
     0
  9
$SPLINETYPE
 70
     6
  9
$SPLINESEGS
 70
     8
  9
$ATTDIA
 70
     0
  9
$ATTREQ
 70
     1
  9
$HANDLING
 70
     1
  9
$HANDSEED
  5
B9
  9
$SURFTAB1
 70
     6
  9
$SURFTAB2
 70
     6
  9
$SURFTYPE
 70
     6
  9
$SURFU
 70
     6
  9
$SURFV
 70
     6
  9
$UCSNAME
  2

  9
$UCSORG
 10
0.0
 20
0.0
 30
0.0
  9
$UCSXDIR
 10
1.0
 20
0.0
 30
0.0
  9
$UCSYDIR
 10
0.0
 20
1.0
 30
0.0
  9
$PUCSNAME
  2

  9
$PUCSORG
 10
0.0
 20
0.0
 30
0.0
  9
$PUCSXDIR
 10
1.0
 20
0.0
 30
0.0
  9
$PUCSYDIR
 10
0.0
 20
1.0
 30
0.0
  9
$USERI1
 70
     0
  9
$USERI2
 70
     0
  9
$USERI3
 70
     0
  9
$USERI4
 70
     0
  9
$USERI5
 70
     0
  9
$USERR1
 40
0.0
  9
$USERR2
 40
0.0
  9
$USERR3
 40
0.0
  9
$USERR4
 40
0.0
  9
$USERR5
 40
0.0
  9
$WORLDVIEW
 70
     1
  9
$SHADEDGE
 70
     3
  9
$SHADEDIF
 70
    70
  9
$TILEMODE
 70
     1
  9
$MAXACTVP
 70
    64
  9
$PLIMCHECK
 70
     0
  9
$PEXTMIN
 10
1.0000000000E+20
 20
1.0000000000E+20
 30
1.0000000000E+20
  9
$PEXTMAX
 10
-1.0000000000E+20
 20
-1.0000000000E+20
 30
-1.0000000000E+20
  9
$PLIMMIN
 10
0.0
 20
0.0
  9
$PLIMMAX
 10
12.0
 20
9.0
  9
$UNITMODE
 70
     0
  9
$VISRETAIN
 70
     1
  9
$PLINEGEN
 70
     0
  9
$PSLTSCALE
 70
     1
  0
ENDSEC
  0
SECTION
  2
TABLES
  0
TABLE
  2
VPORT
 70
     1
  0
VPORT
  2
*ACTIVE
 70
     0
 10
0.0
 20
0.0
 11
1.0
 21
1.0
 12
8.0
 22
12.0
 13
0.0
 23
0.0
 14
0.5
 24
0.5
 15
0.5
 25
0.5
 16
0.0
 26
0.0
 36
1.0
 17
0.0
 27
0.0
 37
0.0
 40
24.0
 41
0.6666666667
 42
50.0
 43
0.0
 44
0.0
 50
0.0
 51
0.0
 71
     0
 72
  2000
 73
     1
 74
     3
 75
     0
 76
     0
 77
     0
 78
     0
  0
ENDTAB
  0
TABLE
  2
LTYPE
 70
     6
  0
LTYPE
  2
CONTINUOUS
 70
     0
  3
Solid line
 72
    65
 73
     0
 40
0.0
  0
LTYPE
  2
HIDDEN
 70
     0
  3
Hidden __ __ __ __ __ __ __ __ __ __ __ __ __ __
 72
    65
 73
     2
 40
0.075
 49
0.05
 49
-0.025
  0
LTYPE
  2
PHANTOM
 70
     0
  3
Phantom ______  __  __  ______  __  __  ______
 72
    65
 73
     6
 40
0.5
 49
0.25
 49
-0.05
 49
0.05
 49
-0.05
 49
0.05
 49
-0.05
  0
LTYPE
  2
CENTER
 70
     0
  3
Center ____ _ ____ _ ____ _ ____ _ ____ _ ____
 72
    65
 73
     4
 40
0.4
 49
0.25
 49
-0.05
 49
0.05
 49
-0.05
  0
LTYPE
  2
CENTERX2
 70
     0
  3
Center (2x) ________  __  ________  __  _____
 72
    65
 73
     4
 40
0.8
 49
0.5
 49
-0.1
 49
0.1
 49
-0.1
  0
LTYPE
  2
DOT2
 70
     0
  3
Dot (.5x) ........................................
 72
    65
 73
     2
 40
0.025
 49
0.0
 49
-0.025
  0
ENDTAB
  0
TABLE
  2
LAYER
 70
     1
  0
LAYER
  2
0
 70
     0
 62
     7
  6
CONTINUOUS
  0
ENDTAB
  0
TABLE
  2
STYLE
 70
     1
  0
STYLE
  2
STANDARD
 70
     0
 40
0.0
 41
1.0
 50
0.0
 71
     0
 42
0.2
  3
txt
  4

  0
ENDTAB
  0
TABLE
  2
VIEW
 70
     0
  0
ENDTAB
  0
TABLE
  2
UCS
 70
     0
  0
ENDTAB
  0
TABLE
  2
APPID
 70
     1
  0
APPID
  2
ACAD
 70
     0
  0
ENDTAB
  0
TABLE
  2
DIMSTYLE
 70
     1
  0
DIMSTYLE
  2
STANDARD
 70
     0
  3

  4

  5

  6

  7

 40
1.0
 41
0.18
 42
0.0625
 43
0.38
 44
0.18
 45
0.0
 46
0.0
 47
0.0
 48
0.0
140
0.18
141
0.09
142
0.0
143
25.4
144
1.0
145
0.0
146
1.0
147
0.09
 71
     0
 72
     0
 73
     1
 74
     1
 75
     0
 76
     0
 77
     0
 78
     0
170
     0
171
     2
172
     0
173
     0
174
     0
175
     0
176
     0
177
     0
178
     0
  0
ENDTAB
  0
ENDSEC
  0
SECTION
  2
BLOCKS
  0
BLOCK
  8
0
  2
$MODEL_SPACE
 70
     0
 10
0.0
 20
0.0
 30
0.0
  3
$MODEL_SPACE
  1

  0
ENDBLK
  5
21
  8
0
  0
BLOCK
 67
     1
  8
0
  2
$PAPER_SPACE
 70
     0
 10
0.0
 20
0.0
 30
0.0
  3
$PAPER_SPACE
  1

  0
ENDBLK
  5
1D
 67
     1
  8
0
  0
ENDSEC
  0
SECTION
  2
ENTITIES
  0
LINE
  5
40
  8
0
  6
CONTINUOUS
 62
     7
 10
13.4990886538
 20
13.291842024
 30
0.0
 11
2.1841280239
 21
13.291842024
 31
0.0
  0
LINE
  5
41
  8
0
  6
CONTINUOUS
 62
     7
 10
13.4990886538
 20
21.291842024
 30
0.0
 11
13.4990886538
 21
13.291842024
 31
0.0
  0
LINE
  5
42
  8
0
  6
CONTINUOUS
 62
     7
 10
2.1841280239
 20
21.291842024
 30
0.0
 11
13.4990886538
 21
21.291842024
 31
0.0
  0
LINE
  5
43
  8
0
  6
CONTINUOUS
 62
     7
 10
2.1841280239
 20
13.291842024
 30
0.0
 11
2.1841280239
 21
21.291842024
 31
0.0
  0
ARC
  5
44
  8
0
  6
CONTINUOUS
 62
     7
 10
1.6211358979
 20
11.4926294255
 30
0.0
 40
0.6299212598425203
 50
180.0
 51
270.0
  0
LINE
  5
45
  8
0
  6
CONTINUOUS
 62
     7
 10
0.9912146381
 20
11.4926294255
 30
0.0
 11
0.9912146381
 21
21.9611333626
 31
0.0
  0
ARC
  5
46
  8
0
  6
CONTINUOUS
 62
     7
 10
1.6211358979
 20
21.9611333626
 30
0.0
 40
0.6299212598425221
 50
90.0
 51
180.0
  0
LINE
  5
47
  8
0
  6
CONTINUOUS
 62
     7
 10
1.6211358979
 20
22.5910546224
 30
0.0
 11
14.0620807798
 21
22.5910546224
 31
0.0
  0
ARC
  5
48
  8
0
  6
CONTINUOUS
 62
     7
 10
14.0620807798
 20
21.9611333626
 30
0.0
 40
0.6299212598425221
 50
0.0
 51
90.0
  0
LINE
  5
49
  8
0
  6
CONTINUOUS
 62
     7
 10
14.6920020396
 20
21.9611333626
 30
0.0
 11
14.6920020396
 21
11.4926294255
 31
0.0
  0
ARC
  5
4A
  8
0
  6
CONTINUOUS
 62
     7
 10
14.0620807798
 20
11.4926294255
 30
0.0
 40
0.6299212598425203
 50
270.0
 51
0.0
  0
LINE
  5
4B
  8
0
  6
CONTINUOUS
 62
     7
 10
14.0620807798
 20
10.8627081657
 30
0.0
 11
1.6211358979
 21
10.8627081657
 31
0.0
  0
ARC
  5
4C
  8
0
  6
CONTINUOUS
 62
     7
 10
1.9026319609
 20
11.1186136775
 30
0.0
 40
0.0738188976377947
 50
180.0
 51
0.0
  0
LINE
  5
4D
  8
0
  6
CONTINUOUS
 62
     7
 10
1.9764508585
 20
11.2760939925
 30
0.0
 11
1.9764508585
 21
11.1186136775
 31
0.0
  0
ARC
  5
4E
  8
0
  6
CONTINUOUS
 62
     7
 10
1.9026319609
 20
11.2760939925
 30
0.0
 40
0.0738188976377947
 50
0.0
 51
180.0
  0
LINE
  5
4F
  8
0
  6
CONTINUOUS
 62
     7
 10
1.8288130633
 20
11.1186136775
 30
0.0
 11
1.8288130633
 21
11.2760939925
 31
0.0
  0
ARC
  5
50
  8
0
  6
CONTINUOUS
 62
     7
 10
3.1231044019
 20
11.1186136775
 30
0.0
 40
0.0738188976377949
 50
180.0
 51
0.0
  0
LINE
  5
51
  8
0
  6
CONTINUOUS
 62
     7
 10
3.1969232995
 20
11.2760939925
 30
0.0
 11
3.1969232995
 21
11.1186136775
 31
0.0
  0
ARC
  5
52
  8
0
  6
CONTINUOUS
 62
     7
 10
3.1231044019
 20
11.2760939925
 30
0.0
 40
0.0738188976377949
 50
0.0
 51
180.0
  0
LINE
  5
53
  8
0
  6
CONTINUOUS
 62
     7
 10
3.0492855042
 20
11.1186136775
 30
0.0
 11
3.0492855042
 21
11.2760939925
 31
0.0
  0
ARC
  5
54
  8
0
  6
CONTINUOUS
 62
     7
 10
1.9026319609
 20
12.3390861185
 30
0.0
 40
0.0738188976377947
 50
180.0
 51
360.0
  0
LINE
  5
55
  8
0
  6
CONTINUOUS
 62
     7
 10
1.9764508585
 20
12.4965664334
 30
0.0
 11
1.9764508585
 21
12.3390861185
 31
0.0
  0
ARC
  5
56
  8
0
  6
CONTINUOUS
 62
     7
 10
1.9026319609
 20
12.4965664334
 30
0.0
 40
0.0738188976377947
 50
0.0
 51
180.0
  0
LINE
  5
57
  8
0
  6
CONTINUOUS
 62
     7
 10
1.8288130633
 20
12.3390861185
 30
0.0
 11
1.8288130633
 21
12.4965664334
 31
0.0
  0
ARC
  5
58
  8
0
  6
CONTINUOUS
 62
     7
 10
3.1231044019
 20
12.3390861185
 30
0.0
 40
0.0738188976377936
 50
180.0
 51
360.0
  0
LINE
  5
59
  8
0
  6
CONTINUOUS
 62
     7
 10
3.1969232995
 20
12.4965664334
 30
0.0
 11
3.1969232995
 21
12.3390861185
 31
0.0
  0
ARC
  5
5A
  8
0
  6
CONTINUOUS
 62
     7
 10
3.1231044019
 20
12.4965664334
 30
0.0
 40
0.0738188976377945
 50
0.0
 51
180.0
  0
LINE
  5
5B
  8
0
  6
CONTINUOUS
 62
     7
 10
3.0492855042
 20
12.3390861185
 30
0.0
 11
3.0492855042
 21
12.4965664334
 31
0.0
  0
ARC
  5
5C
  8
0
  6
CONTINUOUS
 62
     7
 10
2.5128681814
 20
11.728849898
 30
0.0
 40
0.4724409448818903
 50
180.0
 51
0.0
  0
LINE
  5
5D
  8
0
  6
CONTINUOUS
 62
     7
 10
2.9853091263
 20
11.8863302129
 30
0.0
 11
2.9853091263
 21
11.728849898
 31
0.0
  0
ARC
  5
5E
  8
0
  6
CONTINUOUS
 62
     7
 10
2.5128681814
 20
11.8863302129
 30
0.0
 40
0.4724409448818903
 50
0.0
 51
180.0
  0
LINE
  5
5F
  8
0
  6
CONTINUOUS
 62
     7
 10
2.0404272365
 20
11.728849898
 30
0.0
 11
2.0404272365
 21
11.8863302129
 31
0.0
  0
ARC
  5
60
  8
0
  6
CONTINUOUS
 62
     7
 10
12.5601122759
 20
11.1186136775
 30
0.0
 40
0.0738188976377963
 50
180.0
 51
0.0
  0
LINE
  5
61
  8
0
  6
CONTINUOUS
 62
     7
 10
12.6339311735
 20
11.2760939925
 30
0.0
 11
12.6339311735
 21
11.1186136775
 31
0.0
  0
ARC
  5
62
  8
0
  6
CONTINUOUS
 62
     7
 10
12.5601122759
 20
11.2760939925
 30
0.0
 40
0.0738188976377963
 50
0.0
 51
180.0
  0
LINE
  5
63
  8
0
  6
CONTINUOUS
 62
     7
 10
12.4862933782
 20
11.1186136775
 30
0.0
 11
12.4862933782
 21
11.2760939925
 31
0.0
  0
ARC
  5
64
  8
0
  6
CONTINUOUS
 62
     7
 10
13.7805847168
 20
11.1186136775
 30
0.0
 40
0.073818897637798
 50
180.0
 51
0.0
  0
LINE
  5
65
  8
0
  6
CONTINUOUS
 62
     7
 10
13.8544036145
 20
11.2760939925
 30
0.0
 11
13.8544036145
 21
11.1186136775
 31
0.0
  0
LINE
  5
66
  8
0
  6
CONTINUOUS
 62
     7
 10
13.7067658192
 20
11.1186136775
 30
0.0
 11
13.7067658192
 21
11.2760939925
 31
0.0
  0
ARC
  5
67
  8
0
  6
CONTINUOUS
 62
     7
 10
13.7805847168
 20
12.3390861185
 30
0.0
 40
0.073818897637798
 50
180.0
 51
360.0
  0
LINE
  5
68
  8
0
  6
CONTINUOUS
 62
     7
 10
13.8544036145
 20
12.4965664334
 30
0.0
 11
13.8544036145
 21
12.3390861185
 31
0.0
  0
ARC
  5
69
  8
0
  6
CONTINUOUS
 62
     7
 10
13.7805847168
 20
12.4965664334
 30
0.0
 40
0.0738188976377963
 50
0.0
 51
180.0
  0
LINE
  5
6A
  8
0
  6
CONTINUOUS
 62
     7
 10
13.7067658192
 20
12.3390861185
 30
0.0
 11
13.7067658192
 21
12.4965664334
 31
0.0
  0
ARC
  5
6B
  8
0
  6
CONTINUOUS
 62
     7
 10
12.5601122759
 20
12.3390861185
 30
0.0
 40
0.0738188976377963
 50
180.0
 51
360.0
  0
LINE
  5
6C
  8
0
  6
CONTINUOUS
 62
     7
 10
12.6339311735
 20
12.4965664334
 30
0.0
 11
12.6339311735
 21
12.3390861185
 31
0.0
  0
ARC
  5
6D
  8
0
  6
CONTINUOUS
 62
     7
 10
12.5601122759
 20
12.4965664334
 30
0.0
 40
0.073818897637798
 50
0.0
 51
180.0
  0
LINE
  5
6E
  8
0
  6
CONTINUOUS
 62
     7
 10
12.4862933782
 20
12.3390861185
 30
0.0
 11
12.4862933782
 21
12.4965664334
 31
0.0
  0
ARC
  5
6F
  8
0
  6
CONTINUOUS
 62
     7
 10
13.1703484963
 20
11.728849898
 30
0.0
 40
0.4724409448818907
 50
180.0
 51
0.0
  0
LINE
  5
70
  8
0
  6
CONTINUOUS
 62
     7
 10
13.6427894412
 20
11.8863302129
 30
0.0
 11
13.6427894412
 21
11.728849898
 31
0.0
  0
ARC
  5
71
  8
0
  6
CONTINUOUS
 62
     7
 10
13.1703484963
 20
11.8863302129
 30
0.0
 40
0.4724409448818907
 50
0.0
 51
180.0
  0
LINE
  5
72
  8
0
  6
CONTINUOUS
 62
     7
 10
12.6979075515
 20
11.728849898
 30
0.0
 11
12.6979075515
 21
11.8863302129
 31
0.0
  0
CIRCLE
  5
73
  8
0
  6
CONTINUOUS
 62
     7
 10
2.9695610948
 20
21.6068026539
 30
0.0
 40
0.0393700787401592
  0
CIRCLE
  5
74
  8
0
  6
CONTINUOUS
 62
     7
 10
2.5128681814
 20
22.197353835
 30
0.0
 40
0.0393700787401592
  0
CIRCLE
  5
75
  8
0
  6
CONTINUOUS
 62
     7
 10
13.1703484963
 20
22.197353835
 30
0.0
 40
0.0393700787401592
  0
CIRCLE
  5
76
  8
0
  6
CONTINUOUS
 62
     7
 10
12.713655583
 20
21.6068026539
 30
0.0
 40
0.0393700787401592
  0
CIRCLE
  5
77
  8
0
  6
CONTINUOUS
 62
     7
 10
2.0104075515
 20
21.508377457
 30
0.0
 40
0.0393700787401521
  0
CIRCLE
  5
78
  8
0
  6
CONTINUOUS
 62
     7
 10
3.6245807798
 20
21.508377457
 30
0.0
 40
0.0393700787401521
  0
CIRCLE
  5
79
  8
0
  6
CONTINUOUS
 62
     7
 10
7.8416083389
 20
21.508377457
 30
0.0
 40
0.0393700787401592
  0
CIRCLE
  5
7A
  8
0
  6
CONTINUOUS
 62
     7
 10
12.0586358979
 20
21.508377457
 30
0.0
 40
0.0393700787401556
  0
CIRCLE
  5
7B
  8
0
  6
CONTINUOUS
 62
     7
 10
13.6728091263
 20
21.508377457
 30
0.0
 40
0.0393700787401556
  0
CIRCLE
  5
7C
  8
0
  6
CONTINUOUS
 62
     7
 10
13.6728091263
 20
13.0753065909
 30
0.0
 40
0.0393700787401574
  0
CIRCLE
  5
7D
  8
0
  6
CONTINUOUS
 62
     7
 10
12.0586358979
 20
13.0753065909
 30
0.0
 40
0.0393700787401574
  0
CIRCLE
  5
7E
  8
0
  6
CONTINUOUS
 62
     7
 10
7.8416083389
 20
13.0753065909
 30
0.0
 40
0.0393700787401574
  0
CIRCLE
  5
7F
  8
0
  6
CONTINUOUS
 62
     7
 10
3.6245807798
 20
13.0753065909
 30
0.0
 40
0.0393700787401574
  0
CIRCLE
  5
80
  8
0
  6
CONTINUOUS
 62
     7
 10
2.0104075515
 20
13.0753065909
 30
0.0
 40
0.0393700787401574
  0
ARC
  5
81
  8
0
  6
CONTINUOUS
 62
     7
 10
13.7805847168
 20
11.2760939925
 30
0.0
 40
0.0738188976377963
 50
0.0
 51
180.0
  0
LINE
  5
82
  8
0
  6
CONTINUOUS
 62
     7
 10
13.4229740582
 20
6.0114897883
 30
0.0
 11
2.2654937432
 21
6.0114897883
 31
0.0
  0
CIRCLE
  5
83
  8
0
  6
CONTINUOUS
 62
     7
 10
3.3855724834
 20
7.7152299458
 30
0.0
 40
0.0393700787401574
  0
CIRCLE
  5
84
  8
0
  6
CONTINUOUS
 62
     7
 10
3.3855724834
 20
9.1251708907
 30
0.0
 40
0.0393700787401574
  0
CIRCLE
  5
85
  8
0
  6
CONTINUOUS
 62
     7
 10
3.3855724834
 20
6.3052890009
 30
0.0
 40
0.0393700787401574
  0
CIRCLE
  5
86
  8
0
  6
CONTINUOUS
 62
     7
 10
12.302895318
 20
6.3052890009
 30
0.0
 40
0.0393700787401574
  0
CIRCLE
  5
87
  8
0
  6
CONTINUOUS
 62
     7
 10
12.302895318
 20
7.7152299458
 30
0.0
 40
0.0393700787401583
  0
CIRCLE
  5
88
  8
0
  6
CONTINUOUS
 62
     7
 10
12.302895318
 20
9.1251708907
 30
0.0
 40
0.0393700787401574
  0
CIRCLE
  5
89
  8
0
  6
CONTINUOUS
 62
     7
 10
2.960375633
 20
6.2614897883
 30
0.0
 40
0.0393700787401574
  0
CIRCLE
  5
8A
  8
0
  6
CONTINUOUS
 62
     7
 10
2.960375633
 20
9.1689701033
 30
0.0
 40
0.0393700787401574
  0
CIRCLE
  5
8B
  8
0
  6
CONTINUOUS
 62
     7
 10
12.7280921684
 20
7.7152299458
 30
0.0
 40
0.0393700787401574
  0
LINE
  5
8C
  8
0
  6
CONTINUOUS
 62
     7
 10
13.4229740582
 20
9.4189701033
 30
0.0
 11
13.4229740582
 21
6.0114897883
 31
0.0
  0
LINE
  5
8D
  8
0
  6
CONTINUOUS
 62
     7
 10
12.1257299637
 20
9.0439701033
 30
0.0
 11
12.1257299637
 21
6.3864897883
 31
0.0
  0
LINE
  5
8E
  8
0
  6
CONTINUOUS
 62
     7
 10
3.5627378377
 20
9.0439701033
 30
0.0
 11
12.1257299637
 21
9.0439701033
 31
0.0
  0
LINE
  5
8F
  8
0
  6
CONTINUOUS
 62
     7
 10
3.5627378377
 20
6.3864897883
 30
0.0
 11
3.5627378377
 21
9.0439701033
 31
0.0
  0
LINE
  5
90
  8
0
  6
CONTINUOUS
 62
     7
 10
12.1257299637
 20
6.3864897883
 30
0.0
 11
3.5627378377
 21
6.3864897883
 31
0.0
  0
LINE
  5
91
  8
0
  6
CONTINUOUS
 62
     7
 10
2.2654937432
 20
6.0114897883
 30
0.0
 11
2.2654937432
 21
9.4189701033
 31
0.0
  0
LINE
  5
92
  8
0
  6
CONTINUOUS
 62
     7
 10
2.2654937432
 20
9.4189701033
 30
0.0
 11
13.4229740582
 21
9.4189701033
 31
0.0
  0
CIRCLE
  5
93
  8
0
  6
CONTINUOUS
 62
     7
 10
2.9721866566
 20
6.9947575049
 30
0.0
 40
0.0393700787401583
  0
CIRCLE
  5
94
  8
0
  6
CONTINUOUS
 62
     7
 10
12.7162811448
 20
6.9947575049
 30
0.0
 40
0.0393700787401583
  0
CIRCLE
  5
95
  8
0
  6
CONTINUOUS
 62
     7
 10
12.7162811448
 20
8.4357023868
 30
0.0
 40
0.0393700787401574
  0
CIRCLE
  5
96
  8
0
  6
CONTINUOUS
 62
     7
 10
2.9721866566
 20
8.4357023868
 30
0.0
 40
0.0393700787401574
  0
LINE
  5
97
  8
0
  6
CONTINUOUS
 62
     7
 10
9.048907257
 20
2.5714246982
 30
0.0
 11
7.548907257
 21
2.5714246982
 31
0.0
  0
LINE
  5
98
  8
0
  6
CONTINUOUS
 62
     7
 10
9.048907257
 20
2.7312281672
 30
0.0
 11
9.048907257
 21
2.5714246982
 31
0.0
  0
ARC
  5
99
  8
0
  6
CONTINUOUS
 62
     7
 10
9.1079623751
 20
2.7312281672
 30
0.0
 40
0.059055118110236
 50
93.4398127675
 51
180.0
  0
ARC
  5
9A
  8
0
  6
CONTINUOUS
 62
     7
 10
9.0961513515
 20
2.9277239108
 30
0.0
 40
0.1377952755905512
 50
273.4398127675
 51
86.5601872325
  0
ARC
  5
9B
  8
0
  6
CONTINUOUS
 62
     7
 10
9.1079623751
 20
3.1242196543
 30
0.0
 40
0.0590551181102369
 50
180.0
 51
266.5601872325
  0
ARC
  5
9C
  8
0
  6
CONTINUOUS
 62
     7
 10
9.1079623751
 20
3.518629742
 30
0.0
 40
0.059055118110236
 50
93.4398127675
 51
180.0
  0
ARC
  5
9D
  8
0
  6
CONTINUOUS
 62
     7
 10
9.0961513515
 20
3.7151254856
 30
0.0
 40
0.1377952755905512
 50
273.4398127675
 51
86.5601872325
  0
ARC
  5
9E
  8
0
  6
CONTINUOUS
 62
     7
 10
9.1079623751
 20
3.9116212291
 30
0.0
 40
0.0590551181102364
 50
180.0
 51
266.5601872325
  0
LINE
  5
9F
  8
0
  6
CONTINUOUS
 62
     7
 10
7.548907257
 20
4.0714246982
 30
0.0
 11
9.048907257
 21
4.0714246982
 31
0.0
  0
LINE
  5
A0
  8
0
  6
CONTINUOUS
 62
     7
 10
7.548907257
 20
3.9116212291
 30
0.0
 11
7.548907257
 21
4.0714246982
 31
0.0
  0
ARC
  5
A1
  8
0
  6
CONTINUOUS
 62
     7
 10
7.4898521389
 20
3.9116212291
 30
0.0
 40
0.0590551181102364
 50
273.4398127675
 51
0.0
  0
ARC
  5
A2
  8
0
  6
CONTINUOUS
 62
     7
 10
7.5016631625
 20
3.7151254856
 30
0.0
 40
0.1377952755905512
 50
93.4398127675
 51
266.5601872325
  0
ARC
  5
A3
  8
0
  6
CONTINUOUS
 62
     7
 10
7.4898521389
 20
3.518629742
 30
0.0
 40
0.0590551181102359
 50
0.0
 51
86.5601872325
  0
ARC
  5
A4
  8
0
  6
CONTINUOUS
 62
     7
 10
7.4898521389
 20
3.1242196543
 30
0.0
 40
0.0590551181102369
 50
273.4398127675
 51
0.0
  0
ARC
  5
A5
  8
0
  6
CONTINUOUS
 62
     7
 10
7.5016631625
 20
2.9277239108
 30
0.0
 40
0.1377952755905512
 50
93.4398127675
 51
266.5601872325
  0
ARC
  5
A6
  8
0
  6
CONTINUOUS
 62
     7
 10
7.4898521389
 20
2.7312281672
 30
0.0
 40
0.0590551181102361
 50
0.0
 51
86.5601872325
  0
LINE
  5
A7
  8
0
  6
CONTINUOUS
 62
     7
 10
7.048907257
 20
4.5714246982
 30
0.0
 11
9.548907257
 21
4.5714246982
 31
0.0
  0
LINE
  5
A8
  8
0
  6
CONTINUOUS
 62
     7
 10
9.548907257
 20
4.5714246982
 30
0.0
 11
9.548907257
 21
2.0714246982
 31
0.0
  0
LINE
  5
A9
  8
0
  6
CONTINUOUS
 62
     7
 10
9.548907257
 20
2.0714246982
 30
0.0
 11
7.048907257
 21
2.0714246982
 31
0.0
  0
LINE
  5
AA
  8
0
  6
CONTINUOUS
 62
     7
 10
7.048907257
 20
2.0714246982
 30
0.0
 11
7.048907257
 21
4.5714246982
 31
0.0
  0
CIRCLE
  5
AB
  8
0
  6
CONTINUOUS
 62
     7
 10
7.298907257
 20
2.3051845407
 30
0.0
 40
0.034448818897638
  0
CIRCLE
  5
AC
  8
0
  6
CONTINUOUS
 62
     7
 10
9.298907257
 20
2.3051845407
 30
0.0
 40
0.034448818897638
  0
CIRCLE
  5
AD
  8
0
  6
CONTINUOUS
 62
     7
 10
9.298907257
 20
4.3376648556
 30
0.0
 40
0.034448818897638
  0
CIRCLE
  5
AE
  8
0
  6
CONTINUOUS
 62
     7
 10
7.298907257
 20
4.3376648556
 30
0.0
 40
0.034448818897638
  0
CIRCLE
  5
AF
  8
0
  6
CONTINUOUS
 62
     7
 10
7.206387572
 20
3.7151254856
 30
0.0
 40
0.034448818897638
  0
CIRCLE
  5
B0
  8
0
  6
CONTINUOUS
 62
     7
 10
9.391426942
 20
3.7151254856
 30
0.0
 40
0.034448818897638
  0
CIRCLE
  5
B1
  8
0
  6
CONTINUOUS
 62
     7
 10
9.391426942
 20
2.9277239108
 30
0.0
 40
0.034448818897638
  0
CIRCLE
  5
B2
  8
0
  6
CONTINUOUS
 62
     7
 10
7.206387572
 20
2.9277239108
 30
0.0
 40
0.034448818897638
  0
LINE
  5
B3
  8
0
  6
CONTINUOUS
 62
     7
 10
7.548907257
 20
2.5714246982
 30
0.0
 11
7.548907257
 21
2.7312281672
 31
0.0
  0
LINE
  5
B4
  8
0
  6
CONTINUOUS
 62
     7
 10
7.548907257
 20
3.1242196543
 30
0.0
 11
7.548907257
 21
3.518629742
 31
0.0
  0
LINE
  5
B5
  8
0
  6
CONTINUOUS
 62
     7
 10
9.048907257
 20
4.0714246982
 30
0.0
 11
9.048907257
 21
3.9116212291
 31
0.0
  0
LINE
  5
B6
  8
0
  6
CONTINUOUS
 62
     7
 10
9.048907257
 20
3.518629742
 30
0.0
 11
9.048907257
 21
3.1242196543
 31
0.0
  0
ENDSEC
  0
EOF
