  0
SECTION
  2
HEADER
  9
$ACADVER
  1
AC1009
  9
$DWGCODEPAGE
  3
ansi_1252
  9
$INSBASE
 10
0.0
 20
0.0
 30
0.0
  9
$EXTMIN
 10
0.0
 20
0.0
 30
0.0
  9
$EXTMAX
 10
15.7480314961
 20
15.7480314961
 30
0.0
  9
$LIMMIN
 10
0.0
 20
0.0
  9
$LIMMAX
 10
15.7480314961
 20
15.7480314961
  9
$ORTHOMODE
 70
     0
  9
$REGENMODE
 70
     1
  9
$FILLMODE
 70
     1
  9
$QTEXTMODE
 70
     0
  9
$MIRRTEXT
 70
     1
  9
$DRAGMODE
 70
     2
  9
$LTSCALE
 40
1.0
  9
$OSMODE
 70
    37
  9
$ATTMODE
 70
     1
  9
$TEXTSIZE
 40
0.125
  9
$TRACEWID
 40
0.05
  9
$TEXTSTYLE
  7
STANDARD
  9
$CLAYER
  8
0
  9
$CELTYPE
  6
BYLAYER
  9
$CECOLOR
 62
   256
  9
$DIMSCALE
 40
1.0
  9
$DIMASZ
 40
0.13
  9
$DIMEXO
 40
0.05
  9
$DIMDLI
 40
0.38
  9
$DIMRND
 40
0.0
  9
$DIMDLE
 40
0.0
  9
$DIMEXE
 40
0.125
  9
$DIMTP
 40
0.0
  9
$DIMTM
 40
0.0
  9
$DIMTXT
 40
0.125
  9
$DIMCEN
 40
0.09
  9
$DIMTSZ
 40
0.0
  9
$DIMTOL
 70
     0
  9
$DIMLIM
 70
     0
  9
$DIMTIH
 70
     1
  9
$DIMTOH
 70
     1
  9
$DIMSE1
 70
     0
  9
$DIMSE2
 70
     0
  9
$DIMTAD
 70
     0
  9
$DIMZIN
 70
     0
  9
$DIMBLK
  1

  9
$DIMASO
 70
     1
  9
$DIMSHO
 70
     1
  9
$DIMPOST
  1

  9
$DIMAPOST
  1

  9
$DIMALT
 70
     0
  9
$DIMALTD
 70
     2
  9
$DIMALTF
 40
25.4
  9
$DIMLFAC
 40
1.0
  9
$DIMTOFL
 70
     0
  9
$DIMTVP
 40
0.0
  9
$DIMTIX
 70
     0
  9
$DIMSOXD
 70
     0
  9
$DIMSAH
 70
     0
  9
$DIMBLK1
  1

  9
$DIMBLK2
  1

  9
$DIMSTYLE
  2
STANDARD
  9
$DIMCLRD
 70
     0
  9
$DIMCLRE
 70
     0
  9
$DIMCLRT
 70
     0
  9
$DIMTFAC
 40
1.0
  9
$DIMGAP
 40
0.06
  9
$LUNITS
 70
     2
  9
$LUPREC
 70
     2
  9
$SKETCHINC
 40
0.1
  9
$FILLETRAD
 40
0.5
  9
$AUNITS
 70
     0
  9
$AUPREC
 70
     2
  9
$MENU
  1
.
  9
$ELEVATION
 40
0.0
  9
$PELEVATION
 40
0.0
  9
$THICKNESS
 40
0.0
  9
$LIMCHECK
 70
     0
  9
$CHAMFERA
 40
0.5
  9
$CHAMFERB
 40
0.5
  9
$SKPOLY
 70
     0
  9
$TDCREATE
 40
2455736.778087014
  9
$TDUPDATE
 40
2455736.778087026
  9
$TDINDWG
 40
0.0000000116
  9
$TDUSRTIMER
 40
0.0000000116
  9
$USRTIMER
 70
     1
  9
$ANGBASE
 50
0.0
  9
$ANGDIR
 70
     0
  9
$PDMODE
 70
     0
  9
$PDSIZE
 40
-1.0
  9
$PLINEWID
 40
0.0
  9
$COORDS
 70
     1
  9
$SPLFRAME
 70
     0
  9
$SPLINETYPE
 70
     6
  9
$SPLINESEGS
 70
     8
  9
$ATTDIA
 70
     0
  9
$ATTREQ
 70
     1
  9
$HANDLING
 70
     1
  9
$HANDSEED
  5
24D
  9
$SURFTAB1
 70
     6
  9
$SURFTAB2
 70
     6
  9
$SURFTYPE
 70
     6
  9
$SURFU
 70
     6
  9
$SURFV
 70
     6
  9
$UCSNAME
  2

  9
$UCSORG
 10
0.0
 20
0.0
 30
0.0
  9
$UCSXDIR
 10
1.0
 20
0.0
 30
0.0
  9
$UCSYDIR
 10
0.0
 20
1.0
 30
0.0
  9
$PUCSNAME
  2

  9
$PUCSORG
 10
0.0
 20
0.0
 30
0.0
  9
$PUCSXDIR
 10
1.0
 20
0.0
 30
0.0
  9
$PUCSYDIR
 10
0.0
 20
1.0
 30
0.0
  9
$USERI1
 70
     0
  9
$USERI2
 70
     0
  9
$USERI3
 70
     0
  9
$USERI4
 70
     0
  9
$USERI5
 70
     0
  9
$USERR1
 40
0.0
  9
$USERR2
 40
0.0
  9
$USERR3
 40
0.0
  9
$USERR4
 40
0.0
  9
$USERR5
 40
0.0
  9
$WORLDVIEW
 70
     1
  9
$SHADEDGE
 70
     3
  9
$SHADEDIF
 70
    70
  9
$TILEMODE
 70
     1
  9
$MAXACTVP
 70
    64
  9
$PLIMCHECK
 70
     0
  9
$PEXTMIN
 10
1.0000000000E+20
 20
1.0000000000E+20
 30
1.0000000000E+20
  9
$PEXTMAX
 10
-1.0000000000E+20
 20
-1.0000000000E+20
 30
-1.0000000000E+20
  9
$PLIMMIN
 10
0.0
 20
0.0
  9
$PLIMMAX
 10
12.0
 20
9.0
  9
$UNITMODE
 70
     0
  9
$VISRETAIN
 70
     1
  9
$PLINEGEN
 70
     0
  9
$PSLTSCALE
 70
     1
  0
ENDSEC
  0
SECTION
  2
TABLES
  0
TABLE
  2
VPORT
 70
     1
  0
VPORT
  2
*ACTIVE
 70
     0
 10
0.0
 20
0.0
 11
1.0
 21
1.0
 12
7.874015748
 22
7.874015748
 13
0.0
 23
0.0
 14
0.5
 24
0.5
 15
0.5
 25
0.5
 16
0.0
 26
0.0
 36
1.0
 17
0.0
 27
0.0
 37
0.0
 40
15.7480314961
 41
1.0
 42
50.0
 43
0.0
 44
0.0
 50
0.0
 51
0.0
 71
     0
 72
  2000
 73
     1
 74
     3
 75
     0
 76
     0
 77
     0
 78
     0
  0
ENDTAB
  0
TABLE
  2
LTYPE
 70
     6
  0
LTYPE
  2
CONTINUOUS
 70
     0
  3
Solid line
 72
    65
 73
     0
 40
0.0
  0
LTYPE
  2
HIDDEN
 70
     0
  3
Hidden __ __ __ __ __ __ __ __ __ __ __ __ __ __
 72
    65
 73
     2
 40
0.075
 49
0.05
 49
-0.025
  0
LTYPE
  2
PHANTOM
 70
     0
  3
Phantom ______  __  __  ______  __  __  ______
 72
    65
 73
     6
 40
0.5
 49
0.25
 49
-0.05
 49
0.05
 49
-0.05
 49
0.05
 49
-0.05
  0
LTYPE
  2
CENTER
 70
     0
  3
Center ____ _ ____ _ ____ _ ____ _ ____ _ ____
 72
    65
 73
     4
 40
0.4
 49
0.25
 49
-0.05
 49
0.05
 49
-0.05
  0
LTYPE
  2
CENTERX2
 70
     0
  3
Center (2x) ________  __  ________  __  _____
 72
    65
 73
     4
 40
0.8
 49
0.5
 49
-0.1
 49
0.1
 49
-0.1
  0
LTYPE
  2
DOT2
 70
     0
  3
Dot (.5x) ........................................
 72
    65
 73
     2
 40
0.025
 49
0.0
 49
-0.025
  0
ENDTAB
  0
TABLE
  2
LAYER
 70
     1
  0
LAYER
  2
0
 70
     0
 62
     7
  6
CONTINUOUS
  0
ENDTAB
  0
TABLE
  2
STYLE
 70
     1
  0
STYLE
  2
STANDARD
 70
     0
 40
0.0
 41
1.0
 50
0.0
 71
     0
 42
0.2
  3
txt
  4

  0
ENDTAB
  0
TABLE
  2
VIEW
 70
     0
  0
ENDTAB
  0
TABLE
  2
UCS
 70
     0
  0
ENDTAB
  0
TABLE
  2
APPID
 70
     1
  0
APPID
  2
ACAD
 70
     0
  0
ENDTAB
  0
TABLE
  2
DIMSTYLE
 70
     1
  0
DIMSTYLE
  2
STANDARD
 70
     0
  3

  4

  5

  6

  7

 40
1.0
 41
0.18
 42
0.0625
 43
0.38
 44
0.18
 45
0.0
 46
0.0
 47
0.0
 48
0.0
140
0.18
141
0.09
142
0.0
143
25.4
144
1.0
145
0.0
146
1.0
147
0.09
 71
     0
 72
     0
 73
     1
 74
     1
 75
     0
 76
     0
 77
     0
 78
     0
170
     0
171
     2
172
     0
173
     0
174
     0
175
     0
176
     0
177
     0
178
     0
  0
ENDTAB
  0
ENDSEC
  0
SECTION
  2
BLOCKS
  0
BLOCK
  8
0
  2
$MODEL_SPACE
 70
     0
 10
0.0
 20
0.0
 30
0.0
  3
$MODEL_SPACE
  1

  0
ENDBLK
  5
21
  8
0
  0
BLOCK
 67
     1
  8
0
  2
$PAPER_SPACE
 70
     0
 10
0.0
 20
0.0
 30
0.0
  3
$PAPER_SPACE
  1

  0
ENDBLK
  5
1D
 67
     1
  8
0
  0
ENDSEC
  0
SECTION
  2
ENTITIES
  0
LINE
  5
40
  8
0
  6
CONTINUOUS
 62
     7
 10
1.9142803433
 20
14.8079328935
 30
0.0
 11
1.9142803433
 21
14.6898226573
 31
0.0
  0
LINE
  5
41
  8
0
  6
CONTINUOUS
 62
     7
 10
1.9142803433
 20
14.6898226573
 30
0.0
 11
1.8646740441
 21
14.6898226573
 31
0.0
  0
LINE
  5
42
  8
0
  6
CONTINUOUS
 62
     7
 10
1.8646740441
 20
14.6898226573
 30
0.0
 11
1.8646740441
 21
14.5795864368
 31
0.0
  0
LINE
  5
43
  8
0
  6
CONTINUOUS
 62
     7
 10
1.8646740441
 20
14.5795864368
 30
0.0
 11
1.9142803433
 21
14.5795864368
 31
0.0
  0
LINE
  5
44
  8
0
  6
CONTINUOUS
 62
     7
 10
1.9142803433
 20
14.5795864368
 30
0.0
 11
1.9142803433
 21
14.512657303
 31
0.0
  0
ARC
  5
45
  8
0
  6
CONTINUOUS
 62
     7
 10
1.9339653827
 20
14.512657303
 30
0.0
 40
0.0196850393700796
 50
180.0
 51
270.0
  0
LINE
  5
46
  8
0
  6
CONTINUOUS
 62
     7
 10
1.9339653827
 20
14.4929722636
 30
0.0
 11
2.0205795559
 21
14.4929722636
 31
0.0
  0
ARC
  5
47
  8
0
  6
CONTINUOUS
 62
     7
 10
2.0205795559
 20
14.512657303
 30
0.0
 40
0.0196850393700796
 50
270.0
 51
0.0
  0
LINE
  5
48
  8
0
  6
CONTINUOUS
 62
     7
 10
2.0402645953
 20
14.512657303
 30
0.0
 11
2.0402645953
 21
14.5795864368
 31
0.0
  0
LINE
  5
49
  8
0
  6
CONTINUOUS
 62
     7
 10
2.0402645953
 20
14.5795864368
 30
0.0
 11
2.0898708945
 21
14.5795864368
 31
0.0
  0
LINE
  5
4A
  8
0
  6
CONTINUOUS
 62
     7
 10
2.0898708945
 20
14.5795864368
 30
0.0
 11
2.0898708945
 21
14.6898226573
 31
0.0
  0
LINE
  5
4B
  8
0
  6
CONTINUOUS
 62
     7
 10
2.0898708945
 20
14.6898226573
 30
0.0
 11
2.0402645953
 21
14.6898226573
 31
0.0
  0
LINE
  5
4C
  8
0
  6
CONTINUOUS
 62
     7
 10
2.0402645953
 20
14.6898226573
 30
0.0
 11
2.0402645953
 21
14.8079328935
 31
0.0
  0
LINE
  5
4D
  8
0
  6
CONTINUOUS
 62
     7
 10
2.8478433355
 20
14.8079328935
 30
0.0
 11
2.8478433355
 21
14.7882478542
 31
0.0
  0
ARC
  5
4E
  8
0
  6
CONTINUOUS
 62
     7
 10
2.8675283748
 20
14.7882478542
 30
0.0
 40
0.0196850393700787
 50
180.0
 51
270.0
  0
LINE
  5
4F
  8
0
  6
CONTINUOUS
 62
     7
 10
2.8675283748
 20
14.7685628148
 30
0.0
 11
3.0053236504
 21
14.7685628148
 31
0.0
  0
ARC
  5
50
  8
0
  6
CONTINUOUS
 62
     7
 10
3.0053236504
 20
14.7882478542
 30
0.0
 40
0.0196850393700787
 50
270.0
 51
0.0
  0
LINE
  5
51
  8
0
  6
CONTINUOUS
 62
     7
 10
3.0250086898
 20
14.7882478542
 30
0.0
 11
3.0250086898
 21
14.8079328935
 31
0.0
  0
LINE
  5
52
  8
0
  6
CONTINUOUS
 62
     7
 10
3.5284535717
 20
14.8079328935
 30
0.0
 11
3.5284535717
 21
14.6898226573
 31
0.0
  0
LINE
  5
53
  8
0
  6
CONTINUOUS
 62
     7
 10
3.5284535717
 20
14.6898226573
 30
0.0
 11
3.4788472725
 21
14.6898226573
 31
0.0
  0
LINE
  5
54
  8
0
  6
CONTINUOUS
 62
     7
 10
3.4788472725
 20
14.6898226573
 30
0.0
 11
3.4788472725
 21
14.5795864368
 31
0.0
  0
LINE
  5
55
  8
0
  6
CONTINUOUS
 62
     7
 10
3.4788472725
 20
14.5795864368
 30
0.0
 11
3.5284535717
 21
14.5795864368
 31
0.0
  0
LINE
  5
56
  8
0
  6
CONTINUOUS
 62
     7
 10
3.5284535717
 20
14.5795864368
 30
0.0
 11
3.5284535717
 21
14.512657303
 31
0.0
  0
ARC
  5
57
  8
0
  6
CONTINUOUS
 62
     7
 10
3.5481386111
 20
14.512657303
 30
0.0
 40
0.0196850393700796
 50
180.0
 51
270.0
  0
LINE
  5
58
  8
0
  6
CONTINUOUS
 62
     7
 10
3.5481386111
 20
14.4929722636
 30
0.0
 11
3.6347527843
 21
14.4929722636
 31
0.0
  0
ARC
  5
59
  8
0
  6
CONTINUOUS
 62
     7
 10
3.6347527843
 20
14.512657303
 30
0.0
 40
0.0196850393700796
 50
270.0
 51
0.0
  0
LINE
  5
5A
  8
0
  6
CONTINUOUS
 62
     7
 10
3.6544378237
 20
14.512657303
 30
0.0
 11
3.6544378237
 21
14.5795864368
 31
0.0
  0
LINE
  5
5B
  8
0
  6
CONTINUOUS
 62
     7
 10
3.6544378237
 20
14.5795864368
 30
0.0
 11
3.7040441229
 21
14.5795864368
 31
0.0
  0
LINE
  5
5C
  8
0
  6
CONTINUOUS
 62
     7
 10
3.7040441229
 20
14.5795864368
 30
0.0
 11
3.7040441229
 21
14.6898226573
 31
0.0
  0
LINE
  5
5D
  8
0
  6
CONTINUOUS
 62
     7
 10
3.7040441229
 20
14.6898226573
 30
0.0
 11
3.6544378237
 21
14.6898226573
 31
0.0
  0
LINE
  5
5E
  8
0
  6
CONTINUOUS
 62
     7
 10
3.6544378237
 20
14.6898226573
 30
0.0
 11
3.6544378237
 21
14.8079328935
 31
0.0
  0
LINE
  5
5F
  8
0
  6
CONTINUOUS
 62
     7
 10
7.7454811307
 20
14.8079328935
 30
0.0
 11
7.7454811307
 21
14.6898226573
 31
0.0
  0
LINE
  5
60
  8
0
  6
CONTINUOUS
 62
     7
 10
7.7454811307
 20
14.6898226573
 30
0.0
 11
7.6958748315
 21
14.6898226573
 31
0.0
  0
LINE
  5
61
  8
0
  6
CONTINUOUS
 62
     7
 10
7.6958748315
 20
14.6898226573
 30
0.0
 11
7.6958748315
 21
14.5795864368
 31
0.0
  0
LINE
  5
62
  8
0
  6
CONTINUOUS
 62
     7
 10
7.6958748315
 20
14.5795864368
 30
0.0
 11
7.7454811307
 21
14.5795864368
 31
0.0
  0
LINE
  5
63
  8
0
  6
CONTINUOUS
 62
     7
 10
7.7454811307
 20
14.5795864368
 30
0.0
 11
7.7454811307
 21
14.512657303
 31
0.0
  0
ARC
  5
64
  8
0
  6
CONTINUOUS
 62
     7
 10
7.7651661701
 20
14.512657303
 30
0.0
 40
0.0196850393700796
 50
180.0
 51
270.0
  0
LINE
  5
65
  8
0
  6
CONTINUOUS
 62
     7
 10
7.7651661701
 20
14.4929722636
 30
0.0
 11
7.8517803433
 21
14.4929722636
 31
0.0
  0
ARC
  5
66
  8
0
  6
CONTINUOUS
 62
     7
 10
7.8517803433
 20
14.512657303
 30
0.0
 40
0.0196850393700796
 50
270.0
 51
0.0
  0
LINE
  5
67
  8
0
  6
CONTINUOUS
 62
     7
 10
7.8714653827
 20
14.512657303
 30
0.0
 11
7.8714653827
 21
14.5795864368
 31
0.0
  0
LINE
  5
68
  8
0
  6
CONTINUOUS
 62
     7
 10
7.8714653827
 20
14.5795864368
 30
0.0
 11
7.9210716819
 21
14.5795864368
 31
0.0
  0
LINE
  5
69
  8
0
  6
CONTINUOUS
 62
     7
 10
7.9210716819
 20
14.5795864368
 30
0.0
 11
7.9210716819
 21
14.6898226573
 31
0.0
  0
LINE
  5
6A
  8
0
  6
CONTINUOUS
 62
     7
 10
7.9210716819
 20
14.6898226573
 30
0.0
 11
7.8714653827
 21
14.6898226573
 31
0.0
  0
LINE
  5
6B
  8
0
  6
CONTINUOUS
 62
     7
 10
7.8714653827
 20
14.6898226573
 30
0.0
 11
7.8714653827
 21
14.8079328935
 31
0.0
  0
LINE
  5
6C
  8
0
  6
CONTINUOUS
 62
     7
 10
11.9625086898
 20
14.8079328935
 30
0.0
 11
11.9625086898
 21
14.6898226573
 31
0.0
  0
LINE
  5
6D
  8
0
  6
CONTINUOUS
 62
     7
 10
11.9625086898
 20
14.6898226573
 30
0.0
 11
11.9129023906
 21
14.6898226573
 31
0.0
  0
LINE
  5
6E
  8
0
  6
CONTINUOUS
 62
     7
 10
11.9129023906
 20
14.6898226573
 30
0.0
 11
11.9129023906
 21
14.5795864368
 31
0.0
  0
LINE
  5
6F
  8
0
  6
CONTINUOUS
 62
     7
 10
11.9129023906
 20
14.5795864368
 30
0.0
 11
11.9625086898
 21
14.5795864368
 31
0.0
  0
LINE
  5
70
  8
0
  6
CONTINUOUS
 62
     7
 10
11.9625086898
 20
14.5795864368
 30
0.0
 11
11.9625086898
 21
14.512657303
 31
0.0
  0
ARC
  5
71
  8
0
  6
CONTINUOUS
 62
     7
 10
11.9821937292
 20
14.512657303
 30
0.0
 40
0.0196850393700796
 50
180.0
 51
270.0
  0
LINE
  5
72
  8
0
  6
CONTINUOUS
 62
     7
 10
11.9821937292
 20
14.4929722636
 30
0.0
 11
12.0688079024
 21
14.4929722636
 31
0.0
  0
ARC
  5
73
  8
0
  6
CONTINUOUS
 62
     7
 10
12.0688079024
 20
14.512657303
 30
0.0
 40
0.0196850393700796
 50
270.0
 51
0.0
  0
LINE
  5
74
  8
0
  6
CONTINUOUS
 62
     7
 10
12.0884929418
 20
14.512657303
 30
0.0
 11
12.0884929418
 21
14.5795864368
 31
0.0
  0
LINE
  5
75
  8
0
  6
CONTINUOUS
 62
     7
 10
12.0884929418
 20
14.5795864368
 30
0.0
 11
12.138099241
 21
14.5795864368
 31
0.0
  0
LINE
  5
76
  8
0
  6
CONTINUOUS
 62
     7
 10
12.138099241
 20
14.5795864368
 30
0.0
 11
12.138099241
 21
14.6898226573
 31
0.0
  0
LINE
  5
77
  8
0
  6
CONTINUOUS
 62
     7
 10
12.138099241
 20
14.6898226573
 30
0.0
 11
12.0884929418
 21
14.6898226573
 31
0.0
  0
LINE
  5
78
  8
0
  6
CONTINUOUS
 62
     7
 10
12.0884929418
 20
14.6898226573
 30
0.0
 11
12.0884929418
 21
14.8079328935
 31
0.0
  0
LINE
  5
79
  8
0
  6
CONTINUOUS
 62
     7
 10
12.5919378237
 20
14.8079328935
 30
0.0
 11
12.5919378237
 21
14.7882478542
 31
0.0
  0
ARC
  5
7A
  8
0
  6
CONTINUOUS
 62
     7
 10
12.611622863
 20
14.7882478542
 30
0.0
 40
0.0196850393700778
 50
180.0
 51
270.0
  0
LINE
  5
7B
  8
0
  6
CONTINUOUS
 62
     7
 10
12.611622863
 20
14.7685628148
 30
0.0
 11
12.7494181386
 21
14.7685628148
 31
0.0
  0
ARC
  5
7C
  8
0
  6
CONTINUOUS
 62
     7
 10
12.7494181386
 20
14.7882478542
 30
0.0
 40
0.0196850393700796
 50
270.0
 51
0.0
  0
LINE
  5
7D
  8
0
  6
CONTINUOUS
 62
     7
 10
12.769103178
 20
14.7882478542
 30
0.0
 11
12.769103178
 21
14.8079328935
 31
0.0
  0
LINE
  5
7E
  8
0
  6
CONTINUOUS
 62
     7
 10
13.5766819181
 20
14.8079328935
 30
0.0
 11
13.5766819181
 21
14.6898226573
 31
0.0
  0
LINE
  5
7F
  8
0
  6
CONTINUOUS
 62
     7
 10
13.5766819181
 20
14.6898226573
 30
0.0
 11
13.5270756189
 21
14.6898226573
 31
0.0
  0
LINE
  5
80
  8
0
  6
CONTINUOUS
 62
     7
 10
13.5270756189
 20
14.6898226573
 30
0.0
 11
13.5270756189
 21
14.5795864368
 31
0.0
  0
LINE
  5
81
  8
0
  6
CONTINUOUS
 62
     7
 10
13.5270756189
 20
14.5795864368
 30
0.0
 11
13.5766819181
 21
14.5795864368
 31
0.0
  0
LINE
  5
82
  8
0
  6
CONTINUOUS
 62
     7
 10
13.5766819181
 20
14.5795864368
 30
0.0
 11
13.5766819181
 21
14.512657303
 31
0.0
  0
ARC
  5
83
  8
0
  6
CONTINUOUS
 62
     7
 10
13.5963669575
 20
14.512657303
 30
0.0
 40
0.0196850393700796
 50
180.0
 51
270.0
  0
LINE
  5
84
  8
0
  6
CONTINUOUS
 62
     7
 10
13.5963669575
 20
14.4929722636
 30
0.0
 11
13.6829811307
 21
14.4929722636
 31
0.0
  0
ARC
  5
85
  8
0
  6
CONTINUOUS
 62
     7
 10
13.6829811307
 20
14.512657303
 30
0.0
 40
0.0196850393700796
 50
270.0
 51
0.0
  0
LINE
  5
86
  8
0
  6
CONTINUOUS
 62
     7
 10
13.7026661701
 20
14.512657303
 30
0.0
 11
13.7026661701
 21
14.5795864368
 31
0.0
  0
LINE
  5
87
  8
0
  6
CONTINUOUS
 62
     7
 10
13.7026661701
 20
14.5795864368
 30
0.0
 11
13.7522724693
 21
14.5795864368
 31
0.0
  0
LINE
  5
88
  8
0
  6
CONTINUOUS
 62
     7
 10
13.7522724693
 20
14.5795864368
 30
0.0
 11
13.7522724693
 21
14.6898226573
 31
0.0
  0
LINE
  5
89
  8
0
  6
CONTINUOUS
 62
     7
 10
13.7522724693
 20
14.6898226573
 30
0.0
 11
13.7026661701
 21
14.6898226573
 31
0.0
  0
LINE
  5
8A
  8
0
  6
CONTINUOUS
 62
     7
 10
13.7026661701
 20
14.6898226573
 30
0.0
 11
13.7026661701
 21
14.8079328935
 31
0.0
  0
LINE
  5
8B
  8
0
  6
CONTINUOUS
 62
     7
 10
13.3247134142
 20
14.0205313187
 30
0.0
 11
13.9152645953
 21
14.3614862021
 31
0.0
  0
LINE
  5
8C
  8
0
  6
CONTINUOUS
 62
     7
 10
1.7016819181
 20
14.3614862021
 30
0.0
 11
2.2922330992
 21
14.0205313187
 31
0.0
  0
LINE
  5
8D
  8
0
  6
CONTINUOUS
 62
     7
 10
2.6672330992
 20
14.6302754132
 30
0.0
 11
2.6672330992
 21
14.8079328935
 31
0.0
  0
LINE
  5
8E
  8
0
  6
CONTINUOUS
 62
     7
 10
12.0884929418
 20
14.8079328935
 30
0.0
 11
12.5919378237
 21
14.8079328935
 31
0.0
  0
LINE
  5
8F
  8
0
  6
CONTINUOUS
 62
     7
 10
12.9497134142
 20
14.8079328935
 30
0.0
 11
12.9497134142
 21
14.6302754132
 31
0.0
  0
ARC
  5
90
  8
0
  6
CONTINUOUS
 62
     7
 10
13.1372134142
 20
14.6302754132
 30
0.0
 40
0.1875
 50
180.0
 51
0.0
  0
LINE
  5
91
  8
0
  6
CONTINUOUS
 62
     7
 10
13.3247134142
 20
14.6302754132
 30
0.0
 11
13.3247134142
 21
14.8079328935
 31
0.0
  0
LINE
  5
92
  8
0
  6
CONTINUOUS
 62
     7
 10
13.7026661701
 20
14.8079328935
 30
0.0
 11
13.9152645953
 21
14.8079328935
 31
0.0
  0
LINE
  5
93
  8
0
  6
CONTINUOUS
 62
     7
 10
13.9152645953
 20
14.8079328935
 30
0.0
 11
13.9152645953
 21
14.3614862021
 31
0.0
  0
LINE
  5
94
  8
0
  6
CONTINUOUS
 62
     7
 10
13.3247134142
 20
14.0205313187
 30
0.0
 11
2.2922330992
 21
14.0205313187
 31
0.0
  0
LINE
  5
95
  8
0
  6
CONTINUOUS
 62
     7
 10
1.7016819181
 20
14.3614862021
 30
0.0
 11
1.7016819181
 21
14.8079328935
 31
0.0
  0
LINE
  5
96
  8
0
  6
CONTINUOUS
 62
     7
 10
2.0402645953
 20
14.8079328935
 30
0.0
 11
2.2922330992
 21
14.8079328935
 31
0.0
  0
LINE
  5
97
  8
0
  6
CONTINUOUS
 62
     7
 10
2.2922330992
 20
14.8079328935
 30
0.0
 11
2.2922330992
 21
14.6302754132
 31
0.0
  0
ARC
  5
98
  8
0
  6
CONTINUOUS
 62
     7
 10
2.4797330992
 20
14.6302754132
 30
0.0
 40
0.1875000000000004
 50
180.0
 51
0.0
  0
LINE
  5
99
  8
0
  6
CONTINUOUS
 62
     7
 10
2.6672330992
 20
14.8079328935
 30
0.0
 11
2.8478433355
 21
14.8079328935
 31
0.0
  0
LINE
  5
9A
  8
0
  6
CONTINUOUS
 62
     7
 10
1.7016819181
 20
14.8079328935
 30
0.0
 11
1.9142803433
 21
14.8079328935
 31
0.0
  0
LINE
  5
9B
  8
0
  6
CONTINUOUS
 62
     7
 10
3.6544378237
 20
14.8079328935
 30
0.0
 11
7.7454811307
 21
14.8079328935
 31
0.0
  0
LINE
  5
9C
  8
0
  6
CONTINUOUS
 62
     7
 10
7.8714653827
 20
14.8079328935
 30
0.0
 11
11.9625086898
 21
14.8079328935
 31
0.0
  0
LINE
  5
9D
  8
0
  6
CONTINUOUS
 62
     7
 10
13.3247134142
 20
14.8079328935
 30
0.0
 11
13.5766819181
 21
14.8079328935
 31
0.0
  0
LINE
  5
9E
  8
0
  6
CONTINUOUS
 62
     7
 10
3.0250086898
 20
14.8079328935
 30
0.0
 11
3.5284535717
 21
14.8079328935
 31
0.0
  0
LINE
  5
9F
  8
0
  6
CONTINUOUS
 62
     7
 10
12.769103178
 20
14.8079328935
 30
0.0
 11
12.9497134142
 21
14.8079328935
 31
0.0
  0
LINE
  5
A0
  8
0
  6
CONTINUOUS
 62
     7
 10
5.9930628212
 20
12.5851894044
 30
0.0
 11
6.2238699079
 21
12.5851894044
 31
0.0
  0
LINE
  5
A1
  8
0
  6
CONTINUOUS
 62
     7
 10
6.2238699079
 20
12.5851894044
 30
0.0
 11
6.2238699079
 21
12.4670791682
 31
0.0
  0
LINE
  5
A2
  8
0
  6
CONTINUOUS
 62
     7
 10
6.2238699079
 20
12.4670791682
 30
0.0
 11
6.1742636086
 21
12.4670791682
 31
0.0
  0
LINE
  5
A3
  8
0
  6
CONTINUOUS
 62
     7
 10
6.1742636086
 20
12.4670791682
 30
0.0
 11
6.1742636086
 21
12.3568429477
 31
0.0
  0
LINE
  5
A4
  8
0
  6
CONTINUOUS
 62
     7
 10
6.1742636086
 20
12.3568429477
 30
0.0
 11
6.2238699079
 21
12.3568429477
 31
0.0
  0
LINE
  5
A5
  8
0
  6
CONTINUOUS
 62
     7
 10
6.2238699079
 20
12.3568429477
 30
0.0
 11
6.2238699079
 21
12.2899138138
 31
0.0
  0
ARC
  5
A6
  8
0
  6
CONTINUOUS
 62
     7
 10
6.2435549472
 20
12.2899138138
 30
0.0
 40
0.0196850393700796
 50
180.0
 51
270.0
  0
LINE
  5
A7
  8
0
  6
CONTINUOUS
 62
     7
 10
6.2435549472
 20
12.2702287745
 30
0.0
 11
6.3301691205
 21
12.2702287745
 31
0.0
  0
ARC
  5
A8
  8
0
  6
CONTINUOUS
 62
     7
 10
6.3301691205
 20
12.2899138138
 30
0.0
 40
0.0196850393700787
 50
270.0
 51
0.0
  0
LINE
  5
A9
  8
0
  6
CONTINUOUS
 62
     7
 10
6.3498541598
 20
12.2899138138
 30
0.0
 11
6.3498541598
 21
12.3568429477
 31
0.0
  0
LINE
  5
AA
  8
0
  6
CONTINUOUS
 62
     7
 10
6.3498541598
 20
12.3568429477
 30
0.0
 11
6.399460459
 21
12.3568429477
 31
0.0
  0
LINE
  5
AB
  8
0
  6
CONTINUOUS
 62
     7
 10
6.399460459
 20
12.3568429477
 30
0.0
 11
6.399460459
 21
12.4670791682
 31
0.0
  0
LINE
  5
AC
  8
0
  6
CONTINUOUS
 62
     7
 10
6.399460459
 20
12.4670791682
 30
0.0
 11
6.3498541598
 21
12.4670791682
 31
0.0
  0
LINE
  5
AD
  8
0
  6
CONTINUOUS
 62
     7
 10
6.3498541598
 20
12.4670791682
 30
0.0
 11
6.3498541598
 21
12.5851894044
 31
0.0
  0
LINE
  5
AE
  8
0
  6
CONTINUOUS
 62
     7
 10
6.3498541598
 20
12.5851894044
 30
0.0
 11
6.4930628212
 21
12.5851894044
 31
0.0
  0
LINE
  5
AF
  8
0
  6
CONTINUOUS
 62
     7
 10
6.4930628212
 20
12.4173744438
 30
0.0
 11
6.4930628212
 21
12.5851894044
 31
0.0
  0
ARC
  5
B0
  8
0
  6
CONTINUOUS
 62
     7
 10
6.6805628212
 20
12.4173744438
 30
0.0
 40
0.1875
 50
180.0
 51
0.0
  0
LINE
  5
B1
  8
0
  6
CONTINUOUS
 62
     7
 10
6.8680628212
 20
12.4173744438
 30
0.0
 11
6.8680628212
 21
12.5851894044
 31
0.0
  0
LINE
  5
B2
  8
0
  6
CONTINUOUS
 62
     7
 10
6.8680628212
 20
12.5851894044
 30
0.0
 11
7.6338108527
 21
12.5851894044
 31
0.0
  0
LINE
  5
B3
  8
0
  6
CONTINUOUS
 62
     7
 10
7.6338108527
 20
12.5851894044
 30
0.0
 11
7.6338108527
 21
12.4670791682
 31
0.0
  0
LINE
  5
B4
  8
0
  6
CONTINUOUS
 62
     7
 10
7.6338108527
 20
12.4670791682
 30
0.0
 11
7.5842045535
 21
12.4670791682
 31
0.0
  0
LINE
  5
B5
  8
0
  6
CONTINUOUS
 62
     7
 10
7.5842045535
 20
12.4670791682
 30
0.0
 11
7.5842045535
 21
12.3568429477
 31
0.0
  0
LINE
  5
B6
  8
0
  6
CONTINUOUS
 62
     7
 10
7.5842045535
 20
12.3568429477
 30
0.0
 11
7.6338108527
 21
12.3568429477
 31
0.0
  0
LINE
  5
B7
  8
0
  6
CONTINUOUS
 62
     7
 10
7.6338108527
 20
12.3568429477
 30
0.0
 11
7.6338108527
 21
12.2899138138
 31
0.0
  0
ARC
  5
B8
  8
0
  6
CONTINUOUS
 62
     7
 10
7.6534958921
 20
12.2899138138
 30
0.0
 40
0.0196850393700814
 50
180.0
 51
270.0
  0
LINE
  5
B9
  8
0
  6
CONTINUOUS
 62
     7
 10
7.6534958921
 20
12.2702287745
 30
0.0
 11
7.7401100653
 21
12.2702287745
 31
0.0
  0
ARC
  5
BA
  8
0
  6
CONTINUOUS
 62
     7
 10
7.7401100653
 20
12.2899138138
 30
0.0
 40
0.0196850393700796
 50
270.0
 51
0.0
  0
LINE
  5
BB
  8
0
  6
CONTINUOUS
 62
     7
 10
7.7597951047
 20
12.2899138138
 30
0.0
 11
7.7597951047
 21
12.3568429477
 31
0.0
  0
LINE
  5
BC
  8
0
  6
CONTINUOUS
 62
     7
 10
7.7597951047
 20
12.3568429477
 30
0.0
 11
7.8094014039
 21
12.3568429477
 31
0.0
  0
LINE
  5
BD
  8
0
  6
CONTINUOUS
 62
     7
 10
7.8094014039
 20
12.3568429477
 30
0.0
 11
7.8094014039
 21
12.4670791682
 31
0.0
  0
LINE
  5
BE
  8
0
  6
CONTINUOUS
 62
     7
 10
7.8094014039
 20
12.4670791682
 30
0.0
 11
7.7597951047
 21
12.4670791682
 31
0.0
  0
LINE
  5
BF
  8
0
  6
CONTINUOUS
 62
     7
 10
7.7597951047
 20
12.4670791682
 30
0.0
 11
7.7597951047
 21
12.5851894044
 31
0.0
  0
LINE
  5
C0
  8
0
  6
CONTINUOUS
 62
     7
 10
7.7597951047
 20
12.5851894044
 30
0.0
 11
8.5255431362
 21
12.5851894044
 31
0.0
  0
LINE
  5
C1
  8
0
  6
CONTINUOUS
 62
     7
 10
8.5255431362
 20
12.4173744438
 30
0.0
 11
8.5255431362
 21
12.5851894044
 31
0.0
  0
ARC
  5
C2
  8
0
  6
CONTINUOUS
 62
     7
 10
8.7130431362
 20
12.4173744438
 30
0.0
 40
0.1875000000000003
 50
180.0
 51
1.4983976845
  0
LINE
  5
C3
  8
0
  6
CONTINUOUS
 62
     7
 10
8.9004790218
 20
12.4222773798
 30
0.0
 11
8.898348665
 21
12.5851894044
 31
0.0
  0
LINE
  5
C4
  8
0
  6
CONTINUOUS
 62
     7
 10
8.898348665
 20
12.5851894044
 30
0.0
 11
9.0437517976
 21
12.5851894044
 31
0.0
  0
LINE
  5
C5
  8
0
  6
CONTINUOUS
 62
     7
 10
9.0437517976
 20
12.5851894044
 30
0.0
 11
9.0437517976
 21
12.4670791682
 31
0.0
  0
LINE
  5
C6
  8
0
  6
CONTINUOUS
 62
     7
 10
9.0437517976
 20
12.4670791682
 30
0.0
 11
8.9941454984
 21
12.4670791682
 31
0.0
  0
LINE
  5
C7
  8
0
  6
CONTINUOUS
 62
     7
 10
8.9941454984
 20
12.4670791682
 30
0.0
 11
8.9941454984
 21
12.3568429477
 31
0.0
  0
LINE
  5
C8
  8
0
  6
CONTINUOUS
 62
     7
 10
8.9941454984
 20
12.3568429477
 30
0.0
 11
9.0437517976
 21
12.3568429477
 31
0.0
  0
LINE
  5
C9
  8
0
  6
CONTINUOUS
 62
     7
 10
9.0437517976
 20
12.3568429477
 30
0.0
 11
9.0437517976
 21
12.2899138138
 31
0.0
  0
ARC
  5
CA
  8
0
  6
CONTINUOUS
 62
     7
 10
9.063436837
 20
12.2899138138
 30
0.0
 40
0.0196850393700796
 50
180.0
 51
270.0
  0
LINE
  5
CB
  8
0
  6
CONTINUOUS
 62
     7
 10
9.063436837
 20
12.2702287745
 30
0.0
 11
9.1500510102
 21
12.2702287745
 31
0.0
  0
ARC
  5
CC
  8
0
  6
CONTINUOUS
 62
     7
 10
9.1500510102
 20
12.2899138138
 30
0.0
 40
0.0196850393700796
 50
270.0
 51
0.0
  0
LINE
  5
CD
  8
0
  6
CONTINUOUS
 62
     7
 10
9.1697360496
 20
12.2899138138
 30
0.0
 11
9.1697360496
 21
12.3568429477
 31
0.0
  0
LINE
  5
CE
  8
0
  6
CONTINUOUS
 62
     7
 10
9.1697360496
 20
12.3568429477
 30
0.0
 11
9.2193423488
 21
12.3568429477
 31
0.0
  0
LINE
  5
CF
  8
0
  6
CONTINUOUS
 62
     7
 10
9.2193423488
 20
12.3568429477
 30
0.0
 11
9.2193423488
 21
12.4670791682
 31
0.0
  0
LINE
  5
D0
  8
0
  6
CONTINUOUS
 62
     7
 10
9.2193423488
 20
12.4670791682
 30
0.0
 11
9.1697360496
 21
12.4670791682
 31
0.0
  0
LINE
  5
D1
  8
0
  6
CONTINUOUS
 62
     7
 10
9.1697360496
 20
12.4670791682
 30
0.0
 11
9.1697360496
 21
12.5851894044
 31
0.0
  0
LINE
  5
D2
  8
0
  6
CONTINUOUS
 62
     7
 10
9.1697360496
 20
12.5851894044
 30
0.0
 11
9.4005431362
 21
12.5851894044
 31
0.0
  0
LINE
  5
D3
  8
0
  6
CONTINUOUS
 62
     7
 10
9.4005431362
 20
12.5851894044
 30
0.0
 11
9.4005431362
 21
12.0250910852
 31
0.0
  0
LINE
  5
D4
  8
0
  6
CONTINUOUS
 62
     7
 10
9.0068423488
 20
11.7977878296
 30
0.0
 11
9.4005431362
 21
12.0250910852
 31
0.0
  0
LINE
  5
D5
  8
0
  6
CONTINUOUS
 62
     7
 10
6.3867636086
 20
11.7977878296
 30
0.0
 11
9.0068423488
 21
11.7977878296
 31
0.0
  0
LINE
  5
D6
  8
0
  6
CONTINUOUS
 62
     7
 10
5.9930628212
 20
12.5851894044
 30
0.0
 11
5.9930628212
 21
12.0250910852
 31
0.0
  0
LINE
  5
D7
  8
0
  6
CONTINUOUS
 62
     7
 10
5.9930628212
 20
12.0250910852
 30
0.0
 11
6.3867636086
 21
11.7977878296
 31
0.0
  0
LINE
  5
D8
  8
0
  6
CONTINUOUS
 62
     7
 10
4.2696558429
 20
11.938847945
 30
0.0
 11
4.2044253606
 21
11.8736174627
 31
0.0
  0
ARC
  5
D9
  8
0
  6
CONTINUOUS
 62
     7
 10
4.093069962
 20
11.9849728613
 30
0.0
 40
0.1574803149606314
 50
270.0
 51
315.0
  0
LINE
  5
DA
  8
0
  6
CONTINUOUS
 62
     7
 10
4.093069962
 20
11.8274925464
 30
0.0
 11
3.292158712
 21
11.8274925464
 31
0.0
  0
ARC
  5
DB
  8
0
  6
CONTINUOUS
 62
     7
 10
3.292158712
 20
11.9849728613
 30
0.0
 40
0.1574803149606314
 50
180.0
 51
270.0
  0
LINE
  5
DC
  8
0
  6
CONTINUOUS
 62
     7
 10
3.134678397
 20
11.9849728613
 30
0.0
 11
3.134678397
 21
12.2605634125
 31
0.0
  0
ARC
  5
DD
  8
0
  6
CONTINUOUS
 62
     7
 10
3.292158712
 20
12.2605634125
 30
0.0
 40
0.1574803149606301
 50
90.0
 51
180.0
  0
LINE
  5
DE
  8
0
  6
CONTINUOUS
 62
     7
 10
3.292158712
 20
12.4180437275
 30
0.0
 11
3.3164637782
 21
12.4180437275
 31
0.0
  0
ARC
  5
DF
  8
0
  6
CONTINUOUS
 62
     7
 10
4.1583004442
 20
12.0502033436
 30
0.0
 40
0.1574803149606309
 50
315.0
 51
0.0
  0
ARC
  5
E0
  8
0
  6
CONTINUOUS
 62
     7
 10
3.3164637782
 20
12.3983586881
 30
0.0
 40
0.019685039370078
 50
349.3792934268
 51
90.0
  0
ARC
  5
E1
  8
0
  6
CONTINUOUS
 62
     7
 10
3.5815287907
 20
12.3486539637
 30
0.0
 40
0.2500000000000003
 50
169.3792934268
 51
36.2874570851
  0
ARC
  5
E2
  8
0
  6
CONTINUOUS
 62
     7
 10
3.8147778182
 20
12.5199138062
 30
0.0
 40
0.0393700787401592
 50
90.0
 51
216.2874570851
  0
LINE
  5
E3
  8
0
  6
CONTINUOUS
 62
     7
 10
3.8147778182
 20
12.5592838849
 30
0.0
 11
3.9634185545
 21
12.5592838849
 31
0.0
  0
LINE
  5
E4
  8
0
  6
CONTINUOUS
 62
     7
 10
3.9634185545
 20
12.5592838849
 30
0.0
 11
3.9634185545
 21
12.3230634125
 31
0.0
  0
LINE
  5
E5
  8
0
  6
CONTINUOUS
 62
     7
 10
3.9634185545
 20
12.3230634125
 30
0.0
 11
3.9138122553
 21
12.3230634125
 31
0.0
  0
LINE
  5
E6
  8
0
  6
CONTINUOUS
 62
     7
 10
3.9138122553
 20
12.3230634125
 30
0.0
 11
3.9138122553
 21
12.212827192
 31
0.0
  0
LINE
  5
E7
  8
0
  6
CONTINUOUS
 62
     7
 10
3.9138122553
 20
12.212827192
 30
0.0
 11
3.9634185545
 21
12.212827192
 31
0.0
  0
LINE
  5
E8
  8
0
  6
CONTINUOUS
 62
     7
 10
3.9634185545
 20
12.212827192
 30
0.0
 11
3.9634185545
 21
12.1458980582
 31
0.0
  0
ARC
  5
E9
  8
0
  6
CONTINUOUS
 62
     7
 10
3.9831035939
 20
12.1458980582
 30
0.0
 40
0.0196850393700787
 50
180.0
 51
270.0
  0
LINE
  5
EA
  8
0
  6
CONTINUOUS
 62
     7
 10
3.9831035939
 20
12.1262130188
 30
0.0
 11
4.0697177671
 21
12.1262130188
 31
0.0
  0
ARC
  5
EB
  8
0
  6
CONTINUOUS
 62
     7
 10
4.0697177671
 20
12.1458980582
 30
0.0
 40
0.0196850393700787
 50
270.0
 51
0.0
  0
LINE
  5
EC
  8
0
  6
CONTINUOUS
 62
     7
 10
4.0894028065
 20
12.1458980582
 30
0.0
 11
4.0894028065
 21
12.212827192
 31
0.0
  0
LINE
  5
ED
  8
0
  6
CONTINUOUS
 62
     7
 10
4.0894028065
 20
12.212827192
 30
0.0
 11
4.1390091057
 21
12.212827192
 31
0.0
  0
LINE
  5
EE
  8
0
  6
CONTINUOUS
 62
     7
 10
4.1390091057
 20
12.212827192
 30
0.0
 11
4.1390091057
 21
12.3230634125
 31
0.0
  0
LINE
  5
EF
  8
0
  6
CONTINUOUS
 62
     7
 10
4.1390091057
 20
12.3230634125
 30
0.0
 11
4.0894028065
 21
12.3230634125
 31
0.0
  0
LINE
  5
F0
  8
0
  6
CONTINUOUS
 62
     7
 10
4.0894028065
 20
12.3230634125
 30
0.0
 11
4.0894028065
 21
12.5592838849
 31
0.0
  0
LINE
  5
F1
  8
0
  6
CONTINUOUS
 62
     7
 10
4.0894028065
 20
12.5592838849
 30
0.0
 11
4.197670523
 21
12.5592838849
 31
0.0
  0
LINE
  5
F2
  8
0
  6
CONTINUOUS
 62
     7
 10
4.197670523
 20
12.5592838849
 30
0.0
 11
4.197670523
 21
12.5986539637
 31
0.0
  0
LINE
  5
F3
  8
0
  6
CONTINUOUS
 62
     7
 10
4.197670523
 20
12.5986539637
 30
0.0
 11
4.3157807592
 21
12.5986539637
 31
0.0
  0
LINE
  5
F4
  8
0
  6
CONTINUOUS
 62
     7
 10
4.3157807592
 20
12.5986539637
 30
0.0
 11
4.3157807592
 21
12.0502033436
 31
0.0
  0
LINE
  5
F5
  8
0
  6
CONTINUOUS
 62
     7
 10
11.1522545651
 20
9.7975028005
 30
0.0
 11
11.1522545651
 21
10.3597369314
 31
0.0
  0
ARC
  5
F6
  8
0
  6
CONTINUOUS
 62
     7
 10
10.94181207
 20
10.0746681548
 30
0.0
 40
0.3543307086614185
 50
53.5646418748
 51
90.0
  0
LINE
  5
F7
  8
0
  6
CONTINUOUS
 62
     7
 10
10.94181207
 20
10.4289988635
 30
0.0
 11
10.6874965881
 21
10.4289988635
 31
0.0
  0
ARC
  5
F8
  8
0
  6
CONTINUOUS
 62
     7
 10
10.6874965881
 20
10.6258492572
 30
0.0
 40
0.1968503937007871
 50
216.8698976458
 51
270.0
  0
LINE
  5
F9
  8
0
  6
CONTINUOUS
 62
     7
 10
10.5300162731
 20
10.507739021
 30
0.0
 11
11.1522545651
 21
10.507739021
 31
0.0
  0
LINE
  5
FA
  8
0
  6
CONTINUOUS
 62
     7
 10
11.1522545651
 20
10.507739021
 30
0.0
 11
11.1522545651
 21
10.53726658
 31
0.0
  0
LINE
  5
FB
  8
0
  6
CONTINUOUS
 62
     7
 10
11.1522545651
 20
10.53726658
 30
0.0
 11
11.1456629781
 21
10.5553768162
 31
0.0
  0
LINE
  5
FC
  8
0
  6
CONTINUOUS
 62
     7
 10
11.1456629781
 20
10.5553768162
 30
0.0
 11
11.1157417183
 21
10.5553768162
 31
0.0
  0
LINE
  5
FD
  8
0
  6
CONTINUOUS
 62
     7
 10
11.1157417183
 20
10.5553768162
 30
0.0
 11
11.1091501314
 21
10.53726658
 31
0.0
  0
LINE
  5
FE
  8
0
  6
CONTINUOUS
 62
     7
 10
11.1091501314
 20
10.53726658
 30
0.0
 11
11.0723333052
 21
10.53726658
 31
0.0
  0
LINE
  5
FF
  8
0
  6
CONTINUOUS
 62
     7
 10
11.0723333052
 20
10.53726658
 30
0.0
 11
11.0657417183
 21
10.5553768162
 31
0.0
  0
LINE
  5
100
  8
0
  6
CONTINUOUS
 62
     7
 10
11.0657417183
 20
10.5553768162
 30
0.0
 11
11.0358204585
 21
10.5553768162
 31
0.0
  0
LINE
  5
101
  8
0
  6
CONTINUOUS
 62
     7
 10
11.0358204585
 20
10.5553768162
 30
0.0
 11
11.0292288715
 21
10.53726658
 31
0.0
  0
LINE
  5
102
  8
0
  6
CONTINUOUS
 62
     7
 10
11.0292288715
 20
10.53726658
 30
0.0
 11
10.9924120454
 21
10.53726658
 31
0.0
  0
LINE
  5
103
  8
0
  6
CONTINUOUS
 62
     7
 10
10.9924120454
 20
10.53726658
 30
0.0
 11
10.9858204585
 21
10.5553768162
 31
0.0
  0
LINE
  5
104
  8
0
  6
CONTINUOUS
 62
     7
 10
10.9858204585
 20
10.5553768162
 30
0.0
 11
10.9558991986
 21
10.5553768162
 31
0.0
  0
LINE
  5
105
  8
0
  6
CONTINUOUS
 62
     7
 10
10.9558991986
 20
10.5553768162
 30
0.0
 11
10.9493076117
 21
10.53726658
 31
0.0
  0
LINE
  5
106
  8
0
  6
CONTINUOUS
 62
     7
 10
10.9493076117
 20
10.53726658
 30
0.0
 11
10.9124907855
 21
10.53726658
 31
0.0
  0
LINE
  5
107
  8
0
  6
CONTINUOUS
 62
     7
 10
10.9124907855
 20
10.53726658
 30
0.0
 11
10.9058991986
 21
10.5553768162
 31
0.0
  0
LINE
  5
108
  8
0
  6
CONTINUOUS
 62
     7
 10
10.9058991986
 20
10.5553768162
 30
0.0
 11
10.8759779388
 21
10.5553768162
 31
0.0
  0
LINE
  5
109
  8
0
  6
CONTINUOUS
 62
     7
 10
10.8759779388
 20
10.5553768162
 30
0.0
 11
10.8693863518
 21
10.53726658
 31
0.0
  0
LINE
  5
10A
  8
0
  6
CONTINUOUS
 62
     7
 10
10.8693863518
 20
10.53726658
 30
0.0
 11
10.8325695257
 21
10.53726658
 31
0.0
  0
LINE
  5
10B
  8
0
  6
CONTINUOUS
 62
     7
 10
10.8325695257
 20
10.53726658
 30
0.0
 11
10.8259779388
 21
10.5553768162
 31
0.0
  0
LINE
  5
10C
  8
0
  6
CONTINUOUS
 62
     7
 10
10.8259779388
 20
10.5553768162
 30
0.0
 11
10.7960566789
 21
10.5553768162
 31
0.0
  0
LINE
  5
10D
  8
0
  6
CONTINUOUS
 62
     7
 10
10.7960566789
 20
10.5553768162
 30
0.0
 11
10.789465092
 21
10.53726658
 31
0.0
  0
LINE
  5
10E
  8
0
  6
CONTINUOUS
 62
     7
 10
10.789465092
 20
10.53726658
 30
0.0
 11
10.7526482658
 21
10.53726658
 31
0.0
  0
LINE
  5
10F
  8
0
  6
CONTINUOUS
 62
     7
 10
10.7526482658
 20
10.53726658
 30
0.0
 11
10.7460566789
 21
10.5553768162
 31
0.0
  0
LINE
  5
110
  8
0
  6
CONTINUOUS
 62
     7
 10
10.7460566789
 20
10.5553768162
 30
0.0
 11
10.7161354191
 21
10.5553768162
 31
0.0
  0
LINE
  5
111
  8
0
  6
CONTINUOUS
 62
     7
 10
10.7161354191
 20
10.5553768162
 30
0.0
 11
10.7095438322
 21
10.53726658
 31
0.0
  0
LINE
  5
112
  8
0
  6
CONTINUOUS
 62
     7
 10
10.7095438322
 20
10.53726658
 30
0.0
 11
10.672727006
 21
10.53726658
 31
0.0
  0
LINE
  5
113
  8
0
  6
CONTINUOUS
 62
     7
 10
10.672727006
 20
10.53726658
 30
0.0
 11
10.6661354191
 21
10.5553768162
 31
0.0
  0
LINE
  5
114
  8
0
  6
CONTINUOUS
 62
     7
 10
10.6661354191
 20
10.5553768162
 30
0.0
 11
10.6362141592
 21
10.5553768162
 31
0.0
  0
LINE
  5
115
  8
0
  6
CONTINUOUS
 62
     7
 10
10.6362141592
 20
10.5553768162
 30
0.0
 11
10.6296225723
 21
10.53726658
 31
0.0
  0
LINE
  5
116
  8
0
  6
CONTINUOUS
 62
     7
 10
10.6296225723
 20
10.53726658
 30
0.0
 11
10.5928057462
 21
10.53726658
 31
0.0
  0
LINE
  5
117
  8
0
  6
CONTINUOUS
 62
     7
 10
10.5928057462
 20
10.53726658
 30
0.0
 11
10.5862141592
 21
10.5553768162
 31
0.0
  0
LINE
  5
118
  8
0
  6
CONTINUOUS
 62
     7
 10
10.5862141592
 20
10.5553768162
 30
0.0
 11
10.5562928994
 21
10.5553768162
 31
0.0
  0
LINE
  5
119
  8
0
  6
CONTINUOUS
 62
     7
 10
10.5562928994
 20
10.5553768162
 30
0.0
 11
10.5497013125
 21
10.53726658
 31
0.0
  0
LINE
  5
11A
  8
0
  6
CONTINUOUS
 62
     7
 10
10.5497013125
 20
10.53726658
 30
0.0
 11
10.5300162731
 21
10.53726658
 31
0.0
  0
LINE
  5
11B
  8
0
  6
CONTINUOUS
 62
     7
 10
10.5300162731
 20
10.53726658
 30
0.0
 11
10.5300162731
 21
10.594746895
 31
0.0
  0
ARC
  5
11C
  8
0
  6
CONTINUOUS
 62
     7
 10
10.7268666668
 20
10.594746895
 30
0.0
 40
0.1968503937007853
 50
90.0
 51
180.0
  0
LINE
  5
11D
  8
0
  6
CONTINUOUS
 62
     7
 10
10.7268666668
 20
10.7915972887
 30
0.0
 11
11.081353613
 21
10.7915972887
 31
0.0
  0
POLYLINE
  5
11E
  8
0
  6
CONTINUOUS
 62
     7
 66
     1
 10
0.0
 20
0.0
 30
0.0
  0
VERTEX
  5
245
  8
0
  6
CONTINUOUS
 62
     7
 10
11.081353613
 20
10.7915972887
 30
0.0
  0
VERTEX
  5
246
  8
0
  6
CONTINUOUS
 62
     7
 10
11.1168040889
 20
10.7928259557
 30
0.0
  0
VERTEX
  5
247
  8
0
  6
CONTINUOUS
 62
     7
 10
11.1522545649
 20
10.8003511552
 30
0.0
  0
SEQEND
  5
248
  8
0
  6
CONTINUOUS
 62
     7
  0
LINE
  5
11F
  8
0
  6
CONTINUOUS
 62
     7
 10
11.152254565
 20
10.8003511552
 30
0.0
 11
11.1522545651
 21
12.2975028005
 31
0.0
  0
LINE
  5
120
  8
0
  6
CONTINUOUS
 62
     7
 10
11.1522545651
 20
12.2975028005
 30
0.0
 11
13.6522545651
 21
12.2975028005
 31
0.0
  0
LINE
  5
121
  8
0
  6
CONTINUOUS
 62
     7
 10
13.6522545651
 20
12.2975028005
 30
0.0
 11
13.6522545651
 21
11.7846031238
 31
0.0
  0
POLYLINE
  5
122
  8
0
  6
CONTINUOUS
 62
     7
 66
     1
 10
0.0
 20
0.0
 30
0.0
  0
VERTEX
  5
249
  8
0
  6
CONTINUOUS
 62
     7
 10
13.6522545651
 20
11.7846031238
 30
0.0
  0
VERTEX
  5
24A
  8
0
  6
CONTINUOUS
 62
     7
 10
13.6866423712
 20
11.7771861189
 30
0.0
  0
VERTEX
  5
24B
  8
0
  6
CONTINUOUS
 62
     7
 10
13.7231555171
 20
11.7758492572
 30
0.0
  0
SEQEND
  5
24C
  8
0
  6
CONTINUOUS
 62
     7
  0
LINE
  5
123
  8
0
  6
CONTINUOUS
 62
     7
 10
13.7231555171
 20
11.7758492572
 30
0.0
 11
14.0776424633
 21
11.7758492572
 31
0.0
  0
ARC
  5
124
  8
0
  6
CONTINUOUS
 62
     7
 10
14.0776424633
 20
11.5789988635
 30
0.0
 40
0.1968503937007871
 50
0.0
 51
90.0
  0
LINE
  5
125
  8
0
  6
CONTINUOUS
 62
     7
 10
14.274492857
 20
11.5789988635
 30
0.0
 11
14.274492857
 21
11.5215185485
 31
0.0
  0
LINE
  5
126
  8
0
  6
CONTINUOUS
 62
     7
 10
14.274492857
 20
11.5215185485
 30
0.0
 11
14.2548078176
 21
11.5215185485
 31
0.0
  0
LINE
  5
127
  8
0
  6
CONTINUOUS
 62
     7
 10
14.2548078176
 20
11.5215185485
 30
0.0
 11
14.2482162307
 21
11.5396287848
 31
0.0
  0
LINE
  5
128
  8
0
  6
CONTINUOUS
 62
     7
 10
14.2482162307
 20
11.5396287848
 30
0.0
 11
14.2182949709
 21
11.5396287848
 31
0.0
  0
LINE
  5
129
  8
0
  6
CONTINUOUS
 62
     7
 10
14.2182949709
 20
11.5396287848
 30
0.0
 11
14.211703384
 21
11.5215185485
 31
0.0
  0
LINE
  5
12A
  8
0
  6
CONTINUOUS
 62
     7
 10
14.211703384
 20
11.5215185485
 30
0.0
 11
14.1748865578
 21
11.5215185485
 31
0.0
  0
LINE
  5
12B
  8
0
  6
CONTINUOUS
 62
     7
 10
14.1748865578
 20
11.5215185485
 30
0.0
 11
14.1682949709
 21
11.5396287848
 31
0.0
  0
LINE
  5
12C
  8
0
  6
CONTINUOUS
 62
     7
 10
14.1682949709
 20
11.5396287848
 30
0.0
 11
14.138373711
 21
11.5396287848
 31
0.0
  0
LINE
  5
12D
  8
0
  6
CONTINUOUS
 62
     7
 10
14.138373711
 20
11.5396287848
 30
0.0
 11
14.1317821241
 21
11.5215185485
 31
0.0
  0
LINE
  5
12E
  8
0
  6
CONTINUOUS
 62
     7
 10
14.1317821241
 20
11.5215185485
 30
0.0
 11
14.0949652979
 21
11.5215185485
 31
0.0
  0
LINE
  5
12F
  8
0
  6
CONTINUOUS
 62
     7
 10
14.0949652979
 20
11.5215185485
 30
0.0
 11
14.088373711
 21
11.5396287848
 31
0.0
  0
LINE
  5
130
  8
0
  6
CONTINUOUS
 62
     7
 10
14.088373711
 20
11.5396287848
 30
0.0
 11
14.0584524512
 21
11.5396287848
 31
0.0
  0
LINE
  5
131
  8
0
  6
CONTINUOUS
 62
     7
 10
14.0584524512
 20
11.5396287848
 30
0.0
 11
14.0518608643
 21
11.5215185485
 31
0.0
  0
LINE
  5
132
  8
0
  6
CONTINUOUS
 62
     7
 10
14.0518608643
 20
11.5215185485
 30
0.0
 11
14.0150440381
 21
11.5215185485
 31
0.0
  0
LINE
  5
133
  8
0
  6
CONTINUOUS
 62
     7
 10
14.0150440381
 20
11.5215185485
 30
0.0
 11
14.0084524512
 21
11.5396287848
 31
0.0
  0
LINE
  5
134
  8
0
  6
CONTINUOUS
 62
     7
 10
14.0084524512
 20
11.5396287848
 30
0.0
 11
13.9785311913
 21
11.5396287848
 31
0.0
  0
LINE
  5
135
  8
0
  6
CONTINUOUS
 62
     7
 10
13.9785311913
 20
11.5396287848
 30
0.0
 11
13.9719396044
 21
11.5215185485
 31
0.0
  0
LINE
  5
136
  8
0
  6
CONTINUOUS
 62
     7
 10
13.9719396044
 20
11.5215185485
 30
0.0
 11
13.9351227783
 21
11.5215185485
 31
0.0
  0
LINE
  5
137
  8
0
  6
CONTINUOUS
 62
     7
 10
13.9351227783
 20
11.5215185485
 30
0.0
 11
13.9285311913
 21
11.5396287848
 31
0.0
  0
LINE
  5
138
  8
0
  6
CONTINUOUS
 62
     7
 10
13.9285311913
 20
11.5396287848
 30
0.0
 11
13.8986099315
 21
11.5396287848
 31
0.0
  0
LINE
  5
139
  8
0
  6
CONTINUOUS
 62
     7
 10
13.8986099315
 20
11.5396287848
 30
0.0
 11
13.8920183446
 21
11.5215185485
 31
0.0
  0
LINE
  5
13A
  8
0
  6
CONTINUOUS
 62
     7
 10
13.8920183446
 20
11.5215185485
 30
0.0
 11
13.8552015184
 21
11.5215185485
 31
0.0
  0
LINE
  5
13B
  8
0
  6
CONTINUOUS
 62
     7
 10
13.8552015184
 20
11.5215185485
 30
0.0
 11
13.8486099315
 21
11.5396287848
 31
0.0
  0
LINE
  5
13C
  8
0
  6
CONTINUOUS
 62
     7
 10
13.8486099315
 20
11.5396287848
 30
0.0
 11
13.8186886717
 21
11.5396287848
 31
0.0
  0
LINE
  5
13D
  8
0
  6
CONTINUOUS
 62
     7
 10
13.8186886717
 20
11.5396287848
 30
0.0
 11
13.8120970847
 21
11.5215185485
 31
0.0
  0
LINE
  5
13E
  8
0
  6
CONTINUOUS
 62
     7
 10
13.8120970847
 20
11.5215185485
 30
0.0
 11
13.7752802586
 21
11.5215185485
 31
0.0
  0
LINE
  5
13F
  8
0
  6
CONTINUOUS
 62
     7
 10
13.7752802586
 20
11.5215185485
 30
0.0
 11
13.7686886717
 21
11.5396287848
 31
0.0
  0
LINE
  5
140
  8
0
  6
CONTINUOUS
 62
     7
 10
13.7686886717
 20
11.5396287848
 30
0.0
 11
13.7387674118
 21
11.5396287848
 31
0.0
  0
LINE
  5
141
  8
0
  6
CONTINUOUS
 62
     7
 10
13.7387674118
 20
11.5396287848
 30
0.0
 11
13.7321758249
 21
11.5215185485
 31
0.0
  0
LINE
  5
142
  8
0
  6
CONTINUOUS
 62
     7
 10
13.7321758249
 20
11.5215185485
 30
0.0
 11
13.6953589987
 21
11.5215185485
 31
0.0
  0
LINE
  5
143
  8
0
  6
CONTINUOUS
 62
     7
 10
13.6953589987
 20
11.5215185485
 30
0.0
 11
13.6887674118
 21
11.5396287848
 31
0.0
  0
LINE
  5
144
  8
0
  6
CONTINUOUS
 62
     7
 10
13.6887674118
 20
11.5396287848
 30
0.0
 11
13.658846152
 21
11.5396287848
 31
0.0
  0
LINE
  5
145
  8
0
  6
CONTINUOUS
 62
     7
 10
13.658846152
 20
11.5396287848
 30
0.0
 11
13.6522545651
 21
11.5215185485
 31
0.0
  0
LINE
  5
146
  8
0
  6
CONTINUOUS
 62
     7
 10
13.6522545651
 20
11.5215185485
 30
0.0
 11
13.6522545651
 21
11.4919909895
 31
0.0
  0
LINE
  5
147
  8
0
  6
CONTINUOUS
 62
     7
 10
13.6522545651
 20
11.4919909895
 30
0.0
 11
14.274492857
 21
11.4919909895
 31
0.0
  0
ARC
  5
148
  8
0
  6
CONTINUOUS
 62
     7
 10
14.117012542
 20
11.6101012257
 30
0.0
 40
0.1968503937007888
 50
270.0
 51
323.1301023542
  0
LINE
  5
149
  8
0
  6
CONTINUOUS
 62
     7
 10
14.117012542
 20
11.413250832
 30
0.0
 11
13.8626970602
 21
11.413250832
 31
0.0
  0
ARC
  5
14A
  8
0
  6
CONTINUOUS
 62
     7
 10
13.8626970602
 20
11.0589201233
 30
0.0
 40
0.3543307086614165
 50
90.0
 51
126.4353581252
  0
LINE
  5
14B
  8
0
  6
CONTINUOUS
 62
     7
 10
13.6522545651
 20
11.3439888999
 30
0.0
 11
13.6522545651
 21
9.7975028005
 31
0.0
  0
LINE
  5
14C
  8
0
  6
CONTINUOUS
 62
     7
 10
13.6522545651
 20
9.7975028005
 30
0.0
 11
13.1522545651
 21
9.7975028005
 31
0.0
  0
LINE
  5
14D
  8
0
  6
CONTINUOUS
 62
     7
 10
13.1522545651
 20
9.7975028005
 30
0.0
 11
13.1522545651
 21
11.7975028005
 31
0.0
  0
LINE
  5
14E
  8
0
  6
CONTINUOUS
 62
     7
 10
13.1522545651
 20
11.7975028005
 30
0.0
 11
11.6522545651
 21
11.7975028005
 31
0.0
  0
LINE
  5
14F
  8
0
  6
CONTINUOUS
 62
     7
 10
11.6522545651
 20
11.7975028005
 30
0.0
 11
11.6522545651
 21
9.7975028005
 31
0.0
  0
LINE
  5
150
  8
0
  6
CONTINUOUS
 62
     7
 10
11.6522545651
 20
9.7975028005
 30
0.0
 11
11.1522545651
 21
9.7975028005
 31
0.0
  0
CIRCLE
  5
151
  8
0
  6
CONTINUOUS
 62
     7
 10
11.4022545651
 20
10.031262643
 30
0.0
 40
0.0688976377952777
  0
CIRCLE
  5
152
  8
0
  6
CONTINUOUS
 62
     7
 10
11.4022545651
 20
12.063742958
 30
0.0
 40
0.0688976377952741
  0
CIRCLE
  5
153
  8
0
  6
CONTINUOUS
 62
     7
 10
13.4022545651
 20
12.063742958
 30
0.0
 40
0.0688976377952741
  0
CIRCLE
  5
154
  8
0
  6
CONTINUOUS
 62
     7
 10
13.4022545651
 20
10.031262643
 30
0.0
 40
0.0688976377952777
  0
LINE
  5
155
  8
0
  6
CONTINUOUS
 62
     7
 10
2.012538074
 20
12.8251184401
 30
0.0
 11
1.9629317747
 21
12.8251184401
 31
0.0
  0
LINE
  5
156
  8
0
  6
CONTINUOUS
 62
     7
 10
1.9629317747
 20
12.8251184401
 30
0.0
 11
1.9629317747
 21
12.7148822197
 31
0.0
  0
LINE
  5
157
  8
0
  6
CONTINUOUS
 62
     7
 10
1.9629317747
 20
12.7148822197
 30
0.0
 11
2.012538074
 21
12.7148822197
 31
0.0
  0
LINE
  5
158
  8
0
  6
CONTINUOUS
 62
     7
 10
2.012538074
 20
12.7148822197
 30
0.0
 11
2.012538074
 21
12.6479530858
 31
0.0
  0
ARC
  5
159
  8
0
  6
CONTINUOUS
 62
     7
 10
2.0322231133
 20
12.6479530858
 30
0.0
 40
0.0196850393700814
 50
180.0
 51
270.0
  0
ARC
  5
15A
  8
0
  6
CONTINUOUS
 62
     7
 10
2.1188372866
 20
12.6479530858
 30
0.0
 40
0.0196850393700814
 50
270.0
 51
0.0
  0
LINE
  5
15B
  8
0
  6
CONTINUOUS
 62
     7
 10
2.1385223259
 20
12.6479530858
 30
0.0
 11
2.1385223259
 21
12.7148822197
 31
0.0
  0
LINE
  5
15C
  8
0
  6
CONTINUOUS
 62
     7
 10
2.1385223259
 20
12.7148822197
 30
0.0
 11
2.1881286251
 21
12.7148822197
 31
0.0
  0
LINE
  5
15D
  8
0
  6
CONTINUOUS
 62
     7
 10
2.1881286251
 20
12.7148822197
 30
0.0
 11
2.1881286251
 21
12.8251184401
 31
0.0
  0
LINE
  5
15E
  8
0
  6
CONTINUOUS
 62
     7
 10
2.1881286251
 20
12.8251184401
 30
0.0
 11
2.1385223259
 21
12.8251184401
 31
0.0
  0
LINE
  5
15F
  8
0
  6
CONTINUOUS
 62
     7
 10
2.1385223259
 20
12.8251184401
 30
0.0
 11
2.1385223259
 21
12.9432286763
 31
0.0
  0
LINE
  5
160
  8
0
  6
CONTINUOUS
 62
     7
 10
2.3924593338
 20
10.1544885189
 30
0.0
 11
2.3924593338
 21
12.9432286763
 31
0.0
  0
LINE
  5
161
  8
0
  6
CONTINUOUS
 62
     7
 10
0.9711994913
 20
10.1544885189
 30
0.0
 11
2.3924593338
 21
10.1544885189
 31
0.0
  0
LINE
  5
162
  8
0
  6
CONTINUOUS
 62
     7
 10
0.9711994913
 20
12.9432286763
 30
0.0
 11
0.9711994913
 21
10.1544885189
 31
0.0
  0
LINE
  5
163
  8
0
  6
CONTINUOUS
 62
     7
 10
1.2251364991
 20
12.9432286763
 30
0.0
 11
0.9711994913
 21
12.9432286763
 31
0.0
  0
LINE
  5
164
  8
0
  6
CONTINUOUS
 62
     7
 10
1.2251364991
 20
12.9432286763
 30
0.0
 11
1.2251364991
 21
12.8251184401
 31
0.0
  0
LINE
  5
165
  8
0
  6
CONTINUOUS
 62
     7
 10
1.2251364991
 20
12.8251184401
 30
0.0
 11
1.1755301999
 21
12.8251184401
 31
0.0
  0
LINE
  5
166
  8
0
  6
CONTINUOUS
 62
     7
 10
1.1755301999
 20
12.8251184401
 30
0.0
 11
1.1755301999
 21
12.7148822197
 31
0.0
  0
LINE
  5
167
  8
0
  6
CONTINUOUS
 62
     7
 10
1.1755301999
 20
12.7148822197
 30
0.0
 11
1.2251364991
 21
12.7148822197
 31
0.0
  0
LINE
  5
168
  8
0
  6
CONTINUOUS
 62
     7
 10
1.2251364991
 20
12.7148822197
 30
0.0
 11
1.2251364991
 21
12.6479530858
 31
0.0
  0
ARC
  5
169
  8
0
  6
CONTINUOUS
 62
     7
 10
1.2448215385
 20
12.6479530858
 30
0.0
 40
0.0196850393700796
 50
180.0
 51
270.0
  0
LINE
  5
16A
  8
0
  6
CONTINUOUS
 62
     7
 10
1.2448215385
 20
12.6282680464
 30
0.0
 11
1.3314357117
 21
12.6282680464
 31
0.0
  0
ARC
  5
16B
  8
0
  6
CONTINUOUS
 62
     7
 10
1.3314357117
 20
12.6479530858
 30
0.0
 40
0.0196850393700789
 50
270.0
 51
0.0
  0
LINE
  5
16C
  8
0
  6
CONTINUOUS
 62
     7
 10
1.3511207511
 20
12.6479530858
 30
0.0
 11
1.3511207511
 21
12.7148822197
 31
0.0
  0
LINE
  5
16D
  8
0
  6
CONTINUOUS
 62
     7
 10
1.3511207511
 20
12.7148822197
 30
0.0
 11
1.4007270503
 21
12.7148822197
 31
0.0
  0
LINE
  5
16E
  8
0
  6
CONTINUOUS
 62
     7
 10
1.4007270503
 20
12.7148822197
 30
0.0
 11
1.4007270503
 21
12.8251184401
 31
0.0
  0
LINE
  5
16F
  8
0
  6
CONTINUOUS
 62
     7
 10
1.4007270503
 20
12.8251184401
 30
0.0
 11
1.3511207511
 21
12.8251184401
 31
0.0
  0
LINE
  5
170
  8
0
  6
CONTINUOUS
 62
     7
 10
1.3511207511
 20
12.8251184401
 30
0.0
 11
1.3511207511
 21
12.9432286763
 31
0.0
  0
LINE
  5
171
  8
0
  6
CONTINUOUS
 62
     7
 10
2.012538074
 20
12.9432286763
 30
0.0
 11
1.3511207511
 21
12.9432286763
 31
0.0
  0
LINE
  5
172
  8
0
  6
CONTINUOUS
 62
     7
 10
2.012538074
 20
12.9432286763
 30
0.0
 11
2.012538074
 21
12.8251184401
 31
0.0
  0
CIRCLE
  5
173
  8
0
  6
CONTINUOUS
 62
     7
 10
1.6818294125
 20
12.6085830071
 30
0.0
 40
0.0629921259842519
  0
CIRCLE
  5
174
  8
0
  6
CONTINUOUS
 62
     7
 10
1.2074199637
 20
11.7385042669
 30
0.0
 40
0.0629921259842519
  0
CIRCLE
  5
175
  8
0
  6
CONTINUOUS
 62
     7
 10
2.1562388614
 20
11.7385042669
 30
0.0
 40
0.0629921259842519
  0
CIRCLE
  5
176
  8
0
  6
CONTINUOUS
 62
     7
 10
2.2152939795
 20
10.3316538732
 30
0.0
 40
0.0629921259842519
  0
CIRCLE
  5
177
  8
0
  6
CONTINUOUS
 62
     7
 10
1.1483648456
 20
10.3316538732
 30
0.0
 40
0.0629921259842521
  0
LINE
  5
178
  8
0
  6
CONTINUOUS
 62
     7
 10
2.3924593338
 20
12.9432286763
 30
0.0
 11
2.1385223259
 21
12.9432286763
 31
0.0
  0
LINE
  5
179
  8
0
  6
CONTINUOUS
 62
     7
 10
2.0322231133
 20
12.6282680464
 30
0.0
 11
2.1188372866
 21
12.6282680464
 31
0.0
  0
CIRCLE
  5
17A
  8
0
  6
CONTINUOUS
 62
     7
 10
5.7490709031
 20
9.9385570573
 30
0.0
 40
0.0688976377952777
  0
CIRCLE
  5
17B
  8
0
  6
CONTINUOUS
 62
     7
 10
3.5640315331
 20
9.1511554825
 30
0.0
 40
0.0688976377952741
  0
CIRCLE
  5
17C
  8
0
  6
CONTINUOUS
 62
     7
 10
4.6565512181
 20
9.5448562699
 30
0.0
 40
0.3140000000000001
  0
LINE
  5
17D
  8
0
  6
CONTINUOUS
 62
     7
 10
5.9065512181
 20
10.2554861911
 30
0.0
 11
3.4065512181
 21
10.2554861911
 31
0.0
  0
LINE
  5
17E
  8
0
  6
CONTINUOUS
 62
     7
 10
5.9065512181
 20
8.8342263486
 30
0.0
 11
5.9065512181
 21
10.2554861911
 31
0.0
  0
LINE
  5
17F
  8
0
  6
CONTINUOUS
 62
     7
 10
3.4065512181
 20
8.8342263486
 30
0.0
 11
5.9065512181
 21
8.8342263486
 31
0.0
  0
LINE
  5
180
  8
0
  6
CONTINUOUS
 62
     7
 10
3.4065512181
 20
10.2554861911
 30
0.0
 11
3.4065512181
 21
8.8342263486
 31
0.0
  0
CIRCLE
  5
181
  8
0
  6
CONTINUOUS
 62
     7
 10
3.5640315331
 20
9.9385570573
 30
0.0
 40
0.0688976377952741
  0
CIRCLE
  5
182
  8
0
  6
CONTINUOUS
 62
     7
 10
5.7490709031
 20
9.1511554825
 30
0.0
 40
0.0688976377952759
  0
CIRCLE
  5
183
  8
0
  6
CONTINUOUS
 62
     7
 10
3.8593071236
 20
9.1511554825
 30
0.0
 40
0.0688976377952759
  0
CIRCLE
  5
184
  8
0
  6
CONTINUOUS
 62
     7
 10
3.8593071236
 20
9.9385570573
 30
0.0
 40
0.0688976377952759
  0
CIRCLE
  5
185
  8
0
  6
CONTINUOUS
 62
     7
 10
5.4537953126
 20
9.9385570573
 30
0.0
 40
0.0688976377952759
  0
CIRCLE
  5
186
  8
0
  6
CONTINUOUS
 62
     7
 10
5.4537953126
 20
9.1511554825
 30
0.0
 40
0.0688976377952759
  0
CIRCLE
  5
187
  8
0
  6
CONTINUOUS
 62
     7
 10
8.920189582
 20
8.7732696796
 30
0.0
 40
0.3140000000000001
  0
LINE
  5
188
  8
0
  6
CONTINUOUS
 62
     7
 10
8.2213706844
 20
8.0626397584
 30
0.0
 11
9.6190084797
 21
8.0626397584
 31
0.0
  0
LINE
  5
189
  8
0
  6
CONTINUOUS
 62
     7
 10
8.2213706844
 20
8.7102775536
 30
0.0
 11
8.2213706844
 21
8.0626397584
 31
0.0
  0
LINE
  5
18A
  8
0
  6
CONTINUOUS
 62
     7
 10
8.2213706844
 20
8.7102775536
 30
0.0
 11
8.3394809206
 21
8.7102775536
 31
0.0
  0
LINE
  5
18B
  8
0
  6
CONTINUOUS
 62
     7
 10
8.3394809206
 20
8.7102775536
 30
0.0
 11
8.3394809206
 21
8.6606712544
 31
0.0
  0
LINE
  5
18C
  8
0
  6
CONTINUOUS
 62
     7
 10
8.3394809206
 20
8.6606712544
 30
0.0
 11
8.4497171411
 21
8.6606712544
 31
0.0
  0
LINE
  5
18D
  8
0
  6
CONTINUOUS
 62
     7
 10
8.4497171411
 20
8.6606712544
 30
0.0
 11
8.4497171411
 21
8.7102775536
 31
0.0
  0
LINE
  5
18E
  8
0
  6
CONTINUOUS
 62
     7
 10
8.4497171411
 20
8.7102775536
 30
0.0
 11
8.4575911568
 21
8.7102775536
 31
0.0
  0
LINE
  5
18F
  8
0
  6
CONTINUOUS
 62
     7
 10
8.4575911568
 20
8.7102775536
 30
0.0
 11
8.4575911568
 21
8.8362618056
 31
0.0
  0
LINE
  5
190
  8
0
  6
CONTINUOUS
 62
     7
 10
8.4575911568
 20
8.8362618056
 30
0.0
 11
8.4497171411
 21
8.8362618056
 31
0.0
  0
LINE
  5
191
  8
0
  6
CONTINUOUS
 62
     7
 10
8.4497171411
 20
8.8362618056
 30
0.0
 11
8.4497171411
 21
8.8858681048
 31
0.0
  0
LINE
  5
192
  8
0
  6
CONTINUOUS
 62
     7
 10
8.4497171411
 20
8.8858681048
 30
0.0
 11
8.3394809206
 21
8.8858681048
 31
0.0
  0
LINE
  5
193
  8
0
  6
CONTINUOUS
 62
     7
 10
8.3394809206
 20
8.8858681048
 30
0.0
 11
8.3394809206
 21
8.8362618056
 31
0.0
  0
LINE
  5
194
  8
0
  6
CONTINUOUS
 62
     7
 10
8.3394809206
 20
8.8362618056
 30
0.0
 11
8.2213706844
 21
8.8362618056
 31
0.0
  0
LINE
  5
195
  8
0
  6
CONTINUOUS
 62
     7
 10
9.6190084797
 20
9.4838996009
 30
0.0
 11
8.2213706844
 21
9.4838996009
 31
0.0
  0
LINE
  5
196
  8
0
  6
CONTINUOUS
 62
     7
 10
9.6190084797
 20
8.8362618056
 30
0.0
 11
9.6190084797
 21
9.4838996009
 31
0.0
  0
LINE
  5
197
  8
0
  6
CONTINUOUS
 62
     7
 10
9.6190084797
 20
8.8362618056
 30
0.0
 11
9.5008982434
 21
8.8362618056
 31
0.0
  0
LINE
  5
198
  8
0
  6
CONTINUOUS
 62
     7
 10
9.5008982434
 20
8.8362618056
 30
0.0
 11
9.5008982434
 21
8.8858681048
 31
0.0
  0
LINE
  5
199
  8
0
  6
CONTINUOUS
 62
     7
 10
9.5008982434
 20
8.8858681048
 30
0.0
 11
9.390662023
 21
8.8858681048
 31
0.0
  0
LINE
  5
19A
  8
0
  6
CONTINUOUS
 62
     7
 10
9.390662023
 20
8.8858681048
 30
0.0
 11
9.390662023
 21
8.8362618056
 31
0.0
  0
LINE
  5
19B
  8
0
  6
CONTINUOUS
 62
     7
 10
9.390662023
 20
8.8362618056
 30
0.0
 11
9.3827880072
 21
8.8362618056
 31
0.0
  0
LINE
  5
19C
  8
0
  6
CONTINUOUS
 62
     7
 10
9.3827880072
 20
8.8362618056
 30
0.0
 11
9.3827880072
 21
8.7102775536
 31
0.0
  0
LINE
  5
19D
  8
0
  6
CONTINUOUS
 62
     7
 10
9.3827880072
 20
8.7102775536
 30
0.0
 11
9.390662023
 21
8.7102775536
 31
0.0
  0
LINE
  5
19E
  8
0
  6
CONTINUOUS
 62
     7
 10
9.390662023
 20
8.7102775536
 30
0.0
 11
9.390662023
 21
8.6606712544
 31
0.0
  0
LINE
  5
19F
  8
0
  6
CONTINUOUS
 62
     7
 10
9.390662023
 20
8.6606712544
 30
0.0
 11
9.5008982434
 21
8.6606712544
 31
0.0
  0
LINE
  5
1A0
  8
0
  6
CONTINUOUS
 62
     7
 10
9.5008982434
 20
8.6606712544
 30
0.0
 11
9.5008982434
 21
8.7102775536
 31
0.0
  0
LINE
  5
1A1
  8
0
  6
CONTINUOUS
 62
     7
 10
9.5008982434
 20
8.7102775536
 30
0.0
 11
9.6190084797
 21
8.7102775536
 31
0.0
  0
LINE
  5
1A2
  8
0
  6
CONTINUOUS
 62
     7
 10
8.2213706844
 20
9.4838996009
 30
0.0
 11
8.2213706844
 21
8.8362618056
 31
0.0
  0
LINE
  5
1A3
  8
0
  6
CONTINUOUS
 62
     7
 10
9.6190084797
 20
8.0626397584
 30
0.0
 11
9.6190084797
 21
8.7102775536
 31
0.0
  0
CIRCLE
  5
1A4
  8
0
  6
CONTINUOUS
 62
     7
 10
11.1998340075
 20
8.3063545563
 30
0.0
 40
0.3140000000000001
  0
LINE
  5
1A5
  8
0
  6
CONTINUOUS
 62
     7
 10
10.5010151099
 20
9.0169844776
 30
0.0
 11
11.8986529052
 21
9.0169844776
 31
0.0
  0
LINE
  5
1A6
  8
0
  6
CONTINUOUS
 62
     7
 10
11.8986529052
 20
9.0169844776
 30
0.0
 11
11.8986529052
 21
8.8437561311
 31
0.0
  0
LINE
  5
1A7
  8
0
  6
CONTINUOUS
 62
     7
 10
11.8986529052
 20
8.8437561311
 30
0.0
 11
11.7805426689
 21
8.8437561311
 31
0.0
  0
LINE
  5
1A8
  8
0
  6
CONTINUOUS
 62
     7
 10
11.7805426689
 20
8.8437561311
 30
0.0
 11
11.7805426689
 21
8.8933624303
 31
0.0
  0
LINE
  5
1A9
  8
0
  6
CONTINUOUS
 62
     7
 10
11.7805426689
 20
8.8933624303
 30
0.0
 11
11.6703064485
 21
8.8933624303
 31
0.0
  0
LINE
  5
1AA
  8
0
  6
CONTINUOUS
 62
     7
 10
11.6703064485
 20
8.8933624303
 30
0.0
 11
11.6703064485
 21
8.8437561311
 31
0.0
  0
LINE
  5
1AB
  8
0
  6
CONTINUOUS
 62
     7
 10
11.6703064485
 20
8.8437561311
 30
0.0
 11
11.5836922752
 21
8.8437561311
 31
0.0
  0
LINE
  5
1AC
  8
0
  6
CONTINUOUS
 62
     7
 10
11.5836922752
 20
8.8437561311
 30
0.0
 11
11.5836922752
 21
8.7177718792
 31
0.0
  0
LINE
  5
1AD
  8
0
  6
CONTINUOUS
 62
     7
 10
11.5836922752
 20
8.7177718792
 30
0.0
 11
11.6703064485
 21
8.7177718792
 31
0.0
  0
LINE
  5
1AE
  8
0
  6
CONTINUOUS
 62
     7
 10
11.6703064485
 20
8.7177718792
 30
0.0
 11
11.6703064485
 21
8.66816558
 31
0.0
  0
LINE
  5
1AF
  8
0
  6
CONTINUOUS
 62
     7
 10
11.6703064485
 20
8.66816558
 30
0.0
 11
11.7805426689
 21
8.66816558
 31
0.0
  0
LINE
  5
1B0
  8
0
  6
CONTINUOUS
 62
     7
 10
11.7805426689
 20
8.66816558
 30
0.0
 11
11.7805426689
 21
8.7177718792
 31
0.0
  0
LINE
  5
1B1
  8
0
  6
CONTINUOUS
 62
     7
 10
11.7805426689
 20
8.7177718792
 30
0.0
 11
11.8986529052
 21
8.7177718792
 31
0.0
  0
LINE
  5
1B2
  8
0
  6
CONTINUOUS
 62
     7
 10
11.8986529052
 20
7.8949372335
 30
0.0
 11
11.7805426689
 21
7.8949372335
 31
0.0
  0
LINE
  5
1B3
  8
0
  6
CONTINUOUS
 62
     7
 10
11.7805426689
 20
7.9445435327
 30
0.0
 11
11.6703064485
 21
7.9445435327
 31
0.0
  0
LINE
  5
1B4
  8
0
  6
CONTINUOUS
 62
     7
 10
11.6703064485
 20
7.9445435327
 30
0.0
 11
11.6703064485
 21
7.8949372335
 31
0.0
  0
LINE
  5
1B5
  8
0
  6
CONTINUOUS
 62
     7
 10
11.6703064485
 20
7.8949372335
 30
0.0
 11
11.5836922752
 21
7.8949372335
 31
0.0
  0
LINE
  5
1B6
  8
0
  6
CONTINUOUS
 62
     7
 10
11.5836922752
 20
7.8949372335
 30
0.0
 11
11.5836922752
 21
7.7689529815
 31
0.0
  0
LINE
  5
1B7
  8
0
  6
CONTINUOUS
 62
     7
 10
11.5836922752
 20
7.7689529815
 30
0.0
 11
11.6703064485
 21
7.7689529815
 31
0.0
  0
LINE
  5
1B8
  8
0
  6
CONTINUOUS
 62
     7
 10
11.6703064485
 20
7.7689529815
 30
0.0
 11
11.6703064485
 21
7.7193466823
 31
0.0
  0
LINE
  5
1B9
  8
0
  6
CONTINUOUS
 62
     7
 10
11.6703064485
 20
7.7193466823
 30
0.0
 11
11.7805426689
 21
7.7193466823
 31
0.0
  0
LINE
  5
1BA
  8
0
  6
CONTINUOUS
 62
     7
 10
11.7805426689
 20
7.7193466823
 30
0.0
 11
11.7805426689
 21
7.7689529815
 31
0.0
  0
LINE
  5
1BB
  8
0
  6
CONTINUOUS
 62
     7
 10
11.7805426689
 20
7.7689529815
 30
0.0
 11
11.8986529052
 21
7.7689529815
 31
0.0
  0
LINE
  5
1BC
  8
0
  6
CONTINUOUS
 62
     7
 10
11.8986529052
 20
7.5957246351
 30
0.0
 11
10.5010151099
 21
7.5957246351
 31
0.0
  0
LINE
  5
1BD
  8
0
  6
CONTINUOUS
 62
     7
 10
10.5010151099
 20
7.7689529815
 30
0.0
 11
10.6191253461
 21
7.7689529815
 31
0.0
  0
LINE
  5
1BE
  8
0
  6
CONTINUOUS
 62
     7
 10
10.6191253461
 20
7.7689529815
 30
0.0
 11
10.6191253461
 21
7.7193466823
 31
0.0
  0
LINE
  5
1BF
  8
0
  6
CONTINUOUS
 62
     7
 10
10.6191253461
 20
7.7193466823
 30
0.0
 11
10.7293615666
 21
7.7193466823
 31
0.0
  0
LINE
  5
1C0
  8
0
  6
CONTINUOUS
 62
     7
 10
10.7293615666
 20
7.7193466823
 30
0.0
 11
10.7293615666
 21
7.7689529815
 31
0.0
  0
LINE
  5
1C1
  8
0
  6
CONTINUOUS
 62
     7
 10
10.7293615666
 20
7.7689529815
 30
0.0
 11
10.8159757398
 21
7.7689529815
 31
0.0
  0
LINE
  5
1C2
  8
0
  6
CONTINUOUS
 62
     7
 10
10.8159757398
 20
7.7689529815
 30
0.0
 11
10.8159757398
 21
7.8949372335
 31
0.0
  0
LINE
  5
1C3
  8
0
  6
CONTINUOUS
 62
     7
 10
10.8159757398
 20
7.8949372335
 30
0.0
 11
10.7293615666
 21
7.8949372335
 31
0.0
  0
LINE
  5
1C4
  8
0
  6
CONTINUOUS
 62
     7
 10
10.7293615666
 20
7.8949372335
 30
0.0
 11
10.7293615666
 21
7.9445435327
 31
0.0
  0
LINE
  5
1C5
  8
0
  6
CONTINUOUS
 62
     7
 10
10.7293615666
 20
7.9445435327
 30
0.0
 11
10.6191253461
 21
7.9445435327
 31
0.0
  0
LINE
  5
1C6
  8
0
  6
CONTINUOUS
 62
     7
 10
10.6191253461
 20
7.9445435327
 30
0.0
 11
10.6191253461
 21
7.8949372335
 31
0.0
  0
LINE
  5
1C7
  8
0
  6
CONTINUOUS
 62
     7
 10
10.6191253461
 20
7.8949372335
 30
0.0
 11
10.5010151099
 21
7.8949372335
 31
0.0
  0
LINE
  5
1C8
  8
0
  6
CONTINUOUS
 62
     7
 10
10.5010151099
 20
7.8949372335
 30
0.0
 11
10.5010151099
 21
8.7177718792
 31
0.0
  0
LINE
  5
1C9
  8
0
  6
CONTINUOUS
 62
     7
 10
10.5010151099
 20
8.7177718792
 30
0.0
 11
10.6191253461
 21
8.7177718792
 31
0.0
  0
LINE
  5
1CA
  8
0
  6
CONTINUOUS
 62
     7
 10
10.6191253461
 20
8.7177718792
 30
0.0
 11
10.6191253461
 21
8.66816558
 31
0.0
  0
LINE
  5
1CB
  8
0
  6
CONTINUOUS
 62
     7
 10
10.6191253461
 20
8.66816558
 30
0.0
 11
10.7293615666
 21
8.66816558
 31
0.0
  0
LINE
  5
1CC
  8
0
  6
CONTINUOUS
 62
     7
 10
10.7293615666
 20
8.66816558
 30
0.0
 11
10.7293615666
 21
8.7177718792
 31
0.0
  0
LINE
  5
1CD
  8
0
  6
CONTINUOUS
 62
     7
 10
10.7293615666
 20
8.7177718792
 30
0.0
 11
10.8159757398
 21
8.7177718792
 31
0.0
  0
LINE
  5
1CE
  8
0
  6
CONTINUOUS
 62
     7
 10
10.8159757398
 20
8.7177718792
 30
0.0
 11
10.8159757398
 21
8.8437561311
 31
0.0
  0
LINE
  5
1CF
  8
0
  6
CONTINUOUS
 62
     7
 10
10.8159757398
 20
8.8437561311
 30
0.0
 11
10.7293615666
 21
8.8437561311
 31
0.0
  0
LINE
  5
1D0
  8
0
  6
CONTINUOUS
 62
     7
 10
10.7293615666
 20
8.8437561311
 30
0.0
 11
10.7293615666
 21
8.8933624303
 31
0.0
  0
LINE
  5
1D1
  8
0
  6
CONTINUOUS
 62
     7
 10
10.7293615666
 20
8.8933624303
 30
0.0
 11
10.6191253461
 21
8.8933624303
 31
0.0
  0
LINE
  5
1D2
  8
0
  6
CONTINUOUS
 62
     7
 10
10.6191253461
 20
8.8933624303
 30
0.0
 11
10.6191253461
 21
8.8437561311
 31
0.0
  0
LINE
  5
1D3
  8
0
  6
CONTINUOUS
 62
     7
 10
10.6191253461
 20
8.8437561311
 30
0.0
 11
10.5010151099
 21
8.8437561311
 31
0.0
  0
LINE
  5
1D4
  8
0
  6
CONTINUOUS
 62
     7
 10
11.7805426689
 20
7.8949372335
 30
0.0
 11
11.7805426689
 21
7.9445435327
 31
0.0
  0
LINE
  5
1D5
  8
0
  6
CONTINUOUS
 62
     7
 10
10.5010151099
 20
7.5957246351
 30
0.0
 11
10.5010151099
 21
7.7689529815
 31
0.0
  0
LINE
  5
1D6
  8
0
  6
CONTINUOUS
 62
     7
 10
11.8986529052
 20
7.7689529815
 30
0.0
 11
11.8986529052
 21
7.5957246351
 31
0.0
  0
LINE
  5
1D7
  8
0
  6
CONTINUOUS
 62
     7
 10
11.8986529052
 20
8.7177718792
 30
0.0
 11
11.8986529052
 21
7.8949372335
 31
0.0
  0
LINE
  5
1D8
  8
0
  6
CONTINUOUS
 62
     7
 10
10.5010151099
 20
8.8437561311
 30
0.0
 11
10.5010151099
 21
9.0169844776
 31
0.0
  0
CIRCLE
  5
1D9
  8
0
  6
CONTINUOUS
 62
     7
 10
13.534409624
 20
8.1140953879
 30
0.0
 40
0.3140000000000001
  0
LINE
  5
1DA
  8
0
  6
CONTINUOUS
 62
     7
 10
12.8355907264
 20
8.8247253092
 30
0.0
 11
14.2332285216
 21
8.8247253092
 31
0.0
  0
LINE
  5
1DB
  8
0
  6
CONTINUOUS
 62
     7
 10
14.2332285216
 20
8.8247253092
 30
0.0
 11
14.2332285216
 21
8.6514969627
 31
0.0
  0
LINE
  5
1DC
  8
0
  6
CONTINUOUS
 62
     7
 10
14.2332285216
 20
8.6514969627
 30
0.0
 11
14.1151182854
 21
8.6514969627
 31
0.0
  0
LINE
  5
1DD
  8
0
  6
CONTINUOUS
 62
     7
 10
14.1151182854
 20
8.6514969627
 30
0.0
 11
14.1151182854
 21
8.7011032619
 31
0.0
  0
LINE
  5
1DE
  8
0
  6
CONTINUOUS
 62
     7
 10
14.1151182854
 20
8.7011032619
 30
0.0
 11
14.004882065
 21
8.7011032619
 31
0.0
  0
LINE
  5
1DF
  8
0
  6
CONTINUOUS
 62
     7
 10
14.004882065
 20
8.7011032619
 30
0.0
 11
14.004882065
 21
8.6514969627
 31
0.0
  0
LINE
  5
1E0
  8
0
  6
CONTINUOUS
 62
     7
 10
14.004882065
 20
8.6514969627
 30
0.0
 11
13.9182678917
 21
8.6514969627
 31
0.0
  0
LINE
  5
1E1
  8
0
  6
CONTINUOUS
 62
     7
 10
13.9182678917
 20
8.6514969627
 30
0.0
 11
13.9182678917
 21
8.5255127108
 31
0.0
  0
LINE
  5
1E2
  8
0
  6
CONTINUOUS
 62
     7
 10
13.9182678917
 20
8.5255127108
 30
0.0
 11
14.004882065
 21
8.5255127108
 31
0.0
  0
LINE
  5
1E3
  8
0
  6
CONTINUOUS
 62
     7
 10
14.004882065
 20
8.5255127108
 30
0.0
 11
14.004882065
 21
8.4759064115
 31
0.0
  0
LINE
  5
1E4
  8
0
  6
CONTINUOUS
 62
     7
 10
14.004882065
 20
8.4759064115
 30
0.0
 11
14.1151182854
 21
8.4759064115
 31
0.0
  0
LINE
  5
1E5
  8
0
  6
CONTINUOUS
 62
     7
 10
14.1151182854
 20
8.4759064115
 30
0.0
 11
14.1151182854
 21
8.5255127108
 31
0.0
  0
LINE
  5
1E6
  8
0
  6
CONTINUOUS
 62
     7
 10
14.1151182854
 20
8.5255127108
 30
0.0
 11
14.2332285216
 21
8.5255127108
 31
0.0
  0
LINE
  5
1E7
  8
0
  6
CONTINUOUS
 62
     7
 10
14.2332285216
 20
7.7026780651
 30
0.0
 11
14.1151182854
 21
7.7026780651
 31
0.0
  0
LINE
  5
1E8
  8
0
  6
CONTINUOUS
 62
     7
 10
14.1151182854
 20
7.7522843643
 30
0.0
 11
14.004882065
 21
7.7522843643
 31
0.0
  0
LINE
  5
1E9
  8
0
  6
CONTINUOUS
 62
     7
 10
14.004882065
 20
7.7522843643
 30
0.0
 11
14.004882065
 21
7.7026780651
 31
0.0
  0
LINE
  5
1EA
  8
0
  6
CONTINUOUS
 62
     7
 10
14.004882065
 20
7.7026780651
 30
0.0
 11
13.9182678917
 21
7.7026780651
 31
0.0
  0
LINE
  5
1EB
  8
0
  6
CONTINUOUS
 62
     7
 10
13.9182678917
 20
7.7026780651
 30
0.0
 11
13.9182678917
 21
7.5766938131
 31
0.0
  0
LINE
  5
1EC
  8
0
  6
CONTINUOUS
 62
     7
 10
13.9182678917
 20
7.5766938131
 30
0.0
 11
14.004882065
 21
7.5766938131
 31
0.0
  0
LINE
  5
1ED
  8
0
  6
CONTINUOUS
 62
     7
 10
14.004882065
 20
7.5766938131
 30
0.0
 11
14.004882065
 21
7.5270875139
 31
0.0
  0
LINE
  5
1EE
  8
0
  6
CONTINUOUS
 62
     7
 10
14.004882065
 20
7.5270875139
 30
0.0
 11
14.1151182854
 21
7.5270875139
 31
0.0
  0
LINE
  5
1EF
  8
0
  6
CONTINUOUS
 62
     7
 10
14.1151182854
 20
7.5270875139
 30
0.0
 11
14.1151182854
 21
7.5766938131
 31
0.0
  0
LINE
  5
1F0
  8
0
  6
CONTINUOUS
 62
     7
 10
14.1151182854
 20
7.5766938131
 30
0.0
 11
14.2332285216
 21
7.5766938131
 31
0.0
  0
LINE
  5
1F1
  8
0
  6
CONTINUOUS
 62
     7
 10
14.2332285216
 20
7.4034654667
 30
0.0
 11
12.8355907264
 21
7.4034654667
 31
0.0
  0
LINE
  5
1F2
  8
0
  6
CONTINUOUS
 62
     7
 10
12.8355907264
 20
7.5766938131
 30
0.0
 11
12.9537009626
 21
7.5766938131
 31
0.0
  0
LINE
  5
1F3
  8
0
  6
CONTINUOUS
 62
     7
 10
12.9537009626
 20
7.5766938131
 30
0.0
 11
12.9537009626
 21
7.5270875139
 31
0.0
  0
LINE
  5
1F4
  8
0
  6
CONTINUOUS
 62
     7
 10
12.9537009626
 20
7.5270875139
 30
0.0
 11
13.0639371831
 21
7.5270875139
 31
0.0
  0
LINE
  5
1F5
  8
0
  6
CONTINUOUS
 62
     7
 10
13.0639371831
 20
7.5270875139
 30
0.0
 11
13.0639371831
 21
7.5766938131
 31
0.0
  0
LINE
  5
1F6
  8
0
  6
CONTINUOUS
 62
     7
 10
13.0639371831
 20
7.5766938131
 30
0.0
 11
13.1505513563
 21
7.5766938131
 31
0.0
  0
LINE
  5
1F7
  8
0
  6
CONTINUOUS
 62
     7
 10
13.1505513563
 20
7.5766938131
 30
0.0
 11
13.1505513563
 21
7.7026780651
 31
0.0
  0
LINE
  5
1F8
  8
0
  6
CONTINUOUS
 62
     7
 10
13.1505513563
 20
7.7026780651
 30
0.0
 11
13.0639371831
 21
7.7026780651
 31
0.0
  0
LINE
  5
1F9
  8
0
  6
CONTINUOUS
 62
     7
 10
13.0639371831
 20
7.7026780651
 30
0.0
 11
13.0639371831
 21
7.7522843643
 31
0.0
  0
LINE
  5
1FA
  8
0
  6
CONTINUOUS
 62
     7
 10
13.0639371831
 20
7.7522843643
 30
0.0
 11
12.9537009626
 21
7.7522843643
 31
0.0
  0
LINE
  5
1FB
  8
0
  6
CONTINUOUS
 62
     7
 10
12.9537009626
 20
7.7522843643
 30
0.0
 11
12.9537009626
 21
7.7026780651
 31
0.0
  0
LINE
  5
1FC
  8
0
  6
CONTINUOUS
 62
     7
 10
12.9537009626
 20
7.7026780651
 30
0.0
 11
12.8355907264
 21
7.7026780651
 31
0.0
  0
LINE
  5
1FD
  8
0
  6
CONTINUOUS
 62
     7
 10
12.8355907264
 20
7.7026780651
 30
0.0
 11
12.8355907264
 21
8.5255127108
 31
0.0
  0
LINE
  5
1FE
  8
0
  6
CONTINUOUS
 62
     7
 10
12.8355907264
 20
8.5255127108
 30
0.0
 11
12.9537009626
 21
8.5255127108
 31
0.0
  0
LINE
  5
1FF
  8
0
  6
CONTINUOUS
 62
     7
 10
12.9537009626
 20
8.5255127108
 30
0.0
 11
12.9537009626
 21
8.4759064115
 31
0.0
  0
LINE
  5
200
  8
0
  6
CONTINUOUS
 62
     7
 10
12.9537009626
 20
8.4759064115
 30
0.0
 11
13.0639371831
 21
8.4759064115
 31
0.0
  0
LINE
  5
201
  8
0
  6
CONTINUOUS
 62
     7
 10
13.0639371831
 20
8.4759064115
 30
0.0
 11
13.0639371831
 21
8.5255127108
 31
0.0
  0
LINE
  5
202
  8
0
  6
CONTINUOUS
 62
     7
 10
13.0639371831
 20
8.5255127108
 30
0.0
 11
13.1505513563
 21
8.5255127108
 31
0.0
  0
LINE
  5
203
  8
0
  6
CONTINUOUS
 62
     7
 10
13.1505513563
 20
8.5255127108
 30
0.0
 11
13.1505513563
 21
8.6514969627
 31
0.0
  0
LINE
  5
204
  8
0
  6
CONTINUOUS
 62
     7
 10
13.1505513563
 20
8.6514969627
 30
0.0
 11
13.0639371831
 21
8.6514969627
 31
0.0
  0
LINE
  5
205
  8
0
  6
CONTINUOUS
 62
     7
 10
13.0639371831
 20
8.6514969627
 30
0.0
 11
13.0639371831
 21
8.7011032619
 31
0.0
  0
LINE
  5
206
  8
0
  6
CONTINUOUS
 62
     7
 10
13.0639371831
 20
8.7011032619
 30
0.0
 11
12.9537009626
 21
8.7011032619
 31
0.0
  0
LINE
  5
207
  8
0
  6
CONTINUOUS
 62
     7
 10
12.9537009626
 20
8.7011032619
 30
0.0
 11
12.9537009626
 21
8.6514969627
 31
0.0
  0
LINE
  5
208
  8
0
  6
CONTINUOUS
 62
     7
 10
12.9537009626
 20
8.6514969627
 30
0.0
 11
12.8355907264
 21
8.6514969627
 31
0.0
  0
LINE
  5
209
  8
0
  6
CONTINUOUS
 62
     7
 10
14.1151182854
 20
7.7026780651
 30
0.0
 11
14.1151182854
 21
7.7522843643
 31
0.0
  0
LINE
  5
20A
  8
0
  6
CONTINUOUS
 62
     7
 10
12.8355907264
 20
7.4034654667
 30
0.0
 11
12.8355907264
 21
7.5766938131
 31
0.0
  0
LINE
  5
20B
  8
0
  6
CONTINUOUS
 62
     7
 10
14.2332285216
 20
7.5766938131
 30
0.0
 11
14.2332285216
 21
7.4034654667
 31
0.0
  0
LINE
  5
20C
  8
0
  6
CONTINUOUS
 62
     7
 10
14.2332285216
 20
8.5255127108
 30
0.0
 11
14.2332285216
 21
7.7026780651
 31
0.0
  0
LINE
  5
20D
  8
0
  6
CONTINUOUS
 62
     7
 10
12.8355907264
 20
8.6514969627
 30
0.0
 11
12.8355907264
 21
8.8247253092
 31
0.0
  0
CIRCLE
  5
20E
  8
0
  6
CONTINUOUS
 62
     7
 10
13.2322880736
 20
5.5597950075
 30
0.0
 40
0.54
  0
LINE
  5
20F
  8
0
  6
CONTINUOUS
 62
     7
 10
12.533469176
 20
4.8491650863
 30
0.0
 11
13.9311069713
 21
4.8491650863
 31
0.0
  0
LINE
  5
210
  8
0
  6
CONTINUOUS
 62
     7
 10
12.533469176
 20
4.9633383146
 30
0.0
 11
12.533469176
 21
4.8491650863
 31
0.0
  0
LINE
  5
211
  8
0
  6
CONTINUOUS
 62
     7
 10
12.533469176
 20
4.9633383146
 30
0.0
 11
12.6515794122
 21
4.9633383146
 31
0.0
  0
LINE
  5
212
  8
0
  6
CONTINUOUS
 62
     7
 10
12.6515794122
 20
4.9633383146
 30
0.0
 11
12.6515794122
 21
4.9137320154
 31
0.0
  0
LINE
  5
213
  8
0
  6
CONTINUOUS
 62
     7
 10
12.6515794122
 20
4.9137320154
 30
0.0
 11
12.7618156327
 21
4.9137320154
 31
0.0
  0
LINE
  5
214
  8
0
  6
CONTINUOUS
 62
     7
 10
12.7618156327
 20
4.9137320154
 30
0.0
 11
12.7618156327
 21
4.9633383146
 31
0.0
  0
LINE
  5
215
  8
0
  6
CONTINUOUS
 62
     7
 10
12.7618156327
 20
4.9633383146
 30
0.0
 11
12.7696896484
 21
4.9633383146
 31
0.0
  0
LINE
  5
216
  8
0
  6
CONTINUOUS
 62
     7
 10
12.7696896484
 20
4.9633383146
 30
0.0
 11
12.7696896484
 21
5.0893225666
 31
0.0
  0
LINE
  5
217
  8
0
  6
CONTINUOUS
 62
     7
 10
12.7696896484
 20
5.0893225666
 30
0.0
 11
12.7618156327
 21
5.0893225666
 31
0.0
  0
LINE
  5
218
  8
0
  6
CONTINUOUS
 62
     7
 10
12.7618156327
 20
5.0893225666
 30
0.0
 11
12.7618156327
 21
5.1389288658
 31
0.0
  0
LINE
  5
219
  8
0
  6
CONTINUOUS
 62
     7
 10
12.7618156327
 20
5.1389288658
 30
0.0
 11
12.6515794122
 21
5.1389288658
 31
0.0
  0
LINE
  5
21A
  8
0
  6
CONTINUOUS
 62
     7
 10
12.6515794122
 20
5.1389288658
 30
0.0
 11
12.6515794122
 21
5.0893225666
 31
0.0
  0
LINE
  5
21B
  8
0
  6
CONTINUOUS
 62
     7
 10
12.6515794122
 20
5.0893225666
 30
0.0
 11
12.533469176
 21
5.0893225666
 31
0.0
  0
LINE
  5
21C
  8
0
  6
CONTINUOUS
 62
     7
 10
12.533469176
 20
6.0302674485
 30
0.0
 11
12.6515794122
 21
6.0302674485
 31
0.0
  0
LINE
  5
21D
  8
0
  6
CONTINUOUS
 62
     7
 10
12.6515794122
 20
6.0302674485
 30
0.0
 11
12.6515794122
 21
5.9806611493
 31
0.0
  0
LINE
  5
21E
  8
0
  6
CONTINUOUS
 62
     7
 10
12.6515794122
 20
5.9806611493
 30
0.0
 11
12.7618156327
 21
5.9806611493
 31
0.0
  0
LINE
  5
21F
  8
0
  6
CONTINUOUS
 62
     7
 10
12.7618156327
 20
5.9806611493
 30
0.0
 11
12.7618156327
 21
6.0302674485
 31
0.0
  0
LINE
  5
220
  8
0
  6
CONTINUOUS
 62
     7
 10
12.7618156327
 20
6.0302674485
 30
0.0
 11
12.7696896484
 21
6.0302674485
 31
0.0
  0
LINE
  5
221
  8
0
  6
CONTINUOUS
 62
     7
 10
12.7696896484
 20
6.0302674485
 30
0.0
 11
12.7696896484
 21
6.1562517004
 31
0.0
  0
LINE
  5
222
  8
0
  6
CONTINUOUS
 62
     7
 10
12.7696896484
 20
6.1562517004
 30
0.0
 11
12.7618156327
 21
6.1562517004
 31
0.0
  0
LINE
  5
223
  8
0
  6
CONTINUOUS
 62
     7
 10
12.7618156327
 20
6.1562517004
 30
0.0
 11
12.7618156327
 21
6.2058579997
 31
0.0
  0
LINE
  5
224
  8
0
  6
CONTINUOUS
 62
     7
 10
12.7618156327
 20
6.2058579997
 30
0.0
 11
12.6515794122
 21
6.2058579997
 31
0.0
  0
LINE
  5
225
  8
0
  6
CONTINUOUS
 62
     7
 10
12.6515794122
 20
6.2058579997
 30
0.0
 11
12.6515794122
 21
6.1562517004
 31
0.0
  0
LINE
  5
226
  8
0
  6
CONTINUOUS
 62
     7
 10
12.6515794122
 20
6.1562517004
 30
0.0
 11
12.533469176
 21
6.1562517004
 31
0.0
  0
LINE
  5
227
  8
0
  6
CONTINUOUS
 62
     7
 10
13.9311069713
 20
6.2704249288
 30
0.0
 11
12.533469176
 21
6.2704249288
 31
0.0
  0
LINE
  5
228
  8
0
  6
CONTINUOUS
 62
     7
 10
13.9311069713
 20
6.1562517004
 30
0.0
 11
13.8129967351
 21
6.1562517004
 31
0.0
  0
LINE
  5
229
  8
0
  6
CONTINUOUS
 62
     7
 10
13.8129967351
 20
6.1562517004
 30
0.0
 11
13.8129967351
 21
6.2058579997
 31
0.0
  0
LINE
  5
22A
  8
0
  6
CONTINUOUS
 62
     7
 10
13.8129967351
 20
6.2058579997
 30
0.0
 11
13.7027605146
 21
6.2058579997
 31
0.0
  0
LINE
  5
22B
  8
0
  6
CONTINUOUS
 62
     7
 10
13.7027605146
 20
6.2058579997
 30
0.0
 11
13.7027605146
 21
6.1562517004
 31
0.0
  0
LINE
  5
22C
  8
0
  6
CONTINUOUS
 62
     7
 10
13.7027605146
 20
6.1562517004
 30
0.0
 11
13.6948864988
 21
6.1562517004
 31
0.0
  0
LINE
  5
22D
  8
0
  6
CONTINUOUS
 62
     7
 10
13.6948864988
 20
6.1562517004
 30
0.0
 11
13.6948864988
 21
6.0302674485
 31
0.0
  0
LINE
  5
22E
  8
0
  6
CONTINUOUS
 62
     7
 10
13.6948864988
 20
6.0302674485
 30
0.0
 11
13.7027605146
 21
6.0302674485
 31
0.0
  0
LINE
  5
22F
  8
0
  6
CONTINUOUS
 62
     7
 10
13.7027605146
 20
6.0302674485
 30
0.0
 11
13.7027605146
 21
5.9806611493
 31
0.0
  0
LINE
  5
230
  8
0
  6
CONTINUOUS
 62
     7
 10
13.7027605146
 20
5.9806611493
 30
0.0
 11
13.8129967351
 21
5.9806611493
 31
0.0
  0
LINE
  5
231
  8
0
  6
CONTINUOUS
 62
     7
 10
13.8129967351
 20
5.9806611493
 30
0.0
 11
13.8129967351
 21
6.0302674485
 31
0.0
  0
LINE
  5
232
  8
0
  6
CONTINUOUS
 62
     7
 10
13.8129967351
 20
6.0302674485
 30
0.0
 11
13.9311069713
 21
6.0302674485
 31
0.0
  0
LINE
  5
233
  8
0
  6
CONTINUOUS
 62
     7
 10
13.9311069713
 20
5.0893225666
 30
0.0
 11
13.9311069713
 21
6.0302674485
 31
0.0
  0
LINE
  5
234
  8
0
  6
CONTINUOUS
 62
     7
 10
13.9311069713
 20
5.0893225666
 30
0.0
 11
13.8129967351
 21
5.0893225666
 31
0.0
  0
LINE
  5
235
  8
0
  6
CONTINUOUS
 62
     7
 10
13.8129967351
 20
5.0893225666
 30
0.0
 11
13.8129967351
 21
5.1389288658
 31
0.0
  0
LINE
  5
236
  8
0
  6
CONTINUOUS
 62
     7
 10
13.8129967351
 20
5.1389288658
 30
0.0
 11
13.7027605146
 21
5.1389288658
 31
0.0
  0
LINE
  5
237
  8
0
  6
CONTINUOUS
 62
     7
 10
13.7027605146
 20
5.1389288658
 30
0.0
 11
13.7027605146
 21
5.0893225666
 31
0.0
  0
LINE
  5
238
  8
0
  6
CONTINUOUS
 62
     7
 10
13.7027605146
 20
5.0893225666
 30
0.0
 11
13.6948864988
 21
5.0893225666
 31
0.0
  0
LINE
  5
239
  8
0
  6
CONTINUOUS
 62
     7
 10
13.6948864988
 20
5.0893225666
 30
0.0
 11
13.6948864988
 21
4.9633383146
 31
0.0
  0
LINE
  5
23A
  8
0
  6
CONTINUOUS
 62
     7
 10
13.6948864988
 20
4.9633383146
 30
0.0
 11
13.7027605146
 21
4.9633383146
 31
0.0
  0
LINE
  5
23B
  8
0
  6
CONTINUOUS
 62
     7
 10
13.7027605146
 20
4.9633383146
 30
0.0
 11
13.7027605146
 21
4.9137320154
 31
0.0
  0
LINE
  5
23C
  8
0
  6
CONTINUOUS
 62
     7
 10
13.7027605146
 20
4.9137320154
 30
0.0
 11
13.8129967351
 21
4.9137320154
 31
0.0
  0
LINE
  5
23D
  8
0
  6
CONTINUOUS
 62
     7
 10
13.8129967351
 20
4.9137320154
 30
0.0
 11
13.8129967351
 21
4.9633383146
 31
0.0
  0
LINE
  5
23E
  8
0
  6
CONTINUOUS
 62
     7
 10
13.8129967351
 20
4.9633383146
 30
0.0
 11
13.9311069713
 21
4.9633383146
 31
0.0
  0
LINE
  5
23F
  8
0
  6
CONTINUOUS
 62
     7
 10
12.533469176
 20
6.0302674485
 30
0.0
 11
12.533469176
 21
5.0893225666
 31
0.0
  0
LINE
  5
240
  8
0
  6
CONTINUOUS
 62
     7
 10
12.533469176
 20
6.2704249288
 30
0.0
 11
12.533469176
 21
6.1562517004
 31
0.0
  0
LINE
  5
241
  8
0
  6
CONTINUOUS
 62
     7
 10
13.9311069713
 20
6.1562517004
 30
0.0
 11
13.9311069713
 21
6.2704249288
 31
0.0
  0
LINE
  5
242
  8
0
  6
CONTINUOUS
 62
     7
 10
13.9311069713
 20
4.8491650863
 30
0.0
 11
13.9311069713
 21
4.9633383146
 31
0.0
  0
ENDSEC
  0
EOF
